G04 Layer_Physical_Order=2*
G04 Layer_Color=16711680*
%FSLAX23Y23*%
%MOIN*%
G70*
G01*
G75*
%ADD10C,0.010*%
%ADD11C,0.010*%
%ADD12R,0.059X0.059*%
%ADD13C,0.059*%
%ADD14R,0.059X0.059*%
%ADD15C,0.059*%
%ADD16R,0.059X0.059*%
%ADD17C,0.050*%
D10*
X3045Y680D02*
X3600D01*
X890Y2345D02*
X1056D01*
X1101Y2300D01*
X1303D01*
X1336Y2333D01*
X1416D01*
X3262Y2495D02*
X3730D01*
X2630Y2645D02*
X2673D01*
X2816Y2502D01*
X2943D01*
X3015Y2430D01*
X3124D01*
X3250Y2445D02*
X3485D01*
X3200Y2495D02*
X3250Y2445D01*
X3066Y2495D02*
X3200D01*
X3044Y2517D02*
X3066Y2495D01*
X3185Y2445D02*
X3216Y2414D01*
X3427D01*
X3441Y2400D01*
X3648D01*
X3830Y2395D02*
X3895Y2460D01*
X3827Y1665D02*
X3904D01*
X3795Y1633D02*
X3827Y1665D01*
X3795Y1590D02*
Y1633D01*
Y1590D02*
X3815Y1570D01*
X3943D01*
X3965Y1592D01*
Y2915D01*
X3791Y3089D02*
X3965Y2915D01*
X1791Y3089D02*
X3791D01*
X2525Y3005D02*
X3401D01*
X2580Y1250D02*
X2610D01*
X2669Y1191D01*
X2730D01*
X2752Y1213D01*
Y1441D01*
X3440Y2590D02*
X3485Y2545D01*
X3018Y2590D02*
X3440D01*
X2995Y2567D02*
X3018Y2590D01*
X320Y2845D02*
X375Y2790D01*
X939D01*
X1039Y2690D01*
X2388D01*
X2588Y2490D01*
X2671D01*
X2861Y2300D01*
X2950D01*
X3040Y2390D01*
X3286D01*
X3381Y2295D01*
X3530D01*
X2037Y1653D02*
X2140Y1550D01*
X2037Y1653D02*
Y1670D01*
X2012Y1695D02*
X2037Y1670D01*
X1970Y1695D02*
X2012D01*
X1915Y1750D02*
X1970Y1695D01*
X1915Y1750D02*
Y1895D01*
X2454Y2690D02*
X2554Y2590D01*
X2685D01*
X2930Y2345D01*
X2005Y2290D02*
X2050Y2245D01*
X1655Y2290D02*
X2005D01*
X1615Y2250D02*
X1655Y2290D01*
X1180Y1300D02*
X1230Y1250D01*
X725Y1300D02*
X1180D01*
X630Y1395D02*
X725Y1300D01*
X542Y1395D02*
X630D01*
X453Y1484D02*
X542Y1395D01*
X453Y1484D02*
Y1719D01*
X195Y1977D02*
X453Y1719D01*
X195Y1977D02*
Y2302D01*
X283Y2390D01*
X780D01*
X880Y2290D01*
X1056D01*
X1145Y2200D01*
X1255D01*
X1344Y2290D01*
X1514D01*
X1593Y2212D01*
X1747D01*
X1780Y2245D01*
X1060Y1750D02*
X1105Y1795D01*
X1485D01*
X1530Y1750D01*
Y1780D01*
X1725Y1975D01*
X1995D01*
X2018Y1953D01*
X1980Y1750D02*
X2025Y1795D01*
X2267D01*
X2312Y1750D01*
X2440D01*
X2485Y1795D01*
X2835D01*
X2880Y1750D01*
X420Y345D02*
X470Y395D01*
X290Y345D02*
X420D01*
X225Y410D02*
X290Y345D01*
X225Y410D02*
Y1450D01*
X270Y1495D01*
X334D01*
X479Y1350D01*
X610D01*
X245Y1385D02*
X310Y1450D01*
X245Y530D02*
Y1385D01*
Y530D02*
X325Y450D01*
X425D01*
X470Y495D01*
X310Y1750D02*
X404Y1656D01*
Y1505D02*
Y1656D01*
X1680Y1450D02*
X1777D01*
X1680Y1750D02*
X1775Y1845D01*
X2140Y1750D02*
X2395Y1495D01*
X2460D01*
X2485Y1470D01*
Y1320D02*
Y1470D01*
X2460Y1295D02*
X2485Y1320D01*
X2420Y1295D02*
X2460D01*
X2395Y1270D02*
X2420Y1295D01*
X2395Y1230D02*
Y1270D01*
Y1230D02*
X2420Y1205D01*
X2465D01*
X2555Y1295D01*
X2627D01*
X2691Y1231D01*
X2880Y1650D02*
X2909Y1621D01*
X3015D01*
X2711Y545D02*
X2995D01*
X3045Y495D01*
X2580Y1750D02*
X2621D01*
X2670Y1701D01*
X3035D01*
X3415Y425D02*
X3685D01*
X3840Y580D01*
X3315Y325D02*
X3364Y276D01*
X3676D01*
X3740Y340D01*
X3315Y425D02*
X3365Y375D01*
X3523D01*
X3533Y385D01*
X3795D01*
X3840Y340D01*
X894Y1250D02*
X1060D01*
X620Y2445D02*
X820D01*
X892Y1795D02*
X925D01*
X1015Y1705D01*
X1070D01*
X1105Y1670D01*
Y1595D02*
Y1670D01*
X1060Y1550D02*
X1105Y1595D01*
X527Y1633D02*
X610Y1550D01*
X527Y1633D02*
Y1851D01*
X321Y2057D02*
X527Y1851D01*
X205Y250D02*
X3845D01*
X3885Y290D01*
Y613D01*
X3847Y651D02*
X3885Y613D01*
X3541Y651D02*
X3847D01*
X3415Y525D02*
X3541Y651D01*
X3515Y925D02*
X3745D01*
X3415Y1025D02*
X3515Y925D01*
Y1025D02*
X3745D01*
X3415Y1125D02*
X3515Y1025D01*
X3676Y1194D02*
X3745Y1125D01*
X3446Y1194D02*
X3676D01*
X3415Y1225D02*
X3446Y1194D01*
X785Y1822D02*
X805Y1802D01*
Y1695D02*
Y1802D01*
X760Y1650D02*
X805Y1695D01*
X993Y1517D02*
X1060Y1450D01*
X993Y1517D02*
Y1670D01*
X175Y1785D02*
X310Y1650D01*
X175Y1785D02*
Y2430D01*
X235Y2490D01*
X1045D01*
X1190Y2345D01*
X495Y1565D02*
X610Y1450D01*
X495Y1565D02*
Y1717D01*
X215Y1997D02*
X495Y1717D01*
X215Y1997D02*
Y2210D01*
X295Y2290D01*
X845D01*
X890Y2245D01*
X3505Y1240D02*
X3576Y1311D01*
X3740D01*
X3365Y875D02*
X3415Y825D01*
X3365Y875D02*
Y1150D01*
X3385Y1170D01*
X3554D01*
X3649Y1075D01*
X3432Y1970D02*
Y2199D01*
X3331Y2300D02*
X3432Y2199D01*
X3074Y2300D02*
X3331D01*
X2975Y2200D02*
X3074Y2300D01*
X2834Y2200D02*
X2975D01*
X2737Y2297D02*
X2834Y2200D01*
X2265Y2297D02*
X2737D01*
X2073Y2490D02*
X2265Y2297D01*
X1145Y2490D02*
X2073D01*
X890Y2745D02*
X1145Y2490D01*
X3415Y725D02*
X3553D01*
X3698Y870D01*
X1869Y1602D02*
X1921Y1550D01*
X1980D01*
X1530Y1250D02*
X1580Y1300D01*
X1858D01*
X3415Y1425D02*
X3534D01*
X3594Y1485D01*
Y1569D01*
X3740Y1715D01*
X1125Y1580D02*
Y1750D01*
Y1580D02*
X1210Y1495D01*
X2025D01*
X2124Y1395D01*
X2185D01*
X2395Y1185D01*
Y1130D02*
Y1185D01*
Y1130D02*
X2420Y1105D01*
X2490D01*
X2512Y1127D01*
Y1170D01*
X2537Y1195D01*
X2625D01*
X2893Y927D01*
X3082D01*
X3125Y970D01*
Y1235D01*
X3170Y1280D01*
X3460D01*
X3480Y1300D01*
X3415Y1525D02*
X3514Y1624D01*
Y1649D01*
X3680Y1815D01*
X3740D01*
X3415Y1625D02*
X3450D01*
X3740Y1915D01*
X1630Y1400D02*
X1680Y1350D01*
X990Y1400D02*
X1630D01*
X785Y1605D02*
X990Y1400D01*
X725Y1605D02*
X785D01*
X630Y1700D02*
X725Y1605D01*
X590Y1700D02*
X630D01*
X565Y1725D02*
X590Y1700D01*
X565Y1725D02*
Y1810D01*
X648Y1893D01*
X1114D01*
X1301Y2080D01*
X2455D01*
X2198Y2445D02*
X2350D01*
X2153Y2490D02*
X2198Y2445D01*
X1230Y1650D02*
X1285Y1705D01*
X1570D01*
X1615Y1750D01*
Y1810D01*
X1760Y1955D01*
X1950D01*
X2015Y1890D01*
X2125D01*
X2268Y2033D01*
X1255Y2353D02*
X1292Y2390D01*
X2070D01*
X2215Y2245D01*
X2350D01*
X1265Y545D02*
X1415Y395D01*
X280Y545D02*
X1265D01*
X265Y560D02*
X280Y545D01*
X265Y560D02*
Y1170D01*
X290Y1195D01*
X1485D01*
X1530Y1150D01*
X3090Y1425D02*
X3315D01*
X2915Y1600D02*
X3090Y1425D01*
X2715Y1600D02*
X2915D01*
X2610Y1705D02*
X2715Y1600D01*
X2392Y1705D02*
X2610D01*
X2377Y2595D02*
X2415Y2557D01*
X2316Y2595D02*
X2377D01*
X2266Y2645D02*
X2316Y2595D01*
X2050Y2645D02*
X2266D01*
X3315Y1425D02*
X3360Y1380D01*
X3644D01*
X3687Y1423D01*
X2580Y1945D02*
X2642Y2007D01*
X3046D01*
X3100Y2061D01*
X3170D01*
X3180Y2051D01*
Y1660D02*
Y2051D01*
Y1660D02*
X3315Y1525D01*
X3365Y1475D01*
X3530D01*
X3574Y1519D01*
Y1642D01*
X3692Y1760D01*
X3315Y1625D02*
X3370Y1680D01*
Y1748D01*
X3665Y2043D01*
X3840Y1615D02*
X3920D01*
X3945Y1640D01*
Y2890D01*
X3789Y3045D02*
X3945Y2890D01*
X2250Y3045D02*
X3789D01*
X2226Y3021D02*
X2250Y3045D01*
X2090Y1300D02*
X2140Y1250D01*
X1945Y1300D02*
X2090D01*
X1915Y1330D02*
X1945Y1300D01*
X1915Y1330D02*
Y1405D01*
X1955Y2559D02*
X1985Y2590D01*
X2115D01*
X2214Y2490D01*
X2440D01*
X2530Y2400D01*
X2678D01*
X2834Y2245D01*
X2930D01*
X2440Y1550D02*
X2490Y1500D01*
X2623D01*
X3526Y2799D02*
X3730Y2595D01*
X3098Y2799D02*
X3526D01*
X3000Y2700D02*
X3098Y2799D01*
X2885Y2700D02*
X3000D01*
X2841Y2745D02*
X2885Y2700D01*
X2630Y2745D02*
X2841D01*
X2580Y1650D02*
X2706Y1524D01*
X2792D01*
X2821Y1495D01*
X2900D01*
X2925Y1470D01*
Y990D02*
Y1470D01*
X2646Y495D02*
X2945D01*
X2375Y1846D02*
X2589Y2060D01*
X3069D01*
X3089Y2081D01*
X3188D01*
X3339Y1930D01*
X3466D01*
X3570Y2034D01*
Y2325D01*
X3550Y2345D02*
X3570Y2325D01*
X3485Y2345D02*
X3550D01*
X2370Y570D02*
X2445Y495D01*
X2202Y570D02*
X2370D01*
X2445Y495D02*
X2495Y545D01*
X2611D01*
X2671Y605D01*
X2810D01*
X2850Y645D01*
X3111D01*
X3276Y480D01*
X3548D01*
X3679Y611D01*
X2445Y395D02*
X2495Y445D01*
X2625D01*
X2692Y378D01*
X835Y650D02*
X880Y695D01*
X415Y650D02*
X835D01*
X370Y695D02*
X415Y650D01*
X880Y695D02*
X925Y650D01*
X1370D01*
X1415Y695D01*
X1460Y650D01*
X1880D01*
X1925Y695D01*
X1970Y650D01*
X2400D01*
X2445Y695D01*
X2490Y650D01*
X2700D01*
X2745Y695D01*
X2945D01*
X1435Y2100D02*
X1480Y2145D01*
X935Y2100D02*
X1435D01*
X890Y2145D02*
X935Y2100D01*
X1480Y2145D02*
X1525Y2100D01*
X2005D01*
X2050Y2145D01*
X845Y2100D02*
X890Y2145D01*
X365Y2100D02*
X845D01*
X320Y2145D02*
X365Y2100D01*
X2050Y2145D02*
X2095Y2100D01*
X2382D01*
X2427Y2145D01*
X2630D01*
X2695Y2080D01*
X2995D01*
X3059Y2145D01*
X3185D01*
X3450Y1725D02*
X3740Y2015D01*
X3415Y1725D02*
X3450D01*
X3108Y2948D02*
X3143Y2913D01*
X3317D01*
X3364Y2866D01*
X3442D01*
X3466Y2890D01*
X3800D01*
X3875Y2815D01*
Y2740D02*
Y2815D01*
X3830Y2695D02*
X3875Y2740D01*
X310Y1150D02*
X355Y1105D01*
X715D01*
X760Y1150D01*
X805Y1105D01*
X1185D01*
X1230Y1150D01*
X1275Y1105D01*
X1635D01*
X1680Y1150D01*
X1725Y1105D01*
X2095D01*
X2140Y1150D01*
X2205Y1085D01*
X2515D01*
X2580Y1150D01*
X3357Y2845D02*
X3485D01*
X3312Y2890D02*
X3357Y2845D01*
X3080Y2890D02*
X3312D01*
X3035Y2845D02*
X3080Y2890D01*
X2930Y2845D02*
X3035D01*
X2802D02*
X2930D01*
X2757Y2890D02*
X2802Y2845D01*
X2513Y2890D02*
X2757D01*
X2468Y2845D02*
X2513Y2890D01*
X2350Y2845D02*
X2468D01*
X2222D02*
X2350D01*
X2177Y2890D02*
X2222Y2845D01*
X1938Y2890D02*
X2177D01*
X1893Y2845D02*
X1938Y2890D01*
X1780Y2845D02*
X1893D01*
X1652D02*
X1780D01*
X1607Y2890D02*
X1652Y2845D01*
X1358Y2890D02*
X1607D01*
X1313Y2845D02*
X1358Y2890D01*
X1190Y2845D02*
X1313D01*
X1062D02*
X1190D01*
X1017Y2890D02*
X1062Y2845D01*
X778Y2890D02*
X1017D01*
X733Y2845D02*
X778Y2890D01*
X620Y2845D02*
X733D01*
X2545Y695D02*
X2625Y775D01*
X2965D01*
X3045Y695D01*
X1515D02*
X1595Y775D01*
X1945D01*
X2025Y695D01*
X900Y775D02*
X980Y695D01*
X677Y775D02*
X900D01*
X597Y695D02*
X677Y775D01*
X470Y695D02*
X597D01*
X2025D02*
X2105Y775D01*
X2465D01*
X2545Y695D01*
X980D02*
X1058Y773D01*
X1437D01*
X1515Y695D01*
X3780Y2845D02*
X3830Y2795D01*
X3485Y2845D02*
X3780D01*
X3600Y680D02*
X3745Y825D01*
X3045Y680D02*
Y695D01*
X3745Y825D02*
X3795Y875D01*
Y1175D01*
X3845Y1225D01*
X3940Y340D02*
Y580D01*
Y635D01*
X3895Y680D02*
X3940Y635D01*
X3600Y680D02*
X3895D01*
X3740Y1615D02*
X3785Y1660D01*
X3730Y2395D02*
X3780Y2445D01*
Y2745D01*
X3830Y2795D01*
X3785Y1960D02*
X3840Y2015D01*
X3785Y1660D02*
Y1945D01*
X3785Y1945D01*
Y1960D01*
X3730Y2265D02*
Y2395D01*
X3840Y2015D02*
Y2155D01*
X3315Y1725D02*
Y1750D01*
X3780Y2215D01*
X3730Y2265D02*
X3780Y2215D01*
X3840Y2155D01*
X3740Y1470D02*
Y1615D01*
Y1470D02*
X3845Y1365D01*
Y1225D02*
Y1365D01*
D11*
X3895Y2460D02*
Y2833D01*
X3374Y2918D02*
X3810D01*
X610Y1750D02*
X715Y1855D01*
X955D01*
X1060Y1750D01*
X125Y2450D02*
X320Y2645D01*
X125Y230D02*
Y2450D01*
Y230D02*
X205Y150D01*
X3975D01*
X4030Y205D01*
Y690D01*
X85Y2510D02*
X320Y2745D01*
X85Y195D02*
Y2510D01*
Y195D02*
X165Y115D01*
X4000D01*
X4070Y185D01*
X760Y1350D02*
X953D01*
X968Y1365D01*
X603Y2040D02*
X1204D01*
X255Y2150D02*
X295Y2190D01*
X935D02*
X980Y2145D01*
X255Y2069D02*
Y2150D01*
X295Y2190D02*
X935D01*
X980Y2145D02*
X1190D01*
X3415Y925D02*
X3460Y880D01*
Y790D02*
Y880D01*
X3450Y780D02*
X3460Y790D01*
X2988Y780D02*
X3450D01*
X2818Y950D02*
X2988Y780D01*
X985Y950D02*
X2818D01*
X890Y2845D02*
X1010D01*
X1065Y2790D01*
X2434D01*
X2534Y2690D01*
X2776D01*
X2865Y2600D01*
X2975D01*
X3064Y2690D01*
X3213D01*
X3237Y2666D01*
X3410D01*
X1230Y1550D02*
X1285Y1605D01*
X1762D01*
X1818Y1661D01*
Y1870D01*
X1778Y1910D02*
X1818Y1870D01*
X1693Y2928D02*
Y3048D01*
X1774Y3129D01*
X3786D01*
X3985Y2930D01*
Y1564D02*
Y2930D01*
X3931Y1510D02*
X3985Y1564D01*
X3702Y1350D02*
X3727Y1375D01*
X3440Y1350D02*
X3702D01*
X3415Y1325D02*
X3440Y1350D01*
X1538Y2190D02*
X2133D01*
X2178Y2145D01*
X2350D01*
X2050Y2345D02*
X2200Y2195D01*
X2771D01*
X2865Y2100D01*
X2975D01*
X3069Y2195D01*
X3210D01*
X3335Y2070D01*
X2440Y1250D02*
X2466Y1276D01*
X2494D01*
X2535Y1317D01*
Y1370D01*
X2560Y1395D01*
X2617D01*
X2706Y1484D01*
X2770D01*
X2834Y1420D01*
Y1400D02*
Y1420D01*
X2580Y1350D02*
X2648D01*
X2692Y1394D01*
X2975Y2800D02*
X2997Y2822D01*
X3103D01*
X3120Y2839D01*
X3285Y2714D02*
X3416D01*
X3485Y2645D01*
X2240Y1450D02*
X2440D01*
X2190Y1500D02*
X2240Y1450D01*
X2115Y1500D02*
X2190D01*
X2020Y1595D02*
X2115Y1500D01*
X1970Y1595D02*
X2020D01*
X1838Y1727D02*
X1970Y1595D01*
X1838Y1727D02*
Y1883D01*
X1890Y1935D01*
X1940D01*
X2060Y1815D01*
X2349D01*
X2359Y1805D01*
X2415D01*
X2439Y1829D01*
X2948D01*
X3140Y2021D01*
X3185Y2965D02*
X3838D01*
X3915Y2888D01*
Y2415D02*
Y2888D01*
X3850Y2350D02*
X3915Y2415D01*
X3795Y2350D02*
X3850D01*
X3775Y2370D02*
X3795Y2350D01*
X3775Y2370D02*
Y2403D01*
X3830Y2458D01*
Y2495D01*
X3810Y2918D02*
X3895Y2833D01*
D12*
X1925Y695D02*
D03*
X2945D02*
D03*
X2445D02*
D03*
X1415D02*
D03*
X880D02*
D03*
X370D02*
D03*
X3315Y1725D02*
D03*
X3745Y1225D02*
D03*
X3740Y2015D02*
D03*
X3730Y2795D02*
D03*
D13*
X1925Y595D02*
D03*
Y495D02*
D03*
Y395D02*
D03*
Y295D02*
D03*
X2025Y695D02*
D03*
Y595D02*
D03*
Y495D02*
D03*
Y395D02*
D03*
Y295D02*
D03*
X2945Y595D02*
D03*
Y495D02*
D03*
Y395D02*
D03*
Y295D02*
D03*
X3045Y695D02*
D03*
Y595D02*
D03*
Y495D02*
D03*
Y395D02*
D03*
Y295D02*
D03*
X2445Y595D02*
D03*
Y495D02*
D03*
Y395D02*
D03*
Y295D02*
D03*
X2545Y695D02*
D03*
Y595D02*
D03*
Y495D02*
D03*
Y395D02*
D03*
Y295D02*
D03*
X1415Y595D02*
D03*
Y495D02*
D03*
Y395D02*
D03*
Y295D02*
D03*
X1515Y695D02*
D03*
Y595D02*
D03*
Y495D02*
D03*
Y395D02*
D03*
Y295D02*
D03*
X880Y595D02*
D03*
Y495D02*
D03*
Y395D02*
D03*
Y295D02*
D03*
X980Y695D02*
D03*
Y595D02*
D03*
Y495D02*
D03*
Y395D02*
D03*
Y295D02*
D03*
X370Y595D02*
D03*
Y495D02*
D03*
Y395D02*
D03*
Y295D02*
D03*
X470Y695D02*
D03*
Y595D02*
D03*
Y495D02*
D03*
Y395D02*
D03*
Y295D02*
D03*
X3315Y1625D02*
D03*
Y1525D02*
D03*
Y1425D02*
D03*
Y1325D02*
D03*
Y1225D02*
D03*
Y1125D02*
D03*
Y1025D02*
D03*
Y925D02*
D03*
Y825D02*
D03*
Y725D02*
D03*
Y625D02*
D03*
Y525D02*
D03*
Y425D02*
D03*
Y325D02*
D03*
X3415Y1725D02*
D03*
Y1625D02*
D03*
Y1525D02*
D03*
Y1425D02*
D03*
Y1325D02*
D03*
Y1225D02*
D03*
Y1125D02*
D03*
Y1025D02*
D03*
Y925D02*
D03*
Y825D02*
D03*
Y725D02*
D03*
Y625D02*
D03*
Y525D02*
D03*
Y425D02*
D03*
Y325D02*
D03*
X3740Y580D02*
D03*
X3840D02*
D03*
X3740Y340D02*
D03*
X3840D02*
D03*
X3745Y1125D02*
D03*
Y1025D02*
D03*
Y925D02*
D03*
Y825D02*
D03*
X3845Y1225D02*
D03*
Y1125D02*
D03*
Y1025D02*
D03*
Y925D02*
D03*
Y825D02*
D03*
X3740Y1915D02*
D03*
Y1815D02*
D03*
Y1715D02*
D03*
Y1615D02*
D03*
X3840Y2015D02*
D03*
Y1915D02*
D03*
Y1815D02*
D03*
Y1715D02*
D03*
Y1615D02*
D03*
X3730Y2695D02*
D03*
Y2595D02*
D03*
Y2495D02*
D03*
Y2395D02*
D03*
X3830Y2795D02*
D03*
Y2695D02*
D03*
Y2595D02*
D03*
Y2495D02*
D03*
Y2395D02*
D03*
D14*
X3185Y2845D02*
D03*
X2630D02*
D03*
X2050D02*
D03*
X1480D02*
D03*
X890D02*
D03*
X320D02*
D03*
X2580Y1750D02*
D03*
X2140D02*
D03*
X1680D02*
D03*
X1230D02*
D03*
X760D02*
D03*
X310D02*
D03*
D15*
X3185Y2745D02*
D03*
Y2645D02*
D03*
Y2545D02*
D03*
Y2445D02*
D03*
Y2345D02*
D03*
Y2245D02*
D03*
Y2145D02*
D03*
X3485Y2845D02*
D03*
Y2745D02*
D03*
Y2645D02*
D03*
Y2545D02*
D03*
Y2445D02*
D03*
Y2345D02*
D03*
Y2245D02*
D03*
Y2145D02*
D03*
X2630Y2745D02*
D03*
Y2645D02*
D03*
Y2545D02*
D03*
Y2445D02*
D03*
Y2345D02*
D03*
Y2245D02*
D03*
Y2145D02*
D03*
X2930Y2845D02*
D03*
Y2745D02*
D03*
Y2645D02*
D03*
Y2545D02*
D03*
Y2445D02*
D03*
Y2345D02*
D03*
Y2245D02*
D03*
Y2145D02*
D03*
X2050Y2745D02*
D03*
Y2645D02*
D03*
Y2545D02*
D03*
Y2445D02*
D03*
Y2345D02*
D03*
Y2245D02*
D03*
Y2145D02*
D03*
X2350Y2845D02*
D03*
Y2745D02*
D03*
Y2645D02*
D03*
Y2545D02*
D03*
Y2445D02*
D03*
Y2345D02*
D03*
Y2245D02*
D03*
Y2145D02*
D03*
X1480Y2745D02*
D03*
Y2645D02*
D03*
Y2545D02*
D03*
Y2445D02*
D03*
Y2345D02*
D03*
Y2245D02*
D03*
Y2145D02*
D03*
X1780Y2845D02*
D03*
Y2745D02*
D03*
Y2645D02*
D03*
Y2545D02*
D03*
Y2445D02*
D03*
Y2345D02*
D03*
Y2245D02*
D03*
Y2145D02*
D03*
X890Y2745D02*
D03*
Y2645D02*
D03*
Y2545D02*
D03*
Y2445D02*
D03*
Y2345D02*
D03*
Y2245D02*
D03*
Y2145D02*
D03*
X1190Y2845D02*
D03*
Y2745D02*
D03*
Y2645D02*
D03*
Y2545D02*
D03*
Y2445D02*
D03*
Y2345D02*
D03*
Y2245D02*
D03*
Y2145D02*
D03*
X320Y2745D02*
D03*
Y2645D02*
D03*
Y2545D02*
D03*
Y2445D02*
D03*
Y2345D02*
D03*
Y2245D02*
D03*
Y2145D02*
D03*
X620Y2845D02*
D03*
Y2745D02*
D03*
Y2645D02*
D03*
Y2545D02*
D03*
Y2445D02*
D03*
Y2345D02*
D03*
Y2245D02*
D03*
Y2145D02*
D03*
X2580Y1650D02*
D03*
Y1550D02*
D03*
Y1450D02*
D03*
Y1350D02*
D03*
Y1250D02*
D03*
Y1150D02*
D03*
X2880Y1750D02*
D03*
Y1650D02*
D03*
Y1550D02*
D03*
Y1450D02*
D03*
Y1350D02*
D03*
Y1250D02*
D03*
Y1150D02*
D03*
X2140Y1650D02*
D03*
Y1550D02*
D03*
Y1450D02*
D03*
Y1350D02*
D03*
Y1250D02*
D03*
Y1150D02*
D03*
X2440Y1750D02*
D03*
Y1650D02*
D03*
Y1550D02*
D03*
Y1450D02*
D03*
Y1350D02*
D03*
Y1250D02*
D03*
Y1150D02*
D03*
X1680Y1650D02*
D03*
Y1550D02*
D03*
Y1450D02*
D03*
Y1350D02*
D03*
Y1250D02*
D03*
Y1150D02*
D03*
X1980Y1750D02*
D03*
Y1650D02*
D03*
Y1550D02*
D03*
Y1450D02*
D03*
Y1350D02*
D03*
Y1250D02*
D03*
Y1150D02*
D03*
X1230Y1650D02*
D03*
Y1550D02*
D03*
Y1450D02*
D03*
Y1350D02*
D03*
Y1250D02*
D03*
Y1150D02*
D03*
X1530Y1750D02*
D03*
Y1650D02*
D03*
Y1550D02*
D03*
Y1450D02*
D03*
Y1350D02*
D03*
Y1250D02*
D03*
Y1150D02*
D03*
X760Y1650D02*
D03*
Y1550D02*
D03*
Y1450D02*
D03*
Y1350D02*
D03*
Y1250D02*
D03*
Y1150D02*
D03*
X1060Y1750D02*
D03*
Y1650D02*
D03*
Y1550D02*
D03*
Y1450D02*
D03*
Y1350D02*
D03*
Y1250D02*
D03*
Y1150D02*
D03*
X310Y1650D02*
D03*
Y1550D02*
D03*
Y1450D02*
D03*
Y1350D02*
D03*
Y1250D02*
D03*
Y1150D02*
D03*
X610Y1750D02*
D03*
Y1650D02*
D03*
Y1550D02*
D03*
Y1450D02*
D03*
Y1350D02*
D03*
Y1250D02*
D03*
Y1150D02*
D03*
D16*
X3940Y580D02*
D03*
Y340D02*
D03*
D17*
X1416Y2333D02*
D03*
X3262Y2495D02*
D03*
X3124Y2430D02*
D03*
X3044Y2517D02*
D03*
X3648Y2400D02*
D03*
X3374Y2918D02*
D03*
X3904Y1665D02*
D03*
X1791Y3089D02*
D03*
X2525Y3005D02*
D03*
X3401D02*
D03*
X2752Y1441D02*
D03*
X2995Y2567D02*
D03*
X3530Y2295D02*
D03*
X1915Y1895D02*
D03*
X2454Y2690D02*
D03*
X1615Y2250D02*
D03*
X2018Y1953D02*
D03*
X404Y1505D02*
D03*
X1777Y1450D02*
D03*
X2691Y1231D02*
D03*
X3015Y1621D02*
D03*
X2711Y545D02*
D03*
X3035Y1701D02*
D03*
X892Y1795D02*
D03*
X321Y2057D02*
D03*
X205Y250D02*
D03*
X4030Y690D02*
D03*
X4070Y185D02*
D03*
X968Y1365D02*
D03*
X993Y1670D02*
D03*
X1204Y2040D02*
D03*
X255Y2069D02*
D03*
X985Y950D02*
D03*
X3505Y1240D02*
D03*
X3740Y1311D02*
D03*
X3649Y1075D02*
D03*
X3432Y1970D02*
D03*
X3410Y2666D02*
D03*
X3698Y870D02*
D03*
X1869Y1602D02*
D03*
X1778Y1910D02*
D03*
X1858Y1300D02*
D03*
X1693Y2928D02*
D03*
X3931Y1510D02*
D03*
X3727Y1375D02*
D03*
X1125Y1750D02*
D03*
X3480Y1300D02*
D03*
X2455Y2080D02*
D03*
X2153Y2490D02*
D03*
X2268Y2033D02*
D03*
X1255Y2353D02*
D03*
X1538Y2190D02*
D03*
X3335Y2070D02*
D03*
X2392Y1705D02*
D03*
X2415Y2557D02*
D03*
X3687Y1423D02*
D03*
X2580Y1945D02*
D03*
X3692Y1760D02*
D03*
X3665Y2043D02*
D03*
X2226Y3021D02*
D03*
X1915Y1405D02*
D03*
X1955Y2559D02*
D03*
X2834Y1400D02*
D03*
X2623Y1500D02*
D03*
X2925Y990D02*
D03*
X2646Y495D02*
D03*
X2692Y1394D02*
D03*
X2975Y2800D02*
D03*
X3120Y2839D02*
D03*
X3285Y2714D02*
D03*
X2375Y1846D02*
D03*
X2202Y570D02*
D03*
X3679Y611D02*
D03*
X2692Y378D02*
D03*
X3140Y2021D02*
D03*
X3108Y2948D02*
D03*
X3185Y2965D02*
D03*
M02*
