M48
;Layer_Color=9474304
;FILE_FORMAT=2:3
INCH,LZ
;TYPE=PLATED
T1F00S00C0.028
T2F00S00C0.035
%
T01
X00205Y0025
X0407Y00185
X0403Y0069
X03679Y00611
X03698Y0087
X03649Y01075
X03505Y0124
X0348Y013
X0374Y01311
X03727Y01375
X03687Y01423
X03931Y0151
X03904Y01665
X03692Y0176
X03035Y01701
X03015Y01621
X02834Y014
X02752Y01441
X02692Y01394
X02691Y01231
X02623Y015
X02392Y01705
X01869Y01602
X01915Y01405
X01858Y013
X02202Y0057
X02646Y00495
X02711Y00545
X02692Y00378
X02925Y0099
X01777Y0145
X00968Y01365
X00993Y0167
X01125Y0175
X00892Y01795
X00404Y01505
X00985Y0095
X00255Y02069
X00321Y02057
X01204Y0204
X01255Y02353
X01416Y02333
X01538Y0219
X01615Y0225
X01778Y0191
X01693Y02928
X01791Y03089
X02226Y03021
X02525Y03005
X02454Y0269
X02415Y02557
X02153Y0249
X01955Y02559
X02018Y01953
X01915Y01895
X02268Y02033
X02455Y0208
X0258Y01945
X02375Y01846
X0314Y02021
X03335Y0207
X03262Y02495
X03124Y0243
X03044Y02517
X02995Y02567
X02975Y028
X0312Y02839
X03108Y02948
X03185Y02965
X03374Y02918
X03401Y03005
X0341Y02666
X03285Y02714
X0353Y02295
X03648Y024
X03665Y02043
X03432Y0197
T02
X0374Y0034
X0384
X0394
Y0058
X0384
X0374
X03745Y00825
Y00925
Y01025
Y01125
Y01225
X03845
Y01125
Y01025
Y00925
Y00825
X0384Y01615
X0374
Y01715
X0384
X03415Y01725
X03315
Y01625
Y01525
Y01425
Y01325
Y01225
Y01125
Y01025
Y00925
Y00825
Y00725
Y00625
Y00525
Y00425
Y00325
X03415
Y00425
Y00525
Y00625
Y00725
Y00825
Y00925
Y01025
Y01125
Y01225
Y01325
Y01425
Y01525
Y01625
X0288Y0165
Y0175
Y0155
Y0145
Y0135
Y0125
Y0115
X0258
Y0125
Y0135
Y0145
Y0155
Y0165
Y0175
X0244
Y0165
Y0155
Y0145
Y0135
Y0125
Y0115
X0214
Y0125
Y0135
Y0145
Y0155
Y0165
Y0175
X0198
Y0165
Y0155
Y0145
Y0135
Y0125
Y0115
X02025Y00695
X01925
Y00595
Y00495
Y00395
Y00295
X02025
Y00395
Y00495
Y00595
X02445
Y00695
X02545
Y00595
Y00495
X02445
Y00395
Y00295
X02545
Y00395
X02945
Y00495
Y00595
Y00695
X03045
Y00595
Y00495
Y00395
Y00295
X02945
X01515
X01415
Y00395
Y00495
Y00595
Y00695
X01515
Y00595
Y00495
Y00395
X0098
X0088
Y00495
Y00595
Y00695
X0098
Y00595
Y00495
Y00295
X0088
X0047
X0037
Y00395
Y00495
Y00595
Y00695
X0047
Y00595
Y00495
Y00395
X0061Y0115
Y0125
Y0135
Y0145
Y0155
Y0165
Y0175
X0076
Y0165
Y0155
Y0145
Y0135
Y0125
Y0115
X0106
Y0125
Y0135
Y0145
Y0155
Y0165
Y0175
X0123
Y0165
Y0155
Y0145
Y0135
Y0125
Y0115
X0153
Y0125
Y0135
Y0145
Y0155
Y0165
Y0175
X0168
Y0165
Y0155
Y0145
Y0135
Y0125
Y0115
X0031
Y0125
Y0135
Y0145
Y0155
Y0165
Y0175
X0032Y02145
Y02245
Y02345
Y02445
Y02545
Y02645
Y02745
Y02845
X0062
Y02745
Y02645
Y02545
Y02445
Y02345
Y02245
Y02145
X0089
Y02245
Y02345
Y02445
Y02545
Y02645
Y02745
Y02845
X0119
Y02745
Y02645
Y02545
Y02445
Y02345
Y02245
Y02145
X0148
Y02245
Y02345
Y02445
Y02545
Y02645
Y02745
Y02845
X0178
Y02745
Y02645
Y02545
Y02445
Y02345
Y02245
Y02145
X0205
Y02245
Y02345
Y02445
Y02545
Y02645
Y02745
Y02845
X0235
Y02745
Y02645
Y02545
Y02445
Y02345
Y02245
Y02145
X0263
Y02245
Y02345
Y02445
Y02545
Y02645
Y02745
Y02845
X0293
Y02745
Y02645
Y02545
Y02445
Y02345
Y02245
Y02145
X03185
Y02245
Y02345
Y02445
Y02545
Y02645
Y02745
Y02845
X03485
Y02745
Y02645
Y02545
Y02445
Y02345
Y02245
Y02145
X0374Y02015
Y01915
Y01815
X0384
Y01915
Y02015
X0383Y02395
X0373
Y02495
Y02595
Y02695
Y02795
X0383
Y02695
Y02595
Y02495
M30
