G04 Layer_Color=65535*
%FSLAX23Y23*%
%MOIN*%
G70*
G01*
G75*
%ADD10C,0.010*%
%ADD18C,0.008*%
%ADD19C,0.008*%
D10*
X3161Y3004D02*
Y2944D01*
X3191D01*
X3201Y2954D01*
Y2994D01*
X3191Y3004D01*
X3161D01*
X3261D02*
X3221D01*
Y2944D01*
X3261D01*
X3221Y2974D02*
X3241D01*
X3281Y2944D02*
Y3004D01*
X3301Y2984D01*
X3321Y3004D01*
Y2944D01*
X3341Y3004D02*
Y2954D01*
X3351Y2944D01*
X3371D01*
X3381Y2954D01*
Y3004D01*
X3401D02*
X3441Y2944D01*
Y3004D02*
X3401Y2944D01*
X3461Y2934D02*
X3501D01*
X3521Y2944D02*
X3541D01*
X3531D01*
Y3004D01*
X3521Y2994D01*
X3571Y2934D02*
X3611D01*
X3631Y2944D02*
X3651D01*
X3641D01*
Y3004D01*
X3631Y2994D01*
X2606Y3004D02*
Y2944D01*
X2636D01*
X2646Y2954D01*
Y2994D01*
X2636Y3004D01*
X2606D01*
X2706D02*
X2666D01*
Y2944D01*
X2706D01*
X2666Y2974D02*
X2686D01*
X2726Y2944D02*
Y3004D01*
X2746Y2984D01*
X2766Y3004D01*
Y2944D01*
X2786Y3004D02*
Y2954D01*
X2796Y2944D01*
X2816D01*
X2826Y2954D01*
Y3004D01*
X2846D02*
X2886Y2944D01*
Y3004D02*
X2846Y2944D01*
X2906Y2934D02*
X2946D01*
X2966Y2944D02*
X2986D01*
X2976D01*
Y3004D01*
X2966Y2994D01*
X3016Y2934D02*
X3056D01*
X3116Y2944D02*
X3076D01*
X3116Y2984D01*
Y2994D01*
X3106Y3004D01*
X3086D01*
X3076Y2994D01*
X2026Y3004D02*
Y2944D01*
X2056D01*
X2066Y2954D01*
Y2994D01*
X2056Y3004D01*
X2026D01*
X2126D02*
X2086D01*
Y2944D01*
X2126D01*
X2086Y2974D02*
X2106D01*
X2146Y2944D02*
Y3004D01*
X2166Y2984D01*
X2186Y3004D01*
Y2944D01*
X2206Y3004D02*
Y2954D01*
X2216Y2944D01*
X2236D01*
X2246Y2954D01*
Y3004D01*
X2266D02*
X2306Y2944D01*
Y3004D02*
X2266Y2944D01*
X2326Y2934D02*
X2366D01*
X2426Y2944D02*
X2386D01*
X2426Y2984D01*
Y2994D01*
X2416Y3004D01*
X2396D01*
X2386Y2994D01*
X2446Y2934D02*
X2486D01*
X2506Y2944D02*
X2526D01*
X2516D01*
Y3004D01*
X2506Y2994D01*
X1456Y3004D02*
Y2944D01*
X1486D01*
X1496Y2954D01*
Y2994D01*
X1486Y3004D01*
X1456D01*
X1556D02*
X1516D01*
Y2944D01*
X1556D01*
X1516Y2974D02*
X1536D01*
X1576Y2944D02*
Y3004D01*
X1596Y2984D01*
X1616Y3004D01*
Y2944D01*
X1636Y3004D02*
Y2954D01*
X1646Y2944D01*
X1666D01*
X1676Y2954D01*
Y3004D01*
X1696D02*
X1736Y2944D01*
Y3004D02*
X1696Y2944D01*
X1756Y2934D02*
X1796D01*
X1856Y2944D02*
X1816D01*
X1856Y2984D01*
Y2994D01*
X1846Y3004D01*
X1826D01*
X1816Y2994D01*
X1876Y2934D02*
X1916D01*
X1976Y2944D02*
X1936D01*
X1976Y2984D01*
Y2994D01*
X1966Y3004D01*
X1946D01*
X1936Y2994D01*
X866Y3004D02*
Y2944D01*
X896D01*
X906Y2954D01*
Y2994D01*
X896Y3004D01*
X866D01*
X966D02*
X926D01*
Y2944D01*
X966D01*
X926Y2974D02*
X946D01*
X986Y2944D02*
Y3004D01*
X1006Y2984D01*
X1026Y3004D01*
Y2944D01*
X1046Y3004D02*
Y2954D01*
X1056Y2944D01*
X1076D01*
X1086Y2954D01*
Y3004D01*
X1106D02*
X1146Y2944D01*
Y3004D02*
X1106Y2944D01*
X1166Y2934D02*
X1206D01*
X1226Y2994D02*
X1236Y3004D01*
X1256D01*
X1266Y2994D01*
Y2984D01*
X1256Y2974D01*
X1246D01*
X1256D01*
X1266Y2964D01*
Y2954D01*
X1256Y2944D01*
X1236D01*
X1226Y2954D01*
X1286Y2934D02*
X1326D01*
X1346Y2944D02*
X1366D01*
X1356D01*
Y3004D01*
X1346Y2994D01*
X296Y3004D02*
Y2944D01*
X326D01*
X336Y2954D01*
Y2994D01*
X326Y3004D01*
X296D01*
X396D02*
X356D01*
Y2944D01*
X396D01*
X356Y2974D02*
X376D01*
X416Y2944D02*
Y3004D01*
X436Y2984D01*
X456Y3004D01*
Y2944D01*
X476Y3004D02*
Y2954D01*
X486Y2944D01*
X506D01*
X516Y2954D01*
Y3004D01*
X536D02*
X576Y2944D01*
Y3004D02*
X536Y2944D01*
X596Y2934D02*
X636D01*
X656Y2994D02*
X666Y3004D01*
X686D01*
X696Y2994D01*
Y2984D01*
X686Y2974D01*
X676D01*
X686D01*
X696Y2964D01*
Y2954D01*
X686Y2944D01*
X666D01*
X656Y2954D01*
X716Y2934D02*
X756D01*
X816Y2944D02*
X776D01*
X816Y2984D01*
Y2994D01*
X806Y3004D01*
X786D01*
X776Y2994D01*
X3220Y1030D02*
X3160D01*
X3180Y1050D01*
X3160Y1070D01*
X3220D01*
X3180Y1100D02*
Y1120D01*
X3190Y1130D01*
X3220D01*
Y1100D01*
X3210Y1090D01*
X3200Y1100D01*
Y1130D01*
X3220Y1150D02*
Y1170D01*
Y1160D01*
X3180D01*
Y1150D01*
X3220Y1200D02*
X3180D01*
Y1230D01*
X3190Y1240D01*
X3220D01*
X3170Y1360D02*
X3160Y1350D01*
Y1330D01*
X3170Y1320D01*
X3210D01*
X3220Y1330D01*
Y1350D01*
X3210Y1360D01*
X3220Y1390D02*
Y1410D01*
X3210Y1420D01*
X3190D01*
X3180Y1410D01*
Y1390D01*
X3190Y1380D01*
X3210D01*
X3220Y1390D01*
Y1440D02*
X3180D01*
Y1470D01*
X3190Y1480D01*
X3220D01*
Y1500D02*
X3180D01*
Y1530D01*
X3190Y1540D01*
X3220D01*
Y1590D02*
Y1570D01*
X3210Y1560D01*
X3190D01*
X3180Y1570D01*
Y1590D01*
X3190Y1600D01*
X3200D01*
Y1560D01*
X3180Y1660D02*
Y1630D01*
X3190Y1620D01*
X3210D01*
X3220Y1630D01*
Y1660D01*
X3170Y1690D02*
X3180D01*
Y1680D01*
Y1700D01*
Y1690D01*
X3210D01*
X3220Y1700D01*
Y1740D02*
Y1760D01*
X3210Y1770D01*
X3190D01*
X3180Y1760D01*
Y1740D01*
X3190Y1730D01*
X3210D01*
X3220Y1740D01*
X3180Y1790D02*
X3220D01*
X3200D01*
X3190Y1800D01*
X3180Y1810D01*
Y1820D01*
X2556Y1882D02*
Y1942D01*
X2596Y1882D01*
Y1942D01*
X2646D02*
X2626D01*
X2616Y1932D01*
Y1892D01*
X2626Y1882D01*
X2646D01*
X2656Y1892D01*
Y1932D01*
X2646Y1942D01*
X2676Y1882D02*
Y1942D01*
X2706D01*
X2716Y1932D01*
Y1912D01*
X2706Y1902D01*
X2676D01*
X2696D02*
X2716Y1882D01*
X2736Y1872D02*
X2776D01*
X2796Y1882D02*
X2816D01*
X2806D01*
Y1942D01*
X2796Y1932D01*
X2846Y1872D02*
X2886D01*
X2906Y1882D02*
X2926D01*
X2916D01*
Y1942D01*
X2906Y1932D01*
X2116Y1882D02*
Y1942D01*
X2156Y1882D01*
Y1942D01*
X2206D02*
X2186D01*
X2176Y1932D01*
Y1892D01*
X2186Y1882D01*
X2206D01*
X2216Y1892D01*
Y1932D01*
X2206Y1942D01*
X2236Y1882D02*
Y1942D01*
X2266D01*
X2276Y1932D01*
Y1912D01*
X2266Y1902D01*
X2236D01*
X2256D02*
X2276Y1882D01*
X2296Y1872D02*
X2336D01*
X2356Y1882D02*
X2376D01*
X2366D01*
Y1942D01*
X2356Y1932D01*
X2406Y1872D02*
X2446D01*
X2506Y1882D02*
X2466D01*
X2506Y1922D01*
Y1932D01*
X2496Y1942D01*
X2476D01*
X2466Y1932D01*
X1656Y1882D02*
Y1942D01*
X1696Y1882D01*
Y1942D01*
X1746D02*
X1726D01*
X1716Y1932D01*
Y1892D01*
X1726Y1882D01*
X1746D01*
X1756Y1892D01*
Y1932D01*
X1746Y1942D01*
X1776Y1882D02*
Y1942D01*
X1806D01*
X1816Y1932D01*
Y1912D01*
X1806Y1902D01*
X1776D01*
X1796D02*
X1816Y1882D01*
X1836Y1872D02*
X1876D01*
X1936Y1882D02*
X1896D01*
X1936Y1922D01*
Y1932D01*
X1926Y1942D01*
X1906D01*
X1896Y1932D01*
X1956Y1872D02*
X1996D01*
X2016Y1882D02*
X2036D01*
X2026D01*
Y1942D01*
X2016Y1932D01*
X1206Y1882D02*
Y1942D01*
X1246Y1882D01*
Y1942D01*
X1296D02*
X1276D01*
X1266Y1932D01*
Y1892D01*
X1276Y1882D01*
X1296D01*
X1306Y1892D01*
Y1932D01*
X1296Y1942D01*
X1326Y1882D02*
Y1942D01*
X1356D01*
X1366Y1932D01*
Y1912D01*
X1356Y1902D01*
X1326D01*
X1346D02*
X1366Y1882D01*
X1386Y1872D02*
X1426D01*
X1486Y1882D02*
X1446D01*
X1486Y1922D01*
Y1932D01*
X1476Y1942D01*
X1456D01*
X1446Y1932D01*
X1506Y1872D02*
X1546D01*
X1606Y1882D02*
X1566D01*
X1606Y1922D01*
Y1932D01*
X1596Y1942D01*
X1576D01*
X1566Y1932D01*
X736Y1882D02*
Y1942D01*
X776Y1882D01*
Y1942D01*
X826D02*
X806D01*
X796Y1932D01*
Y1892D01*
X806Y1882D01*
X826D01*
X836Y1892D01*
Y1932D01*
X826Y1942D01*
X856Y1882D02*
Y1942D01*
X886D01*
X896Y1932D01*
Y1912D01*
X886Y1902D01*
X856D01*
X876D02*
X896Y1882D01*
X916Y1872D02*
X956D01*
X976Y1932D02*
X986Y1942D01*
X1006D01*
X1016Y1932D01*
Y1922D01*
X1006Y1912D01*
X996D01*
X1006D01*
X1016Y1902D01*
Y1892D01*
X1006Y1882D01*
X986D01*
X976Y1892D01*
X1036Y1872D02*
X1076D01*
X1096Y1882D02*
X1116D01*
X1106D01*
Y1942D01*
X1096Y1932D01*
X286Y1882D02*
Y1942D01*
X326Y1882D01*
Y1942D01*
X376D02*
X356D01*
X346Y1932D01*
Y1892D01*
X356Y1882D01*
X376D01*
X386Y1892D01*
Y1932D01*
X376Y1942D01*
X406Y1882D02*
Y1942D01*
X436D01*
X446Y1932D01*
Y1912D01*
X436Y1902D01*
X406D01*
X426D02*
X446Y1882D01*
X466Y1872D02*
X506D01*
X526Y1932D02*
X536Y1942D01*
X556D01*
X566Y1932D01*
Y1922D01*
X556Y1912D01*
X546D01*
X556D01*
X566Y1902D01*
Y1892D01*
X556Y1882D01*
X536D01*
X526Y1892D01*
X586Y1872D02*
X626D01*
X686Y1882D02*
X646D01*
X686Y1922D01*
Y1932D01*
X676Y1942D01*
X656D01*
X646Y1932D01*
X3710Y255D02*
X3700Y265D01*
X3680D01*
X3670Y255D01*
Y245D01*
X3680Y235D01*
X3700D01*
X3710Y225D01*
Y215D01*
X3700Y205D01*
X3680D01*
X3670Y215D01*
X3730Y205D02*
Y265D01*
X3760D01*
X3770Y255D01*
Y235D01*
X3760Y225D01*
X3730D01*
X3790Y255D02*
X3800Y265D01*
X3820D01*
X3830Y255D01*
Y245D01*
X3820Y235D01*
X3810D01*
X3820D01*
X3830Y225D01*
Y215D01*
X3820Y205D01*
X3800D01*
X3790Y215D01*
X3850Y265D02*
X3890D01*
X3870D01*
Y205D01*
X3910Y195D02*
X3950D01*
X3970Y205D02*
X3990D01*
X3980D01*
Y265D01*
X3970Y255D01*
X3685Y490D02*
X3675Y500D01*
X3655D01*
X3645Y490D01*
Y480D01*
X3655Y470D01*
X3675D01*
X3685Y460D01*
Y450D01*
X3675Y440D01*
X3655D01*
X3645Y450D01*
X3705Y440D02*
Y500D01*
X3735D01*
X3745Y490D01*
Y470D01*
X3735Y460D01*
X3705D01*
X3765Y490D02*
X3775Y500D01*
X3795D01*
X3805Y490D01*
Y480D01*
X3795Y470D01*
X3785D01*
X3795D01*
X3805Y460D01*
Y450D01*
X3795Y440D01*
X3775D01*
X3765Y450D01*
X3825Y500D02*
X3865D01*
X3845D01*
Y440D01*
X3885Y430D02*
X3925D01*
X3985Y440D02*
X3945D01*
X3985Y480D01*
Y490D01*
X3975Y500D01*
X3955D01*
X3945Y490D01*
X3930Y2380D02*
X3920Y2370D01*
Y2350D01*
X3930Y2340D01*
X3940D01*
X3950Y2350D01*
Y2370D01*
X3960Y2380D01*
X3970D01*
X3980Y2370D01*
Y2350D01*
X3970Y2340D01*
X3980Y2400D02*
X3920D01*
Y2430D01*
X3930Y2440D01*
X3950D01*
X3960Y2430D01*
Y2400D01*
X3930Y2460D02*
X3920Y2470D01*
Y2490D01*
X3930Y2500D01*
X3940D01*
X3950Y2490D01*
X3960Y2500D01*
X3970D01*
X3980Y2490D01*
Y2470D01*
X3970Y2460D01*
X3960D01*
X3950Y2470D01*
X3940Y2460D01*
X3930D01*
X3950Y2470D02*
Y2490D01*
X3920Y2520D02*
Y2560D01*
Y2540D01*
X3980D01*
X3990Y2580D02*
Y2620D01*
X3930Y2680D02*
X3920Y2670D01*
Y2650D01*
X3930Y2640D01*
X3970D01*
X3980Y2650D01*
Y2670D01*
X3970Y2680D01*
X3980Y2710D02*
Y2730D01*
X3970Y2740D01*
X3950D01*
X3940Y2730D01*
Y2710D01*
X3950Y2700D01*
X3970D01*
X3980Y2710D01*
Y2760D02*
X3940D01*
Y2770D01*
X3950Y2780D01*
X3980D01*
X3950D01*
X3940Y2790D01*
X3950Y2800D01*
X3980D01*
X3920Y2820D02*
X3980D01*
Y2850D01*
X3970Y2860D01*
X3960D01*
X3950D01*
X3940Y2850D01*
Y2820D01*
X3980Y2890D02*
Y2910D01*
X3970Y2920D01*
X3950D01*
X3940Y2910D01*
Y2890D01*
X3950Y2880D01*
X3970D01*
X3980Y2890D01*
X3990Y2940D02*
Y2980D01*
X3980Y3000D02*
Y3020D01*
Y3010D01*
X3920D01*
X3930Y3000D01*
Y1595D02*
X3920Y1585D01*
Y1565D01*
X3930Y1555D01*
X3940D01*
X3950Y1565D01*
Y1585D01*
X3960Y1595D01*
X3970D01*
X3980Y1585D01*
Y1565D01*
X3970Y1555D01*
X3980Y1615D02*
X3920D01*
Y1645D01*
X3930Y1655D01*
X3950D01*
X3960Y1645D01*
Y1615D01*
X3930Y1675D02*
X3920Y1685D01*
Y1705D01*
X3930Y1715D01*
X3940D01*
X3950Y1705D01*
X3960Y1715D01*
X3970D01*
X3980Y1705D01*
Y1685D01*
X3970Y1675D01*
X3960D01*
X3950Y1685D01*
X3940Y1675D01*
X3930D01*
X3950Y1685D02*
Y1705D01*
X3920Y1735D02*
Y1775D01*
Y1755D01*
X3980D01*
X3990Y1795D02*
Y1835D01*
X3930Y1895D02*
X3920Y1885D01*
Y1865D01*
X3930Y1855D01*
X3970D01*
X3980Y1865D01*
Y1885D01*
X3970Y1895D01*
X3980Y1925D02*
Y1945D01*
X3970Y1955D01*
X3950D01*
X3940Y1945D01*
Y1925D01*
X3950Y1915D01*
X3970D01*
X3980Y1925D01*
Y1975D02*
X3940D01*
Y1985D01*
X3950Y1995D01*
X3980D01*
X3950D01*
X3940Y2005D01*
X3950Y2015D01*
X3980D01*
X3920Y2035D02*
X3980D01*
Y2065D01*
X3970Y2075D01*
X3960D01*
X3950D01*
X3940Y2065D01*
Y2035D01*
X3980Y2105D02*
Y2125D01*
X3970Y2135D01*
X3950D01*
X3940Y2125D01*
Y2105D01*
X3950Y2095D01*
X3970D01*
X3980Y2105D01*
X3990Y2155D02*
Y2195D01*
X3980Y2255D02*
Y2215D01*
X3940Y2255D01*
X3930D01*
X3920Y2245D01*
Y2225D01*
X3930Y2215D01*
Y810D02*
X3920Y800D01*
Y780D01*
X3930Y770D01*
X3940D01*
X3950Y780D01*
Y800D01*
X3960Y810D01*
X3970D01*
X3980Y800D01*
Y780D01*
X3970Y770D01*
X3980Y830D02*
X3920D01*
Y860D01*
X3930Y870D01*
X3950D01*
X3960Y860D01*
Y830D01*
X3930Y890D02*
X3920Y900D01*
Y920D01*
X3930Y930D01*
X3940D01*
X3950Y920D01*
X3960Y930D01*
X3970D01*
X3980Y920D01*
Y900D01*
X3970Y890D01*
X3960D01*
X3950Y900D01*
X3940Y890D01*
X3930D01*
X3950Y900D02*
Y920D01*
X3920Y950D02*
Y990D01*
Y970D01*
X3980D01*
X3990Y1010D02*
Y1050D01*
X3930Y1110D02*
X3920Y1100D01*
Y1080D01*
X3930Y1070D01*
X3970D01*
X3980Y1080D01*
Y1100D01*
X3970Y1110D01*
X3980Y1140D02*
Y1160D01*
X3970Y1170D01*
X3950D01*
X3940Y1160D01*
Y1140D01*
X3950Y1130D01*
X3970D01*
X3980Y1140D01*
Y1190D02*
X3940D01*
Y1200D01*
X3950Y1210D01*
X3980D01*
X3950D01*
X3940Y1220D01*
X3950Y1230D01*
X3980D01*
X3920Y1250D02*
X3980D01*
Y1280D01*
X3970Y1290D01*
X3960D01*
X3950D01*
X3940Y1280D01*
Y1250D01*
X3980Y1320D02*
Y1340D01*
X3970Y1350D01*
X3950D01*
X3940Y1340D01*
Y1320D01*
X3950Y1310D01*
X3970D01*
X3980Y1320D01*
X3990Y1370D02*
Y1410D01*
X3930Y1430D02*
X3920Y1440D01*
Y1460D01*
X3930Y1470D01*
X3940D01*
X3950Y1460D01*
Y1450D01*
Y1460D01*
X3960Y1470D01*
X3970D01*
X3980Y1460D01*
Y1440D01*
X3970Y1430D01*
X2941Y893D02*
X2931Y903D01*
X2911D01*
X2901Y893D01*
Y883D01*
X2911Y873D01*
X2931D01*
X2941Y863D01*
Y853D01*
X2931Y843D01*
X2911D01*
X2901Y853D01*
X2961Y843D02*
Y903D01*
X2991D01*
X3001Y893D01*
Y873D01*
X2991Y863D01*
X2961D01*
X3021Y903D02*
Y843D01*
X3051D01*
X3061Y853D01*
Y893D01*
X3051Y903D01*
X3021D01*
X3081D02*
X3121D01*
X3101D01*
Y843D01*
X3141Y833D02*
X3181D01*
X3201Y843D02*
X3221D01*
X3211D01*
Y903D01*
X3201Y893D01*
X3251Y833D02*
X3291D01*
X3311Y843D02*
X3331D01*
X3321D01*
Y903D01*
X3311Y893D01*
X2441D02*
X2431Y903D01*
X2411D01*
X2401Y893D01*
Y883D01*
X2411Y873D01*
X2431D01*
X2441Y863D01*
Y853D01*
X2431Y843D01*
X2411D01*
X2401Y853D01*
X2461Y843D02*
Y903D01*
X2491D01*
X2501Y893D01*
Y873D01*
X2491Y863D01*
X2461D01*
X2521Y903D02*
Y843D01*
X2551D01*
X2561Y853D01*
Y893D01*
X2551Y903D01*
X2521D01*
X2581D02*
X2621D01*
X2601D01*
Y843D01*
X2641Y833D02*
X2681D01*
X2701Y843D02*
X2721D01*
X2711D01*
Y903D01*
X2701Y893D01*
X2751Y833D02*
X2791D01*
X2851Y843D02*
X2811D01*
X2851Y883D01*
Y893D01*
X2841Y903D01*
X2821D01*
X2811Y893D01*
X1921D02*
X1911Y903D01*
X1891D01*
X1881Y893D01*
Y883D01*
X1891Y873D01*
X1911D01*
X1921Y863D01*
Y853D01*
X1911Y843D01*
X1891D01*
X1881Y853D01*
X1941Y843D02*
Y903D01*
X1971D01*
X1981Y893D01*
Y873D01*
X1971Y863D01*
X1941D01*
X2001Y903D02*
Y843D01*
X2031D01*
X2041Y853D01*
Y893D01*
X2031Y903D01*
X2001D01*
X2061D02*
X2101D01*
X2081D01*
Y843D01*
X2121Y833D02*
X2161D01*
X2221Y843D02*
X2181D01*
X2221Y883D01*
Y893D01*
X2211Y903D01*
X2191D01*
X2181Y893D01*
X2241Y833D02*
X2281D01*
X2301Y843D02*
X2321D01*
X2311D01*
Y903D01*
X2301Y893D01*
X1411D02*
X1401Y903D01*
X1381D01*
X1371Y893D01*
Y883D01*
X1381Y873D01*
X1401D01*
X1411Y863D01*
Y853D01*
X1401Y843D01*
X1381D01*
X1371Y853D01*
X1431Y843D02*
Y903D01*
X1461D01*
X1471Y893D01*
Y873D01*
X1461Y863D01*
X1431D01*
X1491Y903D02*
Y843D01*
X1521D01*
X1531Y853D01*
Y893D01*
X1521Y903D01*
X1491D01*
X1551D02*
X1591D01*
X1571D01*
Y843D01*
X1611Y833D02*
X1651D01*
X1711Y843D02*
X1671D01*
X1711Y883D01*
Y893D01*
X1701Y903D01*
X1681D01*
X1671Y893D01*
X1731Y833D02*
X1771D01*
X1831Y843D02*
X1791D01*
X1831Y883D01*
Y893D01*
X1821Y903D01*
X1801D01*
X1791Y893D01*
X876D02*
X866Y903D01*
X846D01*
X836Y893D01*
Y883D01*
X846Y873D01*
X866D01*
X876Y863D01*
Y853D01*
X866Y843D01*
X846D01*
X836Y853D01*
X896Y843D02*
Y903D01*
X926D01*
X936Y893D01*
Y873D01*
X926Y863D01*
X896D01*
X956Y903D02*
Y843D01*
X986D01*
X996Y853D01*
Y893D01*
X986Y903D01*
X956D01*
X1016D02*
X1056D01*
X1036D01*
Y843D01*
X1076Y833D02*
X1116D01*
X1136Y893D02*
X1146Y903D01*
X1166D01*
X1176Y893D01*
Y883D01*
X1166Y873D01*
X1156D01*
X1166D01*
X1176Y863D01*
Y853D01*
X1166Y843D01*
X1146D01*
X1136Y853D01*
X1196Y833D02*
X1236D01*
X1256Y843D02*
X1276D01*
X1266D01*
Y903D01*
X1256Y893D01*
X366D02*
X356Y903D01*
X336D01*
X326Y893D01*
Y883D01*
X336Y873D01*
X356D01*
X366Y863D01*
Y853D01*
X356Y843D01*
X336D01*
X326Y853D01*
X386Y843D02*
Y903D01*
X416D01*
X426Y893D01*
Y873D01*
X416Y863D01*
X386D01*
X446Y903D02*
Y843D01*
X476D01*
X486Y853D01*
Y893D01*
X476Y903D01*
X446D01*
X506D02*
X546D01*
X526D01*
Y843D01*
X566Y833D02*
X606D01*
X626Y893D02*
X636Y903D01*
X656D01*
X666Y893D01*
Y883D01*
X656Y873D01*
X646D01*
X656D01*
X666Y863D01*
Y853D01*
X656Y843D01*
X636D01*
X626Y853D01*
X686Y833D02*
X726D01*
X786Y843D02*
X746D01*
X786Y883D01*
Y893D01*
X776Y903D01*
X756D01*
X746Y893D01*
X35Y3195D02*
Y3135D01*
X65D01*
X75Y3145D01*
Y3185D01*
X65Y3195D01*
X35D01*
X125Y3135D02*
X105D01*
X95Y3145D01*
Y3165D01*
X105Y3175D01*
X125D01*
X135Y3165D01*
Y3155D01*
X95D01*
X155Y3135D02*
X185D01*
X195Y3145D01*
X185Y3155D01*
X165D01*
X155Y3165D01*
X165Y3175D01*
X195D01*
X215Y3135D02*
X235D01*
X225D01*
Y3175D01*
X215D01*
X285Y3115D02*
X295D01*
X305Y3125D01*
Y3175D01*
X275D01*
X265Y3165D01*
Y3145D01*
X275Y3135D01*
X305D01*
X325D02*
Y3175D01*
X355D01*
X365Y3165D01*
Y3135D01*
X415D02*
X395D01*
X385Y3145D01*
Y3165D01*
X395Y3175D01*
X415D01*
X425Y3165D01*
Y3155D01*
X385D01*
X485Y3195D02*
Y3135D01*
X455D01*
X445Y3145D01*
Y3165D01*
X455Y3175D01*
X485D01*
X565Y3195D02*
Y3135D01*
X595D01*
X605Y3145D01*
Y3155D01*
Y3165D01*
X595Y3175D01*
X565D01*
X625D02*
Y3145D01*
X635Y3135D01*
X665D01*
Y3125D01*
X655Y3115D01*
X645D01*
X665Y3135D02*
Y3175D01*
X685D02*
X695D01*
Y3165D01*
X685D01*
Y3175D01*
Y3145D02*
X695D01*
Y3135D01*
X685D01*
Y3145D01*
X835Y3195D02*
X795D01*
Y3135D01*
X835D01*
X795Y3165D02*
X815D01*
X895Y3195D02*
Y3135D01*
X865D01*
X855Y3145D01*
Y3165D01*
X865Y3175D01*
X895D01*
X915Y3135D02*
X935D01*
X925D01*
Y3175D01*
X915D01*
X965Y3135D02*
Y3175D01*
X995D01*
X1005Y3165D01*
Y3135D01*
X1035Y3175D02*
X1055D01*
X1065Y3165D01*
Y3135D01*
X1035D01*
X1025Y3145D01*
X1035Y3155D01*
X1065D01*
X1085Y3135D02*
Y3175D01*
X1095D01*
X1105Y3165D01*
Y3135D01*
Y3165D01*
X1115Y3175D01*
X1125Y3165D01*
Y3135D01*
X1205Y3195D02*
X1245D01*
X1225D01*
Y3135D01*
X1295D02*
X1275D01*
X1265Y3145D01*
Y3165D01*
X1275Y3175D01*
X1295D01*
X1305Y3165D01*
Y3155D01*
X1265D01*
X1335Y3185D02*
Y3175D01*
X1325D01*
X1345D01*
X1335D01*
Y3145D01*
X1345Y3135D01*
X1385Y3185D02*
Y3175D01*
X1375D01*
X1395D01*
X1385D01*
Y3145D01*
X1395Y3135D01*
X1455D02*
X1435D01*
X1425Y3145D01*
Y3165D01*
X1435Y3175D01*
X1455D01*
X1465Y3165D01*
Y3155D01*
X1425D01*
X1485Y3175D02*
X1505Y3135D01*
X1525Y3175D01*
X1545Y3135D02*
X1565D01*
X1555D01*
Y3175D01*
X1545D01*
D18*
X3310Y2901D02*
G03*
X3360Y2901I25J0D01*
G01*
X2755D02*
G03*
X2805Y2901I25J0D01*
G01*
X2175D02*
G03*
X2225Y2901I25J0D01*
G01*
X1605D02*
G03*
X1655Y2901I25J0D01*
G01*
X1015D02*
G03*
X1065Y2901I25J0D01*
G01*
X445D02*
G03*
X495Y2901I25J0D01*
G01*
X2705Y1838D02*
G03*
X2755Y1838I25J0D01*
G01*
X2265D02*
G03*
X2315Y1838I25J0D01*
G01*
X1805D02*
G03*
X1855Y1838I25J0D01*
G01*
X1355D02*
G03*
X1405Y1838I25J0D01*
G01*
X885D02*
G03*
X935Y1838I25J0D01*
G01*
X435D02*
G03*
X485Y1838I25J0D01*
G01*
X2075Y245D02*
Y745D01*
X1875Y245D02*
X2075D01*
X1875D02*
Y745D01*
X2075D01*
X3231Y2901D02*
X3310D01*
X3360D02*
X3439D01*
X3231Y2089D02*
X3439D01*
X3231D02*
Y2901D01*
X3439Y2089D02*
Y2901D01*
X2676D02*
X2755D01*
X2805D02*
X2884D01*
X2676Y2089D02*
X2884D01*
X2676D02*
Y2901D01*
X2884Y2089D02*
Y2901D01*
X2096D02*
X2175D01*
X2225D02*
X2304D01*
X2096Y2089D02*
X2304D01*
X2096D02*
Y2901D01*
X2304Y2089D02*
Y2901D01*
X1526D02*
X1605D01*
X1655D02*
X1734D01*
X1526Y2089D02*
X1734D01*
X1526D02*
Y2901D01*
X1734Y2089D02*
Y2901D01*
X936D02*
X1015D01*
X1065D02*
X1144D01*
X936Y2089D02*
X1144D01*
X936D02*
Y2901D01*
X1144Y2089D02*
Y2901D01*
X366D02*
X445D01*
X495D02*
X574D01*
X366Y2089D02*
X574D01*
X366D02*
Y2901D01*
X574Y2089D02*
Y2901D01*
X2626Y1838D02*
X2705D01*
X2755D02*
X2834D01*
X2626Y1062D02*
X2834D01*
X2626D02*
Y1838D01*
X2834Y1062D02*
Y1838D01*
X2186D02*
X2265D01*
X2315D02*
X2394D01*
X2186Y1062D02*
X2394D01*
X2186D02*
Y1838D01*
X2394Y1062D02*
Y1838D01*
X1726D02*
X1805D01*
X1855D02*
X1934D01*
X1726Y1062D02*
X1934D01*
X1726D02*
Y1838D01*
X1934Y1062D02*
Y1838D01*
X1276D02*
X1355D01*
X1405D02*
X1484D01*
X1276Y1062D02*
X1484D01*
X1276D02*
Y1838D01*
X1484Y1062D02*
Y1838D01*
X806D02*
X885D01*
X935D02*
X1014D01*
X806Y1062D02*
X1014D01*
X806D02*
Y1838D01*
X1014Y1062D02*
Y1838D01*
X356D02*
X435D01*
X485D02*
X564D01*
X356Y1062D02*
X564D01*
X356D02*
Y1838D01*
X564Y1062D02*
Y1838D01*
X3095Y245D02*
Y745D01*
X2895Y245D02*
X3095D01*
X2895D02*
Y745D01*
X3095D01*
X2595Y245D02*
Y745D01*
X2395Y245D02*
X2595D01*
X2395D02*
Y745D01*
X2595D01*
X1565Y245D02*
Y745D01*
X1365Y245D02*
X1565D01*
X1365D02*
Y745D01*
X1565D01*
X1030Y245D02*
Y745D01*
X830Y245D02*
X1030D01*
X830D02*
Y745D01*
X1030D01*
X520Y245D02*
Y745D01*
X320Y245D02*
X520D01*
X320D02*
Y745D01*
X520D01*
X3265Y1775D02*
X3465D01*
Y275D02*
Y1775D01*
X3265Y275D02*
Y1775D01*
Y275D02*
X3465D01*
X3990Y530D02*
Y630D01*
X3690Y530D02*
X3990D01*
X3690D02*
Y630D01*
X3990D01*
Y290D02*
Y390D01*
X3690Y290D02*
X3990D01*
X3690D02*
Y390D01*
X3990D01*
X3895Y775D02*
Y1275D01*
X3695Y775D02*
X3895D01*
X3695D02*
Y1275D01*
X3895D01*
X3890Y1565D02*
Y2065D01*
X3690Y1565D02*
X3890D01*
X3690D02*
Y2065D01*
X3890D01*
X3880Y2345D02*
Y2845D01*
X3680Y2345D02*
X3880D01*
X3680D02*
Y2845D01*
X3880D01*
D19*
X1905Y795D02*
Y778D01*
Y787D01*
X1955D01*
X1947Y795D01*
X1955Y202D02*
Y235D01*
X1930D01*
X1938Y218D01*
Y210D01*
X1930Y202D01*
X1913D01*
X1905Y210D01*
Y227D01*
X1913Y235D01*
X2005D02*
Y218D01*
Y227D01*
X2055D01*
X2047Y235D01*
Y193D02*
X2055Y185D01*
Y168D01*
X2047Y160D01*
X2013D01*
X2005Y168D01*
Y185D01*
X2013Y193D01*
X2047D01*
X2055Y762D02*
X2047Y778D01*
X2030Y795D01*
X2013D01*
X2005Y787D01*
Y770D01*
X2013Y762D01*
X2022D01*
X2030Y770D01*
Y795D01*
X2925D02*
Y778D01*
Y787D01*
X2975D01*
X2967Y795D01*
X2975Y202D02*
Y235D01*
X2950D01*
X2958Y218D01*
Y210D01*
X2950Y202D01*
X2933D01*
X2925Y210D01*
Y227D01*
X2933Y235D01*
X3025D02*
Y218D01*
Y227D01*
X3075D01*
X3067Y235D01*
Y193D02*
X3075Y185D01*
Y168D01*
X3067Y160D01*
X3033D01*
X3025Y168D01*
Y185D01*
X3033Y193D01*
X3067D01*
X3075Y762D02*
X3067Y778D01*
X3050Y795D01*
X3033D01*
X3025Y787D01*
Y770D01*
X3033Y762D01*
X3042D01*
X3050Y770D01*
Y795D01*
X2425D02*
Y778D01*
Y787D01*
X2475D01*
X2467Y795D01*
X2475Y202D02*
Y235D01*
X2450D01*
X2458Y218D01*
Y210D01*
X2450Y202D01*
X2433D01*
X2425Y210D01*
Y227D01*
X2433Y235D01*
X2525D02*
Y218D01*
Y227D01*
X2575D01*
X2567Y235D01*
Y193D02*
X2575Y185D01*
Y168D01*
X2567Y160D01*
X2533D01*
X2525Y168D01*
Y185D01*
X2533Y193D01*
X2567D01*
X2575Y762D02*
X2567Y778D01*
X2550Y795D01*
X2533D01*
X2525Y787D01*
Y770D01*
X2533Y762D01*
X2542D01*
X2550Y770D01*
Y795D01*
X1395D02*
Y778D01*
Y787D01*
X1445D01*
X1437Y795D01*
X1445Y202D02*
Y235D01*
X1420D01*
X1428Y218D01*
Y210D01*
X1420Y202D01*
X1403D01*
X1395Y210D01*
Y227D01*
X1403Y235D01*
X1495D02*
Y218D01*
Y227D01*
X1545D01*
X1537Y235D01*
Y193D02*
X1545Y185D01*
Y168D01*
X1537Y160D01*
X1503D01*
X1495Y168D01*
Y185D01*
X1503Y193D01*
X1537D01*
X1545Y762D02*
X1537Y778D01*
X1520Y795D01*
X1503D01*
X1495Y787D01*
Y770D01*
X1503Y762D01*
X1512D01*
X1520Y770D01*
Y795D01*
X860D02*
Y778D01*
Y787D01*
X910D01*
X902Y795D01*
X910Y202D02*
Y235D01*
X885D01*
X893Y218D01*
Y210D01*
X885Y202D01*
X868D01*
X860Y210D01*
Y227D01*
X868Y235D01*
X960D02*
Y218D01*
Y227D01*
X1010D01*
X1002Y235D01*
Y193D02*
X1010Y185D01*
Y168D01*
X1002Y160D01*
X968D01*
X960Y168D01*
Y185D01*
X968Y193D01*
X1002D01*
X1010Y762D02*
X1002Y778D01*
X985Y795D01*
X968D01*
X960Y787D01*
Y770D01*
X968Y762D01*
X977D01*
X985Y770D01*
Y795D01*
X350D02*
Y778D01*
Y787D01*
X400D01*
X392Y795D01*
X400Y202D02*
Y235D01*
X375D01*
X383Y218D01*
Y210D01*
X375Y202D01*
X358D01*
X350Y210D01*
Y227D01*
X358Y235D01*
X450D02*
Y218D01*
Y227D01*
X500D01*
X492Y235D01*
Y193D02*
X500Y185D01*
Y168D01*
X492Y160D01*
X458D01*
X450Y168D01*
Y185D01*
X458Y193D01*
X492D01*
X500Y762D02*
X492Y778D01*
X475Y795D01*
X458D01*
X450Y787D01*
Y770D01*
X458Y762D01*
X467D01*
X475Y770D01*
Y795D01*
X3395Y1865D02*
Y1848D01*
Y1857D01*
X3445D01*
X3437Y1865D01*
X3445Y1790D02*
X3437Y1807D01*
X3420Y1823D01*
X3403D01*
X3395Y1815D01*
Y1798D01*
X3403Y1790D01*
X3412D01*
X3420Y1798D01*
Y1823D01*
X3295Y1825D02*
Y1808D01*
Y1817D01*
X3345D01*
X3337Y1825D01*
X3295Y265D02*
Y248D01*
Y257D01*
X3345D01*
X3337Y265D01*
X3345Y190D02*
Y223D01*
X3320D01*
X3328Y207D01*
Y198D01*
X3320Y190D01*
X3303D01*
X3295Y198D01*
Y215D01*
X3303Y223D01*
X3437Y265D02*
X3445Y257D01*
Y240D01*
X3437Y232D01*
X3428D01*
X3420Y240D01*
Y248D01*
Y240D01*
X3412Y232D01*
X3403D01*
X3395Y240D01*
Y257D01*
X3403Y265D01*
X3437Y215D02*
X3445Y207D01*
Y190D01*
X3437Y182D01*
X3403D01*
X3395Y190D01*
Y207D01*
X3403Y215D01*
X3437D01*
X3725Y1325D02*
Y1308D01*
Y1317D01*
X3775D01*
X3767Y1325D01*
X3775Y732D02*
Y765D01*
X3750D01*
X3758Y748D01*
Y740D01*
X3750Y732D01*
X3733D01*
X3725Y740D01*
Y757D01*
X3733Y765D01*
X3825D02*
Y748D01*
Y757D01*
X3875D01*
X3867Y765D01*
Y723D02*
X3875Y715D01*
Y698D01*
X3867Y690D01*
X3833D01*
X3825Y698D01*
Y715D01*
X3833Y723D01*
X3867D01*
X3875Y1292D02*
X3867Y1308D01*
X3850Y1325D01*
X3833D01*
X3825Y1317D01*
Y1300D01*
X3833Y1292D01*
X3842D01*
X3850Y1300D01*
Y1325D01*
X3720Y2115D02*
Y2098D01*
Y2107D01*
X3770D01*
X3762Y2115D01*
X3770Y1522D02*
Y1555D01*
X3745D01*
X3753Y1538D01*
Y1530D01*
X3745Y1522D01*
X3728D01*
X3720Y1530D01*
Y1547D01*
X3728Y1555D01*
X3820D02*
Y1538D01*
Y1547D01*
X3870D01*
X3862Y1555D01*
Y1513D02*
X3870Y1505D01*
Y1488D01*
X3862Y1480D01*
X3828D01*
X3820Y1488D01*
Y1505D01*
X3828Y1513D01*
X3862D01*
X3870Y2082D02*
X3862Y2098D01*
X3845Y2115D01*
X3828D01*
X3820Y2107D01*
Y2090D01*
X3828Y2082D01*
X3837D01*
X3845Y2090D01*
Y2115D01*
X3710Y2895D02*
Y2878D01*
Y2887D01*
X3760D01*
X3752Y2895D01*
X3760Y2302D02*
Y2335D01*
X3735D01*
X3743Y2318D01*
Y2310D01*
X3735Y2302D01*
X3718D01*
X3710Y2310D01*
Y2327D01*
X3718Y2335D01*
X3810D02*
Y2318D01*
Y2327D01*
X3860D01*
X3852Y2335D01*
Y2293D02*
X3860Y2285D01*
Y2268D01*
X3852Y2260D01*
X3818D01*
X3810Y2268D01*
Y2285D01*
X3818Y2293D01*
X3852D01*
X3860Y2862D02*
X3852Y2878D01*
X3835Y2895D01*
X3818D01*
X3810Y2887D01*
Y2870D01*
X3818Y2862D01*
X3827D01*
X3835Y2870D01*
Y2895D01*
M02*
