G04 Layer_Color=65535*
%FSLAX23Y23*%
%MOIN*%
G70*
G01*
G75*
%ADD10C,0.010*%
%ADD17C,0.008*%
%ADD18C,0.008*%
D10*
X165Y3420D02*
Y3360D01*
X195D01*
X205Y3370D01*
Y3410D01*
X195Y3420D01*
X165D01*
X255Y3360D02*
X235D01*
X225Y3370D01*
Y3390D01*
X235Y3400D01*
X255D01*
X265Y3390D01*
Y3380D01*
X225D01*
X285Y3360D02*
X315D01*
X325Y3370D01*
X315Y3380D01*
X295D01*
X285Y3390D01*
X295Y3400D01*
X325D01*
X345Y3360D02*
X365D01*
X355D01*
Y3400D01*
X345D01*
X415Y3340D02*
X425D01*
X435Y3350D01*
Y3400D01*
X405D01*
X395Y3390D01*
Y3370D01*
X405Y3360D01*
X435D01*
X455D02*
Y3400D01*
X485D01*
X495Y3390D01*
Y3360D01*
X545D02*
X525D01*
X515Y3370D01*
Y3390D01*
X525Y3400D01*
X545D01*
X555Y3390D01*
Y3380D01*
X515D01*
X615Y3420D02*
Y3360D01*
X585D01*
X575Y3370D01*
Y3390D01*
X585Y3400D01*
X615D01*
X695Y3420D02*
Y3360D01*
X725D01*
X735Y3370D01*
Y3380D01*
Y3390D01*
X725Y3400D01*
X695D01*
X755D02*
Y3370D01*
X765Y3360D01*
X795D01*
Y3350D01*
X785Y3340D01*
X775D01*
X795Y3360D02*
Y3400D01*
X915Y3420D02*
X875D01*
Y3360D01*
X915D01*
X875Y3390D02*
X895D01*
X975Y3420D02*
Y3360D01*
X945D01*
X935Y3370D01*
Y3390D01*
X945Y3400D01*
X975D01*
X995Y3360D02*
X1015D01*
X1005D01*
Y3400D01*
X995D01*
X1045Y3360D02*
Y3400D01*
X1075D01*
X1085Y3390D01*
Y3360D01*
X1115Y3400D02*
X1135D01*
X1145Y3390D01*
Y3360D01*
X1115D01*
X1105Y3370D01*
X1115Y3380D01*
X1145D01*
X1165Y3360D02*
Y3400D01*
X1175D01*
X1185Y3390D01*
Y3360D01*
Y3390D01*
X1195Y3400D01*
X1205Y3390D01*
Y3360D01*
X1285Y3420D02*
X1325D01*
X1305D01*
Y3360D01*
X1375D02*
X1355D01*
X1345Y3370D01*
Y3390D01*
X1355Y3400D01*
X1375D01*
X1385Y3390D01*
Y3380D01*
X1345D01*
X1415Y3410D02*
Y3400D01*
X1405D01*
X1425D01*
X1415D01*
Y3370D01*
X1425Y3360D01*
X1465Y3410D02*
Y3400D01*
X1455D01*
X1475D01*
X1465D01*
Y3370D01*
X1475Y3360D01*
X1535D02*
X1515D01*
X1505Y3370D01*
Y3390D01*
X1515Y3400D01*
X1535D01*
X1545Y3390D01*
Y3380D01*
X1505D01*
X1565Y3400D02*
X1585Y3360D01*
X1605Y3400D01*
X1625Y3360D02*
X1645D01*
X1635D01*
Y3400D01*
X1625D01*
X1480Y1980D02*
X1470Y1990D01*
X1450D01*
X1440Y1980D01*
Y1970D01*
X1450Y1960D01*
X1470D01*
X1480Y1950D01*
Y1940D01*
X1470Y1930D01*
X1450D01*
X1440Y1940D01*
X1500Y1930D02*
Y1990D01*
X1530D01*
X1540Y1980D01*
Y1960D01*
X1530Y1950D01*
X1500D01*
X1560Y1980D02*
X1570Y1990D01*
X1590D01*
X1600Y1980D01*
Y1970D01*
X1590Y1960D01*
X1580D01*
X1590D01*
X1600Y1950D01*
Y1940D01*
X1590Y1930D01*
X1570D01*
X1560Y1940D01*
X1620Y1990D02*
X1660D01*
X1640D01*
Y1930D01*
X1680Y1920D02*
X1720D01*
X1740Y1930D02*
X1760D01*
X1750D01*
Y1990D01*
X1740Y1980D01*
X2210D02*
X2200Y1990D01*
X2180D01*
X2170Y1980D01*
Y1970D01*
X2180Y1960D01*
X2200D01*
X2210Y1950D01*
Y1940D01*
X2200Y1930D01*
X2180D01*
X2170Y1940D01*
X2230Y1930D02*
Y1990D01*
X2260D01*
X2270Y1980D01*
Y1960D01*
X2260Y1950D01*
X2230D01*
X2290Y1980D02*
X2300Y1990D01*
X2320D01*
X2330Y1980D01*
Y1970D01*
X2320Y1960D01*
X2310D01*
X2320D01*
X2330Y1950D01*
Y1940D01*
X2320Y1930D01*
X2300D01*
X2290Y1940D01*
X2350Y1990D02*
X2390D01*
X2370D01*
Y1930D01*
X2410Y1920D02*
X2450D01*
X2510Y1930D02*
X2470D01*
X2510Y1970D01*
Y1980D01*
X2500Y1990D01*
X2480D01*
X2470Y1980D01*
X700Y815D02*
X640D01*
X660Y835D01*
X640Y855D01*
X700D01*
X660Y885D02*
Y905D01*
X670Y915D01*
X700D01*
Y885D01*
X690Y875D01*
X680Y885D01*
Y915D01*
X700Y935D02*
Y955D01*
Y945D01*
X660D01*
Y935D01*
X700Y985D02*
X660D01*
Y1015D01*
X670Y1025D01*
X700D01*
X650Y1145D02*
X640Y1135D01*
Y1115D01*
X650Y1105D01*
X690D01*
X700Y1115D01*
Y1135D01*
X690Y1145D01*
X700Y1175D02*
Y1195D01*
X690Y1205D01*
X670D01*
X660Y1195D01*
Y1175D01*
X670Y1165D01*
X690D01*
X700Y1175D01*
Y1225D02*
X660D01*
Y1255D01*
X670Y1265D01*
X700D01*
Y1285D02*
X660D01*
Y1315D01*
X670Y1325D01*
X700D01*
Y1375D02*
Y1355D01*
X690Y1345D01*
X670D01*
X660Y1355D01*
Y1375D01*
X670Y1385D01*
X680D01*
Y1345D01*
X660Y1445D02*
Y1415D01*
X670Y1405D01*
X690D01*
X700Y1415D01*
Y1445D01*
X650Y1475D02*
X660D01*
Y1465D01*
Y1485D01*
Y1475D01*
X690D01*
X700Y1485D01*
Y1525D02*
Y1545D01*
X690Y1555D01*
X670D01*
X660Y1545D01*
Y1525D01*
X670Y1515D01*
X690D01*
X700Y1525D01*
X660Y1575D02*
X700D01*
X680D01*
X670Y1585D01*
X660Y1595D01*
Y1605D01*
X3922Y669D02*
X3912Y679D01*
X3892D01*
X3882Y669D01*
Y659D01*
X3892Y649D01*
X3912D01*
X3922Y639D01*
Y629D01*
X3912Y619D01*
X3892D01*
X3882Y629D01*
X3942Y619D02*
Y679D01*
X3972D01*
X3982Y669D01*
Y649D01*
X3972Y639D01*
X3942D01*
X4002Y679D02*
Y619D01*
X4032D01*
X4042Y629D01*
Y669D01*
X4032Y679D01*
X4002D01*
X4062D02*
X4102D01*
X4082D01*
Y619D01*
X4122Y609D02*
X4162D01*
X4182Y669D02*
X4192Y679D01*
X4212D01*
X4222Y669D01*
Y659D01*
X4212Y649D01*
X4202D01*
X4212D01*
X4222Y639D01*
Y629D01*
X4212Y619D01*
X4192D01*
X4182Y629D01*
X4242Y609D02*
X4282D01*
X4342Y619D02*
X4302D01*
X4342Y659D01*
Y669D01*
X4332Y679D01*
X4312D01*
X4302Y669D01*
X3922Y1179D02*
X3912Y1189D01*
X3892D01*
X3882Y1179D01*
Y1169D01*
X3892Y1159D01*
X3912D01*
X3922Y1149D01*
Y1139D01*
X3912Y1129D01*
X3892D01*
X3882Y1139D01*
X3942Y1129D02*
Y1189D01*
X3972D01*
X3982Y1179D01*
Y1159D01*
X3972Y1149D01*
X3942D01*
X4002Y1189D02*
Y1129D01*
X4032D01*
X4042Y1139D01*
Y1179D01*
X4032Y1189D01*
X4002D01*
X4062D02*
X4102D01*
X4082D01*
Y1129D01*
X4122Y1119D02*
X4162D01*
X4182Y1179D02*
X4192Y1189D01*
X4212D01*
X4222Y1179D01*
Y1169D01*
X4212Y1159D01*
X4202D01*
X4212D01*
X4222Y1149D01*
Y1139D01*
X4212Y1129D01*
X4192D01*
X4182Y1139D01*
X4242Y1119D02*
X4282D01*
X4302Y1129D02*
X4322D01*
X4312D01*
Y1189D01*
X4302Y1179D01*
X3922Y1714D02*
X3912Y1724D01*
X3892D01*
X3882Y1714D01*
Y1704D01*
X3892Y1694D01*
X3912D01*
X3922Y1684D01*
Y1674D01*
X3912Y1664D01*
X3892D01*
X3882Y1674D01*
X3942Y1664D02*
Y1724D01*
X3972D01*
X3982Y1714D01*
Y1694D01*
X3972Y1684D01*
X3942D01*
X4002Y1724D02*
Y1664D01*
X4032D01*
X4042Y1674D01*
Y1714D01*
X4032Y1724D01*
X4002D01*
X4062D02*
X4102D01*
X4082D01*
Y1664D01*
X4122Y1654D02*
X4162D01*
X4222Y1664D02*
X4182D01*
X4222Y1704D01*
Y1714D01*
X4212Y1724D01*
X4192D01*
X4182Y1714D01*
X4242Y1654D02*
X4282D01*
X4342Y1664D02*
X4302D01*
X4342Y1704D01*
Y1714D01*
X4332Y1724D01*
X4312D01*
X4302Y1714D01*
X3922Y2224D02*
X3912Y2234D01*
X3892D01*
X3882Y2224D01*
Y2214D01*
X3892Y2204D01*
X3912D01*
X3922Y2194D01*
Y2184D01*
X3912Y2174D01*
X3892D01*
X3882Y2184D01*
X3942Y2174D02*
Y2234D01*
X3972D01*
X3982Y2224D01*
Y2204D01*
X3972Y2194D01*
X3942D01*
X4002Y2234D02*
Y2174D01*
X4032D01*
X4042Y2184D01*
Y2224D01*
X4032Y2234D01*
X4002D01*
X4062D02*
X4102D01*
X4082D01*
Y2174D01*
X4122Y2164D02*
X4162D01*
X4222Y2174D02*
X4182D01*
X4222Y2214D01*
Y2224D01*
X4212Y2234D01*
X4192D01*
X4182Y2224D01*
X4242Y2164D02*
X4282D01*
X4302Y2174D02*
X4322D01*
X4312D01*
Y2234D01*
X4302Y2224D01*
X3922Y2744D02*
X3912Y2754D01*
X3892D01*
X3882Y2744D01*
Y2734D01*
X3892Y2724D01*
X3912D01*
X3922Y2714D01*
Y2704D01*
X3912Y2694D01*
X3892D01*
X3882Y2704D01*
X3942Y2694D02*
Y2754D01*
X3972D01*
X3982Y2744D01*
Y2724D01*
X3972Y2714D01*
X3942D01*
X4002Y2754D02*
Y2694D01*
X4032D01*
X4042Y2704D01*
Y2744D01*
X4032Y2754D01*
X4002D01*
X4062D02*
X4102D01*
X4082D01*
Y2694D01*
X4122Y2684D02*
X4162D01*
X4182Y2694D02*
X4202D01*
X4192D01*
Y2754D01*
X4182Y2744D01*
X4232Y2684D02*
X4272D01*
X4332Y2694D02*
X4292D01*
X4332Y2734D01*
Y2744D01*
X4322Y2754D01*
X4302D01*
X4292Y2744D01*
X3922Y3244D02*
X3912Y3254D01*
X3892D01*
X3882Y3244D01*
Y3234D01*
X3892Y3224D01*
X3912D01*
X3922Y3214D01*
Y3204D01*
X3912Y3194D01*
X3892D01*
X3882Y3204D01*
X3942Y3194D02*
Y3254D01*
X3972D01*
X3982Y3244D01*
Y3224D01*
X3972Y3214D01*
X3942D01*
X4002Y3254D02*
Y3194D01*
X4032D01*
X4042Y3204D01*
Y3244D01*
X4032Y3254D01*
X4002D01*
X4062D02*
X4102D01*
X4082D01*
Y3194D01*
X4122Y3184D02*
X4162D01*
X4182Y3194D02*
X4202D01*
X4192D01*
Y3254D01*
X4182Y3244D01*
X4232Y3184D02*
X4272D01*
X4292Y3194D02*
X4312D01*
X4302D01*
Y3254D01*
X4292Y3244D01*
X3056Y1187D02*
Y1247D01*
X3096Y1187D01*
Y1247D01*
X3146D02*
X3126D01*
X3116Y1237D01*
Y1197D01*
X3126Y1187D01*
X3146D01*
X3156Y1197D01*
Y1237D01*
X3146Y1247D01*
X3176Y1187D02*
Y1247D01*
X3206D01*
X3216Y1237D01*
Y1217D01*
X3206Y1207D01*
X3176D01*
X3196D02*
X3216Y1187D01*
X3236Y1177D02*
X3276D01*
X3296Y1237D02*
X3306Y1247D01*
X3326D01*
X3336Y1237D01*
Y1227D01*
X3326Y1217D01*
X3316D01*
X3326D01*
X3336Y1207D01*
Y1197D01*
X3326Y1187D01*
X3306D01*
X3296Y1197D01*
X3356Y1177D02*
X3396D01*
X3456Y1187D02*
X3416D01*
X3456Y1227D01*
Y1237D01*
X3446Y1247D01*
X3426D01*
X3416Y1237D01*
X2606Y1187D02*
Y1247D01*
X2646Y1187D01*
Y1247D01*
X2696D02*
X2676D01*
X2666Y1237D01*
Y1197D01*
X2676Y1187D01*
X2696D01*
X2706Y1197D01*
Y1237D01*
X2696Y1247D01*
X2726Y1187D02*
Y1247D01*
X2756D01*
X2766Y1237D01*
Y1217D01*
X2756Y1207D01*
X2726D01*
X2746D02*
X2766Y1187D01*
X2786Y1177D02*
X2826D01*
X2846Y1237D02*
X2856Y1247D01*
X2876D01*
X2886Y1237D01*
Y1227D01*
X2876Y1217D01*
X2866D01*
X2876D01*
X2886Y1207D01*
Y1197D01*
X2876Y1187D01*
X2856D01*
X2846Y1197D01*
X2906Y1177D02*
X2946D01*
X2966Y1187D02*
X2986D01*
X2976D01*
Y1247D01*
X2966Y1237D01*
X2136Y1187D02*
Y1247D01*
X2176Y1187D01*
Y1247D01*
X2226D02*
X2206D01*
X2196Y1237D01*
Y1197D01*
X2206Y1187D01*
X2226D01*
X2236Y1197D01*
Y1237D01*
X2226Y1247D01*
X2256Y1187D02*
Y1247D01*
X2286D01*
X2296Y1237D01*
Y1217D01*
X2286Y1207D01*
X2256D01*
X2276D02*
X2296Y1187D01*
X2316Y1177D02*
X2356D01*
X2416Y1187D02*
X2376D01*
X2416Y1227D01*
Y1237D01*
X2406Y1247D01*
X2386D01*
X2376Y1237D01*
X2436Y1177D02*
X2476D01*
X2536Y1187D02*
X2496D01*
X2536Y1227D01*
Y1237D01*
X2526Y1247D01*
X2506D01*
X2496Y1237D01*
X1686Y1187D02*
Y1247D01*
X1726Y1187D01*
Y1247D01*
X1776D02*
X1756D01*
X1746Y1237D01*
Y1197D01*
X1756Y1187D01*
X1776D01*
X1786Y1197D01*
Y1237D01*
X1776Y1247D01*
X1806Y1187D02*
Y1247D01*
X1836D01*
X1846Y1237D01*
Y1217D01*
X1836Y1207D01*
X1806D01*
X1826D02*
X1846Y1187D01*
X1866Y1177D02*
X1906D01*
X1966Y1187D02*
X1926D01*
X1966Y1227D01*
Y1237D01*
X1956Y1247D01*
X1936D01*
X1926Y1237D01*
X1986Y1177D02*
X2026D01*
X2046Y1187D02*
X2066D01*
X2056D01*
Y1247D01*
X2046Y1237D01*
X1226Y1187D02*
Y1247D01*
X1266Y1187D01*
Y1247D01*
X1316D02*
X1296D01*
X1286Y1237D01*
Y1197D01*
X1296Y1187D01*
X1316D01*
X1326Y1197D01*
Y1237D01*
X1316Y1247D01*
X1346Y1187D02*
Y1247D01*
X1376D01*
X1386Y1237D01*
Y1217D01*
X1376Y1207D01*
X1346D01*
X1366D02*
X1386Y1187D01*
X1406Y1177D02*
X1446D01*
X1466Y1187D02*
X1486D01*
X1476D01*
Y1247D01*
X1466Y1237D01*
X1516Y1177D02*
X1556D01*
X1616Y1187D02*
X1576D01*
X1616Y1227D01*
Y1237D01*
X1606Y1247D01*
X1586D01*
X1576Y1237D01*
X786Y1187D02*
Y1247D01*
X826Y1187D01*
Y1247D01*
X876D02*
X856D01*
X846Y1237D01*
Y1197D01*
X856Y1187D01*
X876D01*
X886Y1197D01*
Y1237D01*
X876Y1247D01*
X906Y1187D02*
Y1247D01*
X936D01*
X946Y1237D01*
Y1217D01*
X936Y1207D01*
X906D01*
X926D02*
X946Y1187D01*
X966Y1177D02*
X1006D01*
X1026Y1187D02*
X1046D01*
X1036D01*
Y1247D01*
X1026Y1237D01*
X1076Y1177D02*
X1116D01*
X1136Y1187D02*
X1156D01*
X1146D01*
Y1247D01*
X1136Y1237D01*
X3227Y3194D02*
Y3135D01*
X3256D01*
X3266Y3144D01*
Y3184D01*
X3256Y3194D01*
X3227D01*
X3326D02*
X3286D01*
Y3135D01*
X3326D01*
X3286Y3164D02*
X3306D01*
X3346Y3135D02*
Y3194D01*
X3366Y3174D01*
X3386Y3194D01*
Y3135D01*
X3406Y3194D02*
Y3144D01*
X3416Y3135D01*
X3436D01*
X3446Y3144D01*
Y3194D01*
X3466D02*
X3506Y3135D01*
Y3194D02*
X3466Y3135D01*
X3526Y3125D02*
X3566D01*
X3586Y3184D02*
X3596Y3194D01*
X3616D01*
X3626Y3184D01*
Y3174D01*
X3616Y3164D01*
X3606D01*
X3616D01*
X3626Y3154D01*
Y3144D01*
X3616Y3135D01*
X3596D01*
X3586Y3144D01*
X3646Y3125D02*
X3686D01*
X3746Y3135D02*
X3706D01*
X3746Y3174D01*
Y3184D01*
X3736Y3194D01*
X3716D01*
X3706Y3184D01*
X2657Y3194D02*
Y3135D01*
X2686D01*
X2696Y3144D01*
Y3184D01*
X2686Y3194D01*
X2657D01*
X2756D02*
X2716D01*
Y3135D01*
X2756D01*
X2716Y3164D02*
X2736D01*
X2776Y3135D02*
Y3194D01*
X2796Y3174D01*
X2816Y3194D01*
Y3135D01*
X2836Y3194D02*
Y3144D01*
X2846Y3135D01*
X2866D01*
X2876Y3144D01*
Y3194D01*
X2896D02*
X2936Y3135D01*
Y3194D02*
X2896Y3135D01*
X2956Y3125D02*
X2996D01*
X3016Y3184D02*
X3026Y3194D01*
X3046D01*
X3056Y3184D01*
Y3174D01*
X3046Y3164D01*
X3036D01*
X3046D01*
X3056Y3154D01*
Y3144D01*
X3046Y3135D01*
X3026D01*
X3016Y3144D01*
X3076Y3125D02*
X3116D01*
X3136Y3135D02*
X3156D01*
X3146D01*
Y3194D01*
X3136Y3184D01*
X2067Y3194D02*
Y3135D01*
X2096D01*
X2106Y3144D01*
Y3184D01*
X2096Y3194D01*
X2067D01*
X2166D02*
X2126D01*
Y3135D01*
X2166D01*
X2126Y3164D02*
X2146D01*
X2186Y3135D02*
Y3194D01*
X2206Y3174D01*
X2226Y3194D01*
Y3135D01*
X2246Y3194D02*
Y3144D01*
X2256Y3135D01*
X2276D01*
X2286Y3144D01*
Y3194D01*
X2306D02*
X2346Y3135D01*
Y3194D02*
X2306Y3135D01*
X2366Y3125D02*
X2406D01*
X2466Y3135D02*
X2426D01*
X2466Y3174D01*
Y3184D01*
X2456Y3194D01*
X2436D01*
X2426Y3184D01*
X2486Y3125D02*
X2526D01*
X2586Y3135D02*
X2546D01*
X2586Y3174D01*
Y3184D01*
X2576Y3194D01*
X2556D01*
X2546Y3184D01*
X1497Y3194D02*
Y3135D01*
X1526D01*
X1536Y3144D01*
Y3184D01*
X1526Y3194D01*
X1497D01*
X1596D02*
X1556D01*
Y3135D01*
X1596D01*
X1556Y3164D02*
X1576D01*
X1616Y3135D02*
Y3194D01*
X1636Y3174D01*
X1656Y3194D01*
Y3135D01*
X1676Y3194D02*
Y3144D01*
X1686Y3135D01*
X1706D01*
X1716Y3144D01*
Y3194D01*
X1736D02*
X1776Y3135D01*
Y3194D02*
X1736Y3135D01*
X1796Y3125D02*
X1836D01*
X1896Y3135D02*
X1856D01*
X1896Y3174D01*
Y3184D01*
X1886Y3194D01*
X1866D01*
X1856Y3184D01*
X1916Y3125D02*
X1956D01*
X1976Y3135D02*
X1996D01*
X1986D01*
Y3194D01*
X1976Y3184D01*
X917Y3194D02*
Y3135D01*
X946D01*
X956Y3144D01*
Y3184D01*
X946Y3194D01*
X917D01*
X1016D02*
X976D01*
Y3135D01*
X1016D01*
X976Y3164D02*
X996D01*
X1036Y3135D02*
Y3194D01*
X1056Y3174D01*
X1076Y3194D01*
Y3135D01*
X1096Y3194D02*
Y3144D01*
X1106Y3135D01*
X1126D01*
X1136Y3144D01*
Y3194D01*
X1156D02*
X1196Y3135D01*
Y3194D02*
X1156Y3135D01*
X1216Y3125D02*
X1256D01*
X1276Y3135D02*
X1296D01*
X1286D01*
Y3194D01*
X1276Y3184D01*
X1326Y3125D02*
X1366D01*
X1426Y3135D02*
X1386D01*
X1426Y3174D01*
Y3184D01*
X1416Y3194D01*
X1396D01*
X1386Y3184D01*
X362Y3194D02*
Y3135D01*
X391D01*
X401Y3144D01*
Y3184D01*
X391Y3194D01*
X362D01*
X461D02*
X421D01*
Y3135D01*
X461D01*
X421Y3164D02*
X441D01*
X481Y3135D02*
Y3194D01*
X501Y3174D01*
X521Y3194D01*
Y3135D01*
X541Y3194D02*
Y3144D01*
X551Y3135D01*
X571D01*
X581Y3144D01*
Y3194D01*
X601D02*
X641Y3135D01*
Y3194D02*
X601Y3135D01*
X661Y3125D02*
X701D01*
X721Y3135D02*
X741D01*
X731D01*
Y3194D01*
X721Y3184D01*
X771Y3125D02*
X811D01*
X831Y3135D02*
X851D01*
X841D01*
Y3194D01*
X831Y3184D01*
X2671Y2112D02*
X2661Y2122D01*
X2641D01*
X2632Y2112D01*
Y2102D01*
X2641Y2092D01*
X2661D01*
X2671Y2082D01*
Y2072D01*
X2661Y2063D01*
X2641D01*
X2632Y2072D01*
X2691Y2063D02*
Y2122D01*
X2721D01*
X2731Y2112D01*
Y2092D01*
X2721Y2082D01*
X2691D01*
X2751Y2112D02*
X2761Y2122D01*
X2781D01*
X2791Y2112D01*
Y2102D01*
X2781Y2092D01*
X2791Y2082D01*
Y2072D01*
X2781Y2063D01*
X2761D01*
X2751Y2072D01*
Y2082D01*
X2761Y2092D01*
X2751Y2102D01*
Y2112D01*
X2761Y2092D02*
X2781D01*
X2811Y2122D02*
X2851D01*
X2831D01*
Y2063D01*
X2871Y2053D02*
X2911D01*
X2971Y2112D02*
X2961Y2122D01*
X2941D01*
X2931Y2112D01*
Y2072D01*
X2941Y2063D01*
X2961D01*
X2971Y2072D01*
X3001Y2063D02*
X3021D01*
X3031Y2072D01*
Y2092D01*
X3021Y2102D01*
X3001D01*
X2991Y2092D01*
Y2072D01*
X3001Y2063D01*
X3051D02*
Y2102D01*
X3061D01*
X3071Y2092D01*
Y2063D01*
Y2092D01*
X3081Y2102D01*
X3091Y2092D01*
Y2063D01*
X3111Y2122D02*
Y2063D01*
X3141D01*
X3151Y2072D01*
Y2082D01*
Y2092D01*
X3141Y2102D01*
X3111D01*
X3181Y2063D02*
X3201D01*
X3211Y2072D01*
Y2092D01*
X3201Y2102D01*
X3181D01*
X3171Y2092D01*
Y2072D01*
X3181Y2063D01*
X3231Y2053D02*
X3271D01*
X3291Y2112D02*
X3301Y2122D01*
X3321D01*
X3331Y2112D01*
Y2102D01*
X3321Y2092D01*
X3311D01*
X3321D01*
X3331Y2082D01*
Y2072D01*
X3321Y2063D01*
X3301D01*
X3291Y2072D01*
X1896Y2112D02*
X1886Y2122D01*
X1866D01*
X1857Y2112D01*
Y2102D01*
X1866Y2092D01*
X1886D01*
X1896Y2082D01*
Y2072D01*
X1886Y2063D01*
X1866D01*
X1857Y2072D01*
X1916Y2063D02*
Y2122D01*
X1946D01*
X1956Y2112D01*
Y2092D01*
X1946Y2082D01*
X1916D01*
X1976Y2112D02*
X1986Y2122D01*
X2006D01*
X2016Y2112D01*
Y2102D01*
X2006Y2092D01*
X2016Y2082D01*
Y2072D01*
X2006Y2063D01*
X1986D01*
X1976Y2072D01*
Y2082D01*
X1986Y2092D01*
X1976Y2102D01*
Y2112D01*
X1986Y2092D02*
X2006D01*
X2036Y2122D02*
X2076D01*
X2056D01*
Y2063D01*
X2096Y2053D02*
X2136D01*
X2196Y2112D02*
X2186Y2122D01*
X2166D01*
X2156Y2112D01*
Y2072D01*
X2166Y2063D01*
X2186D01*
X2196Y2072D01*
X2226Y2063D02*
X2246D01*
X2256Y2072D01*
Y2092D01*
X2246Y2102D01*
X2226D01*
X2216Y2092D01*
Y2072D01*
X2226Y2063D01*
X2276D02*
Y2102D01*
X2286D01*
X2296Y2092D01*
Y2063D01*
Y2092D01*
X2306Y2102D01*
X2316Y2092D01*
Y2063D01*
X2336Y2122D02*
Y2063D01*
X2366D01*
X2376Y2072D01*
Y2082D01*
Y2092D01*
X2366Y2102D01*
X2336D01*
X2406Y2063D02*
X2426D01*
X2436Y2072D01*
Y2092D01*
X2426Y2102D01*
X2406D01*
X2396Y2092D01*
Y2072D01*
X2406Y2063D01*
X2456Y2053D02*
X2496D01*
X2556Y2063D02*
X2516D01*
X2556Y2102D01*
Y2112D01*
X2546Y2122D01*
X2526D01*
X2516Y2112D01*
X1146D02*
X1136Y2122D01*
X1116D01*
X1107Y2112D01*
Y2102D01*
X1116Y2092D01*
X1136D01*
X1146Y2082D01*
Y2072D01*
X1136Y2063D01*
X1116D01*
X1107Y2072D01*
X1166Y2063D02*
Y2122D01*
X1196D01*
X1206Y2112D01*
Y2092D01*
X1196Y2082D01*
X1166D01*
X1226Y2112D02*
X1236Y2122D01*
X1256D01*
X1266Y2112D01*
Y2102D01*
X1256Y2092D01*
X1266Y2082D01*
Y2072D01*
X1256Y2063D01*
X1236D01*
X1226Y2072D01*
Y2082D01*
X1236Y2092D01*
X1226Y2102D01*
Y2112D01*
X1236Y2092D02*
X1256D01*
X1286Y2122D02*
X1326D01*
X1306D01*
Y2063D01*
X1346Y2053D02*
X1386D01*
X1446Y2112D02*
X1436Y2122D01*
X1416D01*
X1406Y2112D01*
Y2072D01*
X1416Y2063D01*
X1436D01*
X1446Y2072D01*
X1476Y2063D02*
X1496D01*
X1506Y2072D01*
Y2092D01*
X1496Y2102D01*
X1476D01*
X1466Y2092D01*
Y2072D01*
X1476Y2063D01*
X1526D02*
Y2102D01*
X1536D01*
X1546Y2092D01*
Y2063D01*
Y2092D01*
X1556Y2102D01*
X1566Y2092D01*
Y2063D01*
X1586Y2122D02*
Y2063D01*
X1616D01*
X1626Y2072D01*
Y2082D01*
Y2092D01*
X1616Y2102D01*
X1586D01*
X1656Y2063D02*
X1676D01*
X1686Y2072D01*
Y2092D01*
X1676Y2102D01*
X1656D01*
X1646Y2092D01*
Y2072D01*
X1656Y2063D01*
X1706Y2053D02*
X1746D01*
X1766Y2063D02*
X1786D01*
X1776D01*
Y2122D01*
X1766Y2112D01*
D17*
X3255Y367D02*
G03*
X3205Y367I-25J0D01*
G01*
X2805D02*
G03*
X2755Y367I-25J0D01*
G01*
X2335D02*
G03*
X2285Y367I-25J0D01*
G01*
X1885D02*
G03*
X1835Y367I-25J0D01*
G01*
X1425D02*
G03*
X1375Y367I-25J0D01*
G01*
X985D02*
G03*
X935Y367I-25J0D01*
G01*
X3425Y2279D02*
G03*
X3375Y2279I-25J0D01*
G01*
X2855D02*
G03*
X2805Y2279I-25J0D01*
G01*
X2265D02*
G03*
X2215Y2279I-25J0D01*
G01*
X1695D02*
G03*
X1645Y2279I-25J0D01*
G01*
X1115D02*
G03*
X1065Y2279I-25J0D01*
G01*
X560D02*
G03*
X510Y2279I-25J0D01*
G01*
X1635Y1585D02*
Y1885D01*
X1535D02*
X1635D01*
X1535Y1585D02*
Y1885D01*
Y1585D02*
X1635D01*
X2385D02*
Y1885D01*
X2285D02*
X2385D01*
X2285Y1585D02*
Y1885D01*
Y1585D02*
X2385D01*
X400Y365D02*
X600D01*
X400D02*
Y1865D01*
X600Y365D02*
Y1865D01*
X400D02*
X600D01*
X3930Y375D02*
Y575D01*
Y375D02*
X4430D01*
Y575D01*
X3930D02*
X4430D01*
X3930Y885D02*
Y1085D01*
Y885D02*
X4430D01*
Y1085D01*
X3930D02*
X4430D01*
X3930Y1420D02*
Y1620D01*
Y1420D02*
X4430D01*
Y1620D01*
X3930D02*
X4430D01*
X3930Y1930D02*
Y2130D01*
Y1930D02*
X4430D01*
Y2130D01*
X3930D02*
X4430D01*
X3930Y2450D02*
Y2650D01*
Y2450D02*
X4430D01*
Y2650D01*
X3930D02*
X4430D01*
X3930Y2950D02*
Y3150D01*
Y2950D02*
X4430D01*
Y3150D01*
X3930D02*
X4430D01*
X3126Y367D02*
Y1143D01*
X3334Y367D02*
Y1143D01*
X3126D02*
X3334D01*
X3126Y367D02*
X3205D01*
X3255D02*
X3334D01*
X2676D02*
Y1143D01*
X2884Y367D02*
Y1143D01*
X2676D02*
X2884D01*
X2676Y367D02*
X2755D01*
X2805D02*
X2884D01*
X2206D02*
Y1143D01*
X2414Y367D02*
Y1143D01*
X2206D02*
X2414D01*
X2206Y367D02*
X2285D01*
X2335D02*
X2414D01*
X1756D02*
Y1143D01*
X1964Y367D02*
Y1143D01*
X1756D02*
X1964D01*
X1756Y367D02*
X1835D01*
X1885D02*
X1964D01*
X1296D02*
Y1143D01*
X1504Y367D02*
Y1143D01*
X1296D02*
X1504D01*
X1296Y367D02*
X1375D01*
X1425D02*
X1504D01*
X856D02*
Y1143D01*
X1064Y367D02*
Y1143D01*
X856D02*
X1064D01*
X856Y367D02*
X935D01*
X985D02*
X1064D01*
X3296Y2279D02*
Y3091D01*
X3504Y2279D02*
Y3091D01*
X3296D02*
X3504D01*
X3296Y2279D02*
X3375D01*
X3425D02*
X3504D01*
X2726D02*
Y3091D01*
X2934Y2279D02*
Y3091D01*
X2726D02*
X2934D01*
X2726Y2279D02*
X2805D01*
X2855D02*
X2934D01*
X2136D02*
Y3091D01*
X2344Y2279D02*
Y3091D01*
X2136D02*
X2344D01*
X2136Y2279D02*
X2215D01*
X2265D02*
X2344D01*
X1566D02*
Y3091D01*
X1774Y2279D02*
Y3091D01*
X1566D02*
X1774D01*
X1566Y2279D02*
X1645D01*
X1695D02*
X1774D01*
X986D02*
Y3091D01*
X1194Y2279D02*
Y3091D01*
X986D02*
X1194D01*
X986Y2279D02*
X1065D01*
X1115D02*
X1194D01*
X431D02*
Y3091D01*
X639Y2279D02*
Y3091D01*
X431D02*
X639D01*
X431Y2279D02*
X510D01*
X560D02*
X639D01*
X2625Y1430D02*
X2825D01*
Y1930D01*
X2625D02*
X2825D01*
X2625Y1430D02*
Y1930D01*
X1850Y1430D02*
X2050D01*
Y1930D01*
X1850D02*
X2050D01*
X1850Y1430D02*
Y1930D01*
X1100Y1430D02*
X1300D01*
Y1930D01*
X1100D02*
X1300D01*
X1100Y1430D02*
Y1930D01*
D18*
X572Y355D02*
X580Y347D01*
Y330D01*
X572Y322D01*
X563D01*
X555Y330D01*
Y338D01*
Y330D01*
X547Y322D01*
X538D01*
X530Y330D01*
Y347D01*
X538Y355D01*
X572Y305D02*
X580Y297D01*
Y280D01*
X572Y272D01*
X538D01*
X530Y280D01*
Y297D01*
X538Y305D01*
X572D01*
X430Y355D02*
Y338D01*
Y347D01*
X480D01*
X472Y355D01*
X480Y280D02*
Y313D01*
X455D01*
X463Y297D01*
Y288D01*
X455Y280D01*
X438D01*
X430Y288D01*
Y305D01*
X438Y313D01*
X430Y1915D02*
Y1898D01*
Y1907D01*
X480D01*
X472Y1915D01*
X530Y1955D02*
Y1938D01*
Y1947D01*
X580D01*
X572Y1955D01*
X580Y1880D02*
X572Y1897D01*
X555Y1913D01*
X538D01*
X530Y1905D01*
Y1888D01*
X538Y1880D01*
X547D01*
X555Y1888D01*
Y1913D01*
X3913Y555D02*
X3897Y547D01*
X3880Y530D01*
Y513D01*
X3888Y505D01*
X3905D01*
X3913Y513D01*
Y522D01*
X3905Y530D01*
X3880D01*
X4440Y505D02*
X4457D01*
X4448D01*
Y555D01*
X4440Y547D01*
X4482D02*
X4490Y555D01*
X4507D01*
X4515Y547D01*
Y513D01*
X4507Y505D01*
X4490D01*
X4482Y513D01*
Y547D01*
X4473Y455D02*
X4440D01*
Y430D01*
X4457Y438D01*
X4465D01*
X4473Y430D01*
Y413D01*
X4465Y405D01*
X4448D01*
X4440Y413D01*
X3880Y405D02*
X3897D01*
X3888D01*
Y455D01*
X3880Y447D01*
X3913Y1065D02*
X3897Y1057D01*
X3880Y1040D01*
Y1023D01*
X3888Y1015D01*
X3905D01*
X3913Y1023D01*
Y1032D01*
X3905Y1040D01*
X3880D01*
X4440Y1015D02*
X4457D01*
X4448D01*
Y1065D01*
X4440Y1057D01*
X4482D02*
X4490Y1065D01*
X4507D01*
X4515Y1057D01*
Y1023D01*
X4507Y1015D01*
X4490D01*
X4482Y1023D01*
Y1057D01*
X4473Y965D02*
X4440D01*
Y940D01*
X4457Y948D01*
X4465D01*
X4473Y940D01*
Y923D01*
X4465Y915D01*
X4448D01*
X4440Y923D01*
X3880Y915D02*
X3897D01*
X3888D01*
Y965D01*
X3880Y957D01*
X3913Y1600D02*
X3897Y1592D01*
X3880Y1575D01*
Y1558D01*
X3888Y1550D01*
X3905D01*
X3913Y1558D01*
Y1567D01*
X3905Y1575D01*
X3880D01*
X4440Y1550D02*
X4457D01*
X4448D01*
Y1600D01*
X4440Y1592D01*
X4482D02*
X4490Y1600D01*
X4507D01*
X4515Y1592D01*
Y1558D01*
X4507Y1550D01*
X4490D01*
X4482Y1558D01*
Y1592D01*
X4473Y1500D02*
X4440D01*
Y1475D01*
X4457Y1483D01*
X4465D01*
X4473Y1475D01*
Y1458D01*
X4465Y1450D01*
X4448D01*
X4440Y1458D01*
X3880Y1450D02*
X3897D01*
X3888D01*
Y1500D01*
X3880Y1492D01*
X3913Y2110D02*
X3897Y2102D01*
X3880Y2085D01*
Y2068D01*
X3888Y2060D01*
X3905D01*
X3913Y2068D01*
Y2077D01*
X3905Y2085D01*
X3880D01*
X4440Y2060D02*
X4457D01*
X4448D01*
Y2110D01*
X4440Y2102D01*
X4482D02*
X4490Y2110D01*
X4507D01*
X4515Y2102D01*
Y2068D01*
X4507Y2060D01*
X4490D01*
X4482Y2068D01*
Y2102D01*
X4473Y2010D02*
X4440D01*
Y1985D01*
X4457Y1993D01*
X4465D01*
X4473Y1985D01*
Y1968D01*
X4465Y1960D01*
X4448D01*
X4440Y1968D01*
X3880Y1960D02*
X3897D01*
X3888D01*
Y2010D01*
X3880Y2002D01*
X3913Y2630D02*
X3897Y2622D01*
X3880Y2605D01*
Y2588D01*
X3888Y2580D01*
X3905D01*
X3913Y2588D01*
Y2597D01*
X3905Y2605D01*
X3880D01*
X4440Y2580D02*
X4457D01*
X4448D01*
Y2630D01*
X4440Y2622D01*
X4482D02*
X4490Y2630D01*
X4507D01*
X4515Y2622D01*
Y2588D01*
X4507Y2580D01*
X4490D01*
X4482Y2588D01*
Y2622D01*
X4473Y2530D02*
X4440D01*
Y2505D01*
X4457Y2513D01*
X4465D01*
X4473Y2505D01*
Y2488D01*
X4465Y2480D01*
X4448D01*
X4440Y2488D01*
X3880Y2480D02*
X3897D01*
X3888D01*
Y2530D01*
X3880Y2522D01*
X3913Y3130D02*
X3897Y3122D01*
X3880Y3105D01*
Y3088D01*
X3888Y3080D01*
X3905D01*
X3913Y3088D01*
Y3097D01*
X3905Y3105D01*
X3880D01*
X4440Y3080D02*
X4457D01*
X4448D01*
Y3130D01*
X4440Y3122D01*
X4482D02*
X4490Y3130D01*
X4507D01*
X4515Y3122D01*
Y3088D01*
X4507Y3080D01*
X4490D01*
X4482Y3088D01*
Y3122D01*
X4473Y3030D02*
X4440D01*
Y3005D01*
X4457Y3013D01*
X4465D01*
X4473Y3005D01*
Y2988D01*
X4465Y2980D01*
X4448D01*
X4440Y2988D01*
X3880Y2980D02*
X3897D01*
X3888D01*
Y3030D01*
X3880Y3022D01*
X2645Y1413D02*
X2653Y1397D01*
X2670Y1380D01*
X2687D01*
X2695Y1388D01*
Y1405D01*
X2687Y1413D01*
X2678D01*
X2670Y1405D01*
Y1380D01*
X2695Y1940D02*
Y1957D01*
Y1948D01*
X2645D01*
X2653Y1940D01*
Y1982D02*
X2645Y1990D01*
Y2007D01*
X2653Y2015D01*
X2687D01*
X2695Y2007D01*
Y1990D01*
X2687Y1982D01*
X2653D01*
X2745Y1973D02*
Y1940D01*
X2770D01*
X2762Y1957D01*
Y1965D01*
X2770Y1973D01*
X2787D01*
X2795Y1965D01*
Y1948D01*
X2787Y1940D01*
X2795Y1380D02*
Y1397D01*
Y1388D01*
X2745D01*
X2753Y1380D01*
X1870Y1413D02*
X1878Y1397D01*
X1895Y1380D01*
X1912D01*
X1920Y1388D01*
Y1405D01*
X1912Y1413D01*
X1903D01*
X1895Y1405D01*
Y1380D01*
X1920Y1940D02*
Y1957D01*
Y1948D01*
X1870D01*
X1878Y1940D01*
Y1982D02*
X1870Y1990D01*
Y2007D01*
X1878Y2015D01*
X1912D01*
X1920Y2007D01*
Y1990D01*
X1912Y1982D01*
X1878D01*
X1970Y1973D02*
Y1940D01*
X1995D01*
X1987Y1957D01*
Y1965D01*
X1995Y1973D01*
X2012D01*
X2020Y1965D01*
Y1948D01*
X2012Y1940D01*
X2020Y1380D02*
Y1397D01*
Y1388D01*
X1970D01*
X1978Y1380D01*
X1120Y1413D02*
X1128Y1397D01*
X1145Y1380D01*
X1162D01*
X1170Y1388D01*
Y1405D01*
X1162Y1413D01*
X1153D01*
X1145Y1405D01*
Y1380D01*
X1170Y1940D02*
Y1957D01*
Y1948D01*
X1120D01*
X1128Y1940D01*
Y1982D02*
X1120Y1990D01*
Y2007D01*
X1128Y2015D01*
X1162D01*
X1170Y2007D01*
Y1990D01*
X1162Y1982D01*
X1128D01*
X1220Y1973D02*
Y1940D01*
X1245D01*
X1237Y1957D01*
Y1965D01*
X1245Y1973D01*
X1262D01*
X1270Y1965D01*
Y1948D01*
X1262Y1940D01*
X1270Y1380D02*
Y1397D01*
Y1388D01*
X1220D01*
X1228Y1380D01*
M02*
