G04 Layer_Color=8388736*
%FSLAX23Y23*%
%MOIN*%
G70*
G01*
G75*
%ADD19R,0.067X0.067*%
%ADD20C,0.067*%
%ADD21R,0.067X0.067*%
%ADD22C,0.067*%
%ADD23R,0.067X0.067*%
%ADD24C,0.058*%
D19*
X1585Y1635D02*
D03*
X2335D02*
D03*
X450Y1815D02*
D03*
X2775Y1480D02*
D03*
X2000D02*
D03*
X1250D02*
D03*
D20*
X1585Y1735D02*
D03*
Y1835D02*
D03*
X2335Y1735D02*
D03*
Y1835D02*
D03*
X550Y415D02*
D03*
Y515D02*
D03*
Y615D02*
D03*
Y715D02*
D03*
Y815D02*
D03*
Y915D02*
D03*
Y1015D02*
D03*
Y1115D02*
D03*
Y1215D02*
D03*
Y1315D02*
D03*
Y1415D02*
D03*
Y1515D02*
D03*
Y1615D02*
D03*
Y1715D02*
D03*
Y1815D02*
D03*
X450Y415D02*
D03*
Y515D02*
D03*
Y615D02*
D03*
Y715D02*
D03*
Y815D02*
D03*
Y915D02*
D03*
Y1015D02*
D03*
Y1115D02*
D03*
Y1215D02*
D03*
Y1315D02*
D03*
Y1415D02*
D03*
Y1515D02*
D03*
Y1615D02*
D03*
Y1715D02*
D03*
X4380Y525D02*
D03*
X4280D02*
D03*
X4180D02*
D03*
X4080D02*
D03*
X3980D02*
D03*
X4380Y425D02*
D03*
X4280D02*
D03*
X4180D02*
D03*
X4080D02*
D03*
X4380Y1035D02*
D03*
X4280D02*
D03*
X4180D02*
D03*
X4080D02*
D03*
X3980D02*
D03*
X4380Y935D02*
D03*
X4280D02*
D03*
X4180D02*
D03*
X4080D02*
D03*
X4380Y1570D02*
D03*
X4280D02*
D03*
X4180D02*
D03*
X4080D02*
D03*
X3980D02*
D03*
X4380Y1470D02*
D03*
X4280D02*
D03*
X4180D02*
D03*
X4080D02*
D03*
X4380Y2080D02*
D03*
X4280D02*
D03*
X4180D02*
D03*
X4080D02*
D03*
X3980D02*
D03*
X4380Y1980D02*
D03*
X4280D02*
D03*
X4180D02*
D03*
X4080D02*
D03*
X4380Y2600D02*
D03*
X4280D02*
D03*
X4180D02*
D03*
X4080D02*
D03*
X3980D02*
D03*
X4380Y2500D02*
D03*
X4280D02*
D03*
X4180D02*
D03*
X4080D02*
D03*
X4380Y3100D02*
D03*
X4280D02*
D03*
X4180D02*
D03*
X4080D02*
D03*
X3980D02*
D03*
X4380Y3000D02*
D03*
X4280D02*
D03*
X4180D02*
D03*
X4080D02*
D03*
X2675Y1880D02*
D03*
Y1780D02*
D03*
Y1680D02*
D03*
Y1580D02*
D03*
Y1480D02*
D03*
X2775Y1880D02*
D03*
Y1780D02*
D03*
Y1680D02*
D03*
Y1580D02*
D03*
X1900Y1880D02*
D03*
Y1780D02*
D03*
Y1680D02*
D03*
Y1580D02*
D03*
Y1480D02*
D03*
X2000Y1880D02*
D03*
Y1780D02*
D03*
Y1680D02*
D03*
Y1580D02*
D03*
X1150Y1880D02*
D03*
Y1780D02*
D03*
Y1680D02*
D03*
Y1580D02*
D03*
Y1480D02*
D03*
X1250Y1880D02*
D03*
Y1780D02*
D03*
Y1680D02*
D03*
Y1580D02*
D03*
D21*
X3980Y425D02*
D03*
Y935D02*
D03*
Y1470D02*
D03*
Y1980D02*
D03*
Y2500D02*
D03*
Y3000D02*
D03*
D22*
X3080Y1055D02*
D03*
Y955D02*
D03*
Y855D02*
D03*
Y755D02*
D03*
Y655D02*
D03*
Y555D02*
D03*
Y455D02*
D03*
X3380Y1055D02*
D03*
Y955D02*
D03*
Y855D02*
D03*
Y755D02*
D03*
Y655D02*
D03*
Y555D02*
D03*
X2630Y1055D02*
D03*
Y955D02*
D03*
Y855D02*
D03*
Y755D02*
D03*
Y655D02*
D03*
Y555D02*
D03*
Y455D02*
D03*
X2930Y1055D02*
D03*
Y955D02*
D03*
Y855D02*
D03*
Y755D02*
D03*
Y655D02*
D03*
Y555D02*
D03*
X2160Y1055D02*
D03*
Y955D02*
D03*
Y855D02*
D03*
Y755D02*
D03*
Y655D02*
D03*
Y555D02*
D03*
Y455D02*
D03*
X2460Y1055D02*
D03*
Y955D02*
D03*
Y855D02*
D03*
Y755D02*
D03*
Y655D02*
D03*
Y555D02*
D03*
X1710Y1055D02*
D03*
Y955D02*
D03*
Y855D02*
D03*
Y755D02*
D03*
Y655D02*
D03*
Y555D02*
D03*
Y455D02*
D03*
X2010Y1055D02*
D03*
Y955D02*
D03*
Y855D02*
D03*
Y755D02*
D03*
Y655D02*
D03*
Y555D02*
D03*
X1250Y1055D02*
D03*
Y955D02*
D03*
Y855D02*
D03*
Y755D02*
D03*
Y655D02*
D03*
Y555D02*
D03*
Y455D02*
D03*
X1550Y1055D02*
D03*
Y955D02*
D03*
Y855D02*
D03*
Y755D02*
D03*
Y655D02*
D03*
Y555D02*
D03*
X810Y1055D02*
D03*
Y955D02*
D03*
Y855D02*
D03*
Y755D02*
D03*
Y655D02*
D03*
Y555D02*
D03*
Y455D02*
D03*
X1110Y1055D02*
D03*
Y955D02*
D03*
Y855D02*
D03*
Y755D02*
D03*
Y655D02*
D03*
Y555D02*
D03*
X3250Y3035D02*
D03*
Y2935D02*
D03*
Y2835D02*
D03*
Y2735D02*
D03*
Y2635D02*
D03*
Y2535D02*
D03*
Y2435D02*
D03*
Y2335D02*
D03*
X3550Y3035D02*
D03*
Y2935D02*
D03*
Y2835D02*
D03*
Y2735D02*
D03*
Y2635D02*
D03*
Y2535D02*
D03*
Y2435D02*
D03*
X2680Y3035D02*
D03*
Y2935D02*
D03*
Y2835D02*
D03*
Y2735D02*
D03*
Y2635D02*
D03*
Y2535D02*
D03*
Y2435D02*
D03*
Y2335D02*
D03*
X2980Y3035D02*
D03*
Y2935D02*
D03*
Y2835D02*
D03*
Y2735D02*
D03*
Y2635D02*
D03*
Y2535D02*
D03*
Y2435D02*
D03*
X2090Y3035D02*
D03*
Y2935D02*
D03*
Y2835D02*
D03*
Y2735D02*
D03*
Y2635D02*
D03*
Y2535D02*
D03*
Y2435D02*
D03*
Y2335D02*
D03*
X2390Y3035D02*
D03*
Y2935D02*
D03*
Y2835D02*
D03*
Y2735D02*
D03*
Y2635D02*
D03*
Y2535D02*
D03*
Y2435D02*
D03*
X1520Y3035D02*
D03*
Y2935D02*
D03*
Y2835D02*
D03*
Y2735D02*
D03*
Y2635D02*
D03*
Y2535D02*
D03*
Y2435D02*
D03*
Y2335D02*
D03*
X1820Y3035D02*
D03*
Y2935D02*
D03*
Y2835D02*
D03*
Y2735D02*
D03*
Y2635D02*
D03*
Y2535D02*
D03*
Y2435D02*
D03*
X940Y3035D02*
D03*
Y2935D02*
D03*
Y2835D02*
D03*
Y2735D02*
D03*
Y2635D02*
D03*
Y2535D02*
D03*
Y2435D02*
D03*
Y2335D02*
D03*
X1240Y3035D02*
D03*
Y2935D02*
D03*
Y2835D02*
D03*
Y2735D02*
D03*
Y2635D02*
D03*
Y2535D02*
D03*
Y2435D02*
D03*
X385Y3035D02*
D03*
Y2935D02*
D03*
Y2835D02*
D03*
Y2735D02*
D03*
Y2635D02*
D03*
Y2535D02*
D03*
Y2435D02*
D03*
Y2335D02*
D03*
X685Y3035D02*
D03*
Y2935D02*
D03*
Y2835D02*
D03*
Y2735D02*
D03*
Y2635D02*
D03*
Y2535D02*
D03*
Y2435D02*
D03*
D23*
X3380Y455D02*
D03*
X2930D02*
D03*
X2460D02*
D03*
X2010D02*
D03*
X1550D02*
D03*
X1110D02*
D03*
X3550Y2335D02*
D03*
X2980D02*
D03*
X2390D02*
D03*
X1820D02*
D03*
X1240D02*
D03*
X685D02*
D03*
D24*
X260Y1418D02*
D03*
X1950Y3470D02*
D03*
X2405Y3515D02*
D03*
X2615Y3500D02*
D03*
X455Y3450D02*
D03*
X4500Y3440D02*
D03*
X4435Y1760D02*
D03*
X3200Y3435D02*
D03*
X4420Y3345D02*
D03*
X1560Y3170D02*
D03*
X2495Y3128D02*
D03*
X2460Y3210D02*
D03*
X1435Y3148D02*
D03*
X285Y3155D02*
D03*
X145Y3105D02*
D03*
X185Y2635D02*
D03*
X254Y1681D02*
D03*
X614Y1699D02*
D03*
X616Y1630D02*
D03*
X1195Y1357D02*
D03*
X3793Y2645D02*
D03*
X1065Y1008D02*
D03*
X838Y2883D02*
D03*
X3833Y2943D02*
D03*
X1205Y2245D02*
D03*
X1145Y1971D02*
D03*
X1451Y1981D02*
D03*
X847Y2953D02*
D03*
X1695Y2840D02*
D03*
X1919Y974D02*
D03*
X1615Y510D02*
D03*
X952Y623D02*
D03*
X966Y1627D02*
D03*
X1045Y2402D02*
D03*
X1885Y2385D02*
D03*
X386Y1601D02*
D03*
X2175Y2225D02*
D03*
X3856Y2245D02*
D03*
X3975Y2293D02*
D03*
X4235D02*
D03*
X3826Y1456D02*
D03*
X2545Y2085D02*
D03*
X2535Y2880D02*
D03*
X1407Y2851D02*
D03*
X2290Y2081D02*
D03*
X3875Y1833D02*
D03*
X3993Y1652D02*
D03*
X2339Y2040D02*
D03*
X845Y3100D02*
D03*
X2379Y2189D02*
D03*
X161Y1405D02*
D03*
X2296Y2295D02*
D03*
X2613Y2868D02*
D03*
X145Y1689D02*
D03*
X2256Y2935D02*
D03*
X2244Y885D02*
D03*
X2292Y1925D02*
D03*
X2055Y2182D02*
D03*
X1985Y2320D02*
D03*
X1704Y2184D02*
D03*
X2616Y2320D02*
D03*
X2463Y1780D02*
D03*
X2285Y1335D02*
D03*
X2812Y2478D02*
D03*
X775Y2739D02*
D03*
X673Y797D02*
D03*
X3386Y2932D02*
D03*
X2842Y2886D02*
D03*
X3875Y939D02*
D03*
X3976Y822D02*
D03*
X2800Y1162D02*
D03*
X3796Y1191D02*
D03*
X4230Y1200D02*
D03*
X660Y651D02*
D03*
X2728Y632D02*
D03*
X3461Y1693D02*
D03*
X1358Y1333D02*
D03*
X1050Y1371D02*
D03*
X2759Y2813D02*
D03*
X1432Y325D02*
D03*
X2463Y1355D02*
D03*
X3652Y1300D02*
D03*
X1025Y905D02*
D03*
X1448Y952D02*
D03*
X3733Y1781D02*
D03*
X3695Y600D02*
D03*
X3978Y2689D02*
D03*
X3976Y2206D02*
D03*
X3835Y1990D02*
D03*
X2505D02*
D03*
X3980Y2145D02*
D03*
X3895Y1321D02*
D03*
X3859Y1371D02*
D03*
X2751Y1127D02*
D03*
X3865Y1241D02*
D03*
X4345Y1336D02*
D03*
X3835Y769D02*
D03*
X3985Y1120D02*
D03*
X2833Y459D02*
D03*
X1358Y2936D02*
D03*
X1113Y1190D02*
D03*
X1142Y3100D02*
D03*
X1098Y2600D02*
D03*
X1276Y1323D02*
D03*
X1450Y1780D02*
D03*
X2371Y1335D02*
D03*
X3804Y1315D02*
D03*
X1205Y261D02*
D03*
X4385Y2374D02*
D03*
X4425Y281D02*
D03*
X3507Y1934D02*
D03*
X1835Y790D02*
D03*
X2000Y2880D02*
D03*
X2585Y1323D02*
D03*
X3875Y1759D02*
D03*
X3976Y1718D02*
D03*
X3895Y1467D02*
D03*
X2708Y570D02*
D03*
X1755Y2635D02*
D03*
X1774Y1014D02*
D03*
X1352Y260D02*
D03*
X1409Y805D02*
D03*
X3550Y1814D02*
D03*
X3465D02*
D03*
X2118Y1248D02*
D03*
X3875Y1610D02*
D03*
X3996Y1853D02*
D03*
X1086Y1790D02*
D03*
X1314Y1655D02*
D03*
X2791Y2622D02*
D03*
X2452Y1181D02*
D03*
X4532Y2334D02*
D03*
X696Y1945D02*
D03*
X636Y1925D02*
D03*
X1205Y1962D02*
D03*
X1285Y1944D02*
D03*
X2947Y1119D02*
D03*
X3855Y1024D02*
D03*
X2772Y2181D02*
D03*
X3115D02*
D03*
X1792Y310D02*
D03*
X4508Y289D02*
D03*
X4492Y1733D02*
D03*
X1887Y384D02*
D03*
X1516Y341D02*
D03*
X3875Y1136D02*
D03*
X3795Y709D02*
D03*
X3825Y381D02*
D03*
X3732Y407D02*
D03*
M02*
