G04 Layer_Color=255*
%FSLAX23Y23*%
%MOIN*%
G70*
G01*
G75*
%ADD11R,0.059X0.059*%
%ADD12C,0.059*%
%ADD13R,0.059X0.059*%
%ADD14C,0.059*%
%ADD15R,0.059X0.059*%
D11*
X1585Y1635D02*
D03*
X2335D02*
D03*
X450Y1815D02*
D03*
X2775Y1480D02*
D03*
X2000D02*
D03*
X1250D02*
D03*
D12*
X1585Y1735D02*
D03*
Y1835D02*
D03*
X2335Y1735D02*
D03*
Y1835D02*
D03*
X550Y415D02*
D03*
Y515D02*
D03*
Y615D02*
D03*
Y715D02*
D03*
Y815D02*
D03*
Y915D02*
D03*
Y1015D02*
D03*
Y1115D02*
D03*
Y1215D02*
D03*
Y1315D02*
D03*
Y1415D02*
D03*
Y1515D02*
D03*
Y1615D02*
D03*
Y1715D02*
D03*
Y1815D02*
D03*
X450Y415D02*
D03*
Y515D02*
D03*
Y615D02*
D03*
Y715D02*
D03*
Y815D02*
D03*
Y915D02*
D03*
Y1015D02*
D03*
Y1115D02*
D03*
Y1215D02*
D03*
Y1315D02*
D03*
Y1415D02*
D03*
Y1515D02*
D03*
Y1615D02*
D03*
Y1715D02*
D03*
X4380Y525D02*
D03*
X4280D02*
D03*
X4180D02*
D03*
X4080D02*
D03*
X3980D02*
D03*
X4380Y425D02*
D03*
X4280D02*
D03*
X4180D02*
D03*
X4080D02*
D03*
X4380Y1035D02*
D03*
X4280D02*
D03*
X4180D02*
D03*
X4080D02*
D03*
X3980D02*
D03*
X4380Y935D02*
D03*
X4280D02*
D03*
X4180D02*
D03*
X4080D02*
D03*
X4380Y1570D02*
D03*
X4280D02*
D03*
X4180D02*
D03*
X4080D02*
D03*
X3980D02*
D03*
X4380Y1470D02*
D03*
X4280D02*
D03*
X4180D02*
D03*
X4080D02*
D03*
X4380Y2080D02*
D03*
X4280D02*
D03*
X4180D02*
D03*
X4080D02*
D03*
X3980D02*
D03*
X4380Y1980D02*
D03*
X4280D02*
D03*
X4180D02*
D03*
X4080D02*
D03*
X4380Y2600D02*
D03*
X4280D02*
D03*
X4180D02*
D03*
X4080D02*
D03*
X3980D02*
D03*
X4380Y2500D02*
D03*
X4280D02*
D03*
X4180D02*
D03*
X4080D02*
D03*
X4380Y3100D02*
D03*
X4280D02*
D03*
X4180D02*
D03*
X4080D02*
D03*
X3980D02*
D03*
X4380Y3000D02*
D03*
X4280D02*
D03*
X4180D02*
D03*
X4080D02*
D03*
X2675Y1880D02*
D03*
Y1780D02*
D03*
Y1680D02*
D03*
Y1580D02*
D03*
Y1480D02*
D03*
X2775Y1880D02*
D03*
Y1780D02*
D03*
Y1680D02*
D03*
Y1580D02*
D03*
X1900Y1880D02*
D03*
Y1780D02*
D03*
Y1680D02*
D03*
Y1580D02*
D03*
Y1480D02*
D03*
X2000Y1880D02*
D03*
Y1780D02*
D03*
Y1680D02*
D03*
Y1580D02*
D03*
X1150Y1880D02*
D03*
Y1780D02*
D03*
Y1680D02*
D03*
Y1580D02*
D03*
Y1480D02*
D03*
X1250Y1880D02*
D03*
Y1780D02*
D03*
Y1680D02*
D03*
Y1580D02*
D03*
D13*
X3980Y425D02*
D03*
Y935D02*
D03*
Y1470D02*
D03*
Y1980D02*
D03*
Y2500D02*
D03*
Y3000D02*
D03*
D14*
X3080Y1055D02*
D03*
Y955D02*
D03*
Y855D02*
D03*
Y755D02*
D03*
Y655D02*
D03*
Y555D02*
D03*
Y455D02*
D03*
X3380Y1055D02*
D03*
Y955D02*
D03*
Y855D02*
D03*
Y755D02*
D03*
Y655D02*
D03*
Y555D02*
D03*
X2630Y1055D02*
D03*
Y955D02*
D03*
Y855D02*
D03*
Y755D02*
D03*
Y655D02*
D03*
Y555D02*
D03*
Y455D02*
D03*
X2930Y1055D02*
D03*
Y955D02*
D03*
Y855D02*
D03*
Y755D02*
D03*
Y655D02*
D03*
Y555D02*
D03*
X2160Y1055D02*
D03*
Y955D02*
D03*
Y855D02*
D03*
Y755D02*
D03*
Y655D02*
D03*
Y555D02*
D03*
Y455D02*
D03*
X2460Y1055D02*
D03*
Y955D02*
D03*
Y855D02*
D03*
Y755D02*
D03*
Y655D02*
D03*
Y555D02*
D03*
X1710Y1055D02*
D03*
Y955D02*
D03*
Y855D02*
D03*
Y755D02*
D03*
Y655D02*
D03*
Y555D02*
D03*
Y455D02*
D03*
X2010Y1055D02*
D03*
Y955D02*
D03*
Y855D02*
D03*
Y755D02*
D03*
Y655D02*
D03*
Y555D02*
D03*
X1250Y1055D02*
D03*
Y955D02*
D03*
Y855D02*
D03*
Y755D02*
D03*
Y655D02*
D03*
Y555D02*
D03*
Y455D02*
D03*
X1550Y1055D02*
D03*
Y955D02*
D03*
Y855D02*
D03*
Y755D02*
D03*
Y655D02*
D03*
Y555D02*
D03*
X810Y1055D02*
D03*
Y955D02*
D03*
Y855D02*
D03*
Y755D02*
D03*
Y655D02*
D03*
Y555D02*
D03*
Y455D02*
D03*
X1110Y1055D02*
D03*
Y955D02*
D03*
Y855D02*
D03*
Y755D02*
D03*
Y655D02*
D03*
Y555D02*
D03*
X3250Y3035D02*
D03*
Y2935D02*
D03*
Y2835D02*
D03*
Y2735D02*
D03*
Y2635D02*
D03*
Y2535D02*
D03*
Y2435D02*
D03*
Y2335D02*
D03*
X3550Y3035D02*
D03*
Y2935D02*
D03*
Y2835D02*
D03*
Y2735D02*
D03*
Y2635D02*
D03*
Y2535D02*
D03*
Y2435D02*
D03*
X2680Y3035D02*
D03*
Y2935D02*
D03*
Y2835D02*
D03*
Y2735D02*
D03*
Y2635D02*
D03*
Y2535D02*
D03*
Y2435D02*
D03*
Y2335D02*
D03*
X2980Y3035D02*
D03*
Y2935D02*
D03*
Y2835D02*
D03*
Y2735D02*
D03*
Y2635D02*
D03*
Y2535D02*
D03*
Y2435D02*
D03*
X2090Y3035D02*
D03*
Y2935D02*
D03*
Y2835D02*
D03*
Y2735D02*
D03*
Y2635D02*
D03*
Y2535D02*
D03*
Y2435D02*
D03*
Y2335D02*
D03*
X2390Y3035D02*
D03*
Y2935D02*
D03*
Y2835D02*
D03*
Y2735D02*
D03*
Y2635D02*
D03*
Y2535D02*
D03*
Y2435D02*
D03*
X1520Y3035D02*
D03*
Y2935D02*
D03*
Y2835D02*
D03*
Y2735D02*
D03*
Y2635D02*
D03*
Y2535D02*
D03*
Y2435D02*
D03*
Y2335D02*
D03*
X1820Y3035D02*
D03*
Y2935D02*
D03*
Y2835D02*
D03*
Y2735D02*
D03*
Y2635D02*
D03*
Y2535D02*
D03*
Y2435D02*
D03*
X940Y3035D02*
D03*
Y2935D02*
D03*
Y2835D02*
D03*
Y2735D02*
D03*
Y2635D02*
D03*
Y2535D02*
D03*
Y2435D02*
D03*
Y2335D02*
D03*
X1240Y3035D02*
D03*
Y2935D02*
D03*
Y2835D02*
D03*
Y2735D02*
D03*
Y2635D02*
D03*
Y2535D02*
D03*
Y2435D02*
D03*
X385Y3035D02*
D03*
Y2935D02*
D03*
Y2835D02*
D03*
Y2735D02*
D03*
Y2635D02*
D03*
Y2535D02*
D03*
Y2435D02*
D03*
Y2335D02*
D03*
X685Y3035D02*
D03*
Y2935D02*
D03*
Y2835D02*
D03*
Y2735D02*
D03*
Y2635D02*
D03*
Y2535D02*
D03*
Y2435D02*
D03*
D15*
X3380Y455D02*
D03*
X2930D02*
D03*
X2460D02*
D03*
X2010D02*
D03*
X1550D02*
D03*
X1110D02*
D03*
X3550Y2335D02*
D03*
X2980D02*
D03*
X2390D02*
D03*
X1820D02*
D03*
X1240D02*
D03*
X685D02*
D03*
M02*
