G04 Layer_Physical_Order=2*
G04 Layer_Color=16711680*
%FSLAX23Y23*%
%MOIN*%
G70*
G01*
G75*
%ADD10C,0.010*%
%ADD11R,0.059X0.059*%
%ADD12C,0.059*%
%ADD13R,0.059X0.059*%
%ADD14C,0.059*%
%ADD15R,0.059X0.059*%
%ADD16C,0.050*%
D10*
X260Y1140D02*
Y1418D01*
X405Y3457D02*
X448Y3500D01*
X405Y3365D02*
Y3457D01*
X160Y3120D02*
X405Y3365D01*
X130Y3120D02*
X160D01*
X2445Y3500D02*
Y3532D01*
X2422Y3555D02*
X2445Y3532D01*
X2388Y3555D02*
X2422D01*
X2365Y3532D02*
X2388Y3555D01*
X2365Y3500D02*
Y3532D01*
X2005Y3500D02*
X2365D01*
X1975Y3530D02*
X2005Y3500D01*
X1925Y3530D02*
X1975D01*
X1895Y3500D02*
X1925Y3530D01*
X448Y3500D02*
X1895D01*
X550Y3420D02*
X3185D01*
X285Y3155D02*
X550Y3420D01*
X1960Y3460D02*
X3168D01*
X623Y3385D02*
X4480D01*
X635Y3360D02*
X4435D01*
X1950Y3470D02*
X1970D01*
X1933Y3510D02*
X1967D01*
X1873Y3450D02*
X1933Y3510D01*
X2405Y3480D02*
Y3515D01*
X2445Y3500D02*
X2615D01*
X1997Y3480D02*
X2405D01*
X455Y3450D02*
X1873D01*
X1967Y3510D02*
X1997Y3480D01*
X3185Y3420D02*
X3200Y3435D01*
X320Y3082D02*
X623Y3385D01*
X3168Y3460D02*
X3183Y3475D01*
X3240Y3450D02*
X3245Y3445D01*
X3240Y3450D02*
Y3452D01*
X3217Y3475D02*
X3240Y3452D01*
X3183Y3475D02*
X3217D01*
X3245Y3445D02*
X4500D01*
X4280Y1915D02*
X4435Y1760D01*
X1960Y3460D02*
X1960Y3460D01*
X1960Y3460D02*
X1970Y3470D01*
X4481Y2470D02*
Y3386D01*
X4480Y3385D02*
X4481Y3386D01*
X4420Y3345D02*
X4435Y3360D01*
X340Y3065D02*
X635Y3360D01*
X4425Y2545D02*
Y3214D01*
X4349Y3290D02*
X4425Y3214D01*
X811Y3290D02*
X4349D01*
X4445Y2485D02*
Y3222D01*
X4343Y3324D02*
X4445Y3222D01*
X1451Y3325D02*
X4343Y3324D01*
X675Y3325D02*
X1451D01*
X385Y3035D02*
X675Y3325D01*
X620Y3100D02*
X811Y3290D01*
X640Y3065D02*
X830Y3255D01*
X4197D02*
X4230Y3222D01*
X830Y3255D02*
X4197D01*
X4121Y3205D02*
X4180Y3146D01*
X3705Y3205D02*
X4121D01*
X3670Y3170D02*
X3705Y3205D01*
X1560Y3170D02*
X3670D01*
X1142Y3100D02*
X2432D01*
X1285Y3080D02*
X1775D01*
X3570Y3103D02*
X3595Y3078D01*
X2535Y3103D02*
X3570D01*
X2520Y3088D02*
X2535Y3103D01*
X2444Y3088D02*
X2520D01*
X2432Y3100D02*
X2444Y3088D01*
X1775Y3080D02*
X1820Y3035D01*
X2345Y3080D02*
X2390Y3035D01*
X1865Y3080D02*
X2345D01*
X1820Y3035D02*
X1865Y3080D01*
X2935D02*
X2980Y3035D01*
X2557Y3080D02*
X2935D01*
X2512Y3035D02*
X2557Y3080D01*
X3505D02*
X3550Y3035D01*
X3025Y3080D02*
X3505D01*
X2980Y3035D02*
X3025Y3080D01*
X3595Y2880D02*
Y3078D01*
X1455Y3128D02*
X2495D01*
X1435Y3148D02*
X1455Y3128D01*
X2390Y3035D02*
X2512D01*
X955Y3210D02*
X2460D01*
X955D02*
X955Y3210D01*
X845Y3100D02*
X955Y3210D01*
X1240Y3035D02*
X1285Y3080D01*
X130Y3120D02*
X145Y3105D01*
X185Y2635D02*
X385Y2835D01*
X254Y1681D02*
X270Y1665D01*
X4550Y150D02*
X4605Y205D01*
X1316Y150D02*
X4550D01*
X1205Y261D02*
X1316Y150D01*
X3935Y3055D02*
X3980Y3100D01*
X3935Y2645D02*
Y3055D01*
X3878Y2280D02*
X3925D01*
X3873Y2285D02*
X3878Y2280D01*
X3839Y2285D02*
X3873D01*
X3834Y2280D02*
X3839Y2285D01*
X3255Y2280D02*
X3834D01*
X3925D02*
X3935Y2290D01*
X2900Y2335D02*
X2915Y2320D01*
X2680Y2335D02*
X2900D01*
X2345Y2280D02*
X2680D01*
X2345D02*
Y2315D01*
X2325Y2335D02*
X2345Y2315D01*
X2090Y2335D02*
X2325D01*
X1520Y2285D02*
Y2335D01*
X1245Y2285D02*
X1520D01*
X380Y2330D02*
X605D01*
X380Y2330D02*
X380Y2330D01*
X605D02*
X655Y2280D01*
X935D01*
X940Y2335D02*
X1160D01*
Y2335D02*
Y2335D01*
Y2335D02*
X1210Y2285D01*
X430Y2480D02*
X2715D01*
X1250Y1966D02*
Y2285D01*
X1245Y1961D02*
X1250Y1966D01*
X1245Y1927D02*
Y1961D01*
Y1927D02*
X1250Y1922D01*
Y1880D02*
Y1922D01*
X1210Y2285D02*
X1250D01*
X1200Y1830D02*
X1250Y1880D01*
X1955Y1535D02*
Y1835D01*
X1900Y1480D02*
X1955Y1535D01*
X1945Y1435D02*
X2335D01*
X1936Y1444D02*
X1945Y1435D01*
X1900Y1480D02*
X1936Y1444D01*
X860Y1732D02*
X1102D01*
X647D02*
X860D01*
X530Y1670D02*
X798D01*
X1078Y2580D02*
X2820D01*
X430D02*
X1078D01*
X1995Y1880D02*
Y2280D01*
X1210Y2285D02*
X1225D01*
X1955Y1545D02*
Y1840D01*
X1585Y1435D02*
X1855D01*
X1195D02*
X1585D01*
X2650Y2380D02*
X2915D01*
X1961D02*
X2650D01*
X2865Y1870D02*
X2929Y1934D01*
X2930Y1055D02*
X2983D01*
X3028Y1100D01*
X3111D01*
X3156Y1055D01*
X3380D01*
X1550D02*
X1595Y1100D01*
X1965D01*
X2010Y1055D01*
X1505Y1100D02*
X1550Y1055D01*
X1232Y1100D02*
X1505D01*
X1187Y1055D02*
X1232Y1100D01*
X1110Y1055D02*
X1187D01*
X1102Y1732D02*
X1150Y1780D01*
X798Y1670D02*
X860Y1732D01*
X495Y1635D02*
X530Y1670D01*
X495Y1585D02*
Y1635D01*
X474Y1564D02*
X495Y1585D01*
X430Y1564D02*
X474D01*
X405Y1539D02*
X430Y1564D01*
X405Y1495D02*
Y1539D01*
Y1495D02*
X440Y1460D01*
X570D01*
X595Y1435D01*
Y1384D02*
Y1435D01*
X570Y1360D02*
X595Y1384D01*
X505Y1360D02*
X570D01*
X495Y1260D02*
X505Y1360D01*
X450Y1215D02*
X495Y1260D01*
X614Y1699D02*
X647Y1732D01*
X616Y1630D02*
X635Y1649D01*
X899D01*
X955Y1705D01*
X1025D01*
X1150Y1580D01*
X1130Y1357D02*
X1195D01*
X1076Y1411D02*
X1130Y1357D01*
X885Y1411D02*
X1076D01*
X669Y1195D02*
X885Y1411D01*
X594Y1195D02*
X669D01*
X569Y1170D02*
X594Y1195D01*
X505Y1170D02*
X569D01*
X450Y1115D02*
X505Y1170D01*
X3550Y2635D02*
X3783D01*
X3793Y2645D01*
X4380Y2500D02*
X4425Y2545D01*
X620Y2975D02*
Y3100D01*
Y2975D02*
X655Y2965D01*
X685Y2935D01*
X1250Y755D02*
X1321Y826D01*
Y965D01*
X1278Y1008D02*
X1321Y965D01*
X1065Y1008D02*
X1278D01*
X4415Y2455D02*
X4445Y2485D01*
X4325Y2455D02*
X4415D01*
X4280Y2500D02*
X4325Y2455D01*
X4180Y2500D02*
X4230Y2550D01*
Y2867D01*
X4325Y2962D01*
Y3045D01*
X4250Y3050D02*
X4325Y3045D01*
X4230Y3070D02*
X4250Y3050D01*
X4230Y3070D02*
Y3222D01*
X640Y2991D02*
Y3065D01*
Y2991D02*
X710Y2990D01*
X730Y2970D01*
Y2910D02*
Y2970D01*
X710Y2890D02*
X730Y2910D01*
X430Y2890D02*
X710D01*
X385Y2935D02*
X430Y2890D01*
Y2780D02*
Y2860D01*
X410Y2880D02*
X430Y2860D01*
X368Y2880D02*
X410D01*
X340Y2908D02*
X368Y2880D01*
X340Y2908D02*
Y3065D01*
X735Y2780D02*
X838Y2883D01*
X430Y2780D02*
X735D01*
X385Y2735D02*
X430Y2780D01*
X755Y2690D02*
X770Y2675D01*
X440Y2690D02*
X755D01*
X385Y2635D02*
X440Y2690D01*
X770Y2675D02*
X775Y2680D01*
X3640D01*
X3709Y2749D01*
Y3133D01*
X3749Y3173D01*
X4081D01*
X4125Y3129D01*
Y2980D02*
Y3129D01*
Y2980D02*
X4150Y2955D01*
X4235D01*
X4280Y3000D01*
X2820Y2580D02*
X2920Y2480D01*
X3697D01*
X3833Y2616D01*
Y2943D01*
X581Y2245D02*
X1205D01*
X85Y1749D02*
X581Y2245D01*
X85Y1180D02*
Y1749D01*
Y1180D02*
X450Y815D01*
X1111Y2005D02*
X1145Y1971D01*
X397Y2005D02*
X1111D01*
X105Y1713D02*
X397Y2005D01*
X105Y1260D02*
Y1713D01*
Y1260D02*
X450Y915D01*
X1250Y1780D02*
X1451Y1981D01*
X1158Y2835D02*
X1240D01*
X1113Y2880D02*
X1158Y2835D01*
X920Y2880D02*
X1113D01*
X847Y2953D02*
X920Y2880D01*
X940Y2935D02*
X1150D01*
X1195Y2890D01*
X1367D01*
X1368Y2891D01*
X1447D01*
X1458Y2880D01*
X1565D01*
X1605Y2840D01*
X1695D01*
X1850Y905D02*
X1919Y974D01*
X1600Y905D02*
X1850D01*
X1550Y955D02*
X1600Y905D01*
X1065Y510D02*
X1615D01*
X952Y623D02*
X1065Y510D01*
X450Y1515D02*
X485D01*
X540Y1570D01*
X909D01*
X966Y1627D01*
X1045Y2402D02*
X1062Y2385D01*
X1885D01*
X383Y1598D02*
X386Y1601D01*
X383Y1482D02*
Y1598D01*
Y1482D02*
X450Y1415D01*
X2175Y2225D02*
X2195Y2245D01*
X3856D01*
X3975Y2293D02*
X4235D01*
X2070Y2880D02*
X2535D01*
X1618D02*
X1910D01*
X1563Y2935D02*
X1618Y2880D01*
X1520Y2935D02*
X1563D01*
X3826Y1456D02*
X3915Y1545D01*
Y2045D01*
X3875Y2085D02*
X3915Y2045D01*
X2545Y2085D02*
X3875D01*
X2020Y2830D02*
X2070Y2880D01*
X1960Y2830D02*
X2020D01*
X1910Y2880D02*
X1960Y2830D01*
X1407Y2851D02*
X1423Y2835D01*
X1520D01*
X2290Y2081D02*
X2379D01*
X2422Y2038D01*
X3850D01*
X3875Y2013D01*
Y1833D02*
Y2013D01*
X3993Y1652D02*
X4030Y1615D01*
Y1520D02*
Y1615D01*
Y1520D02*
X4080Y1470D01*
X2339Y2040D02*
X2380Y1999D01*
Y1811D02*
Y1999D01*
X2349Y1780D02*
X2380Y1811D01*
X2200Y1780D02*
X2349D01*
X2000Y1580D02*
X2200Y1780D01*
X2306Y2189D02*
X2379D01*
X2250Y2133D02*
X2306Y2189D01*
X2250Y2060D02*
Y2133D01*
Y2060D02*
X2350Y1960D01*
Y1925D02*
Y1960D01*
X2249Y1824D02*
X2350Y1925D01*
X2144Y1824D02*
X2249D01*
X2000Y1680D02*
X2144Y1824D01*
X161Y1405D02*
X218Y1462D01*
X310D01*
X321Y1221D01*
X372Y1170D01*
X470D01*
X505Y1205D01*
Y1235D01*
X530Y1260D01*
X570D01*
X615Y1305D01*
Y1450D01*
X550Y1515D02*
X615Y1450D01*
X2134Y2295D02*
X2296D01*
X2078Y2239D02*
X2134Y2295D01*
X2049Y2239D02*
X2078D01*
X2015Y2205D02*
X2049Y2239D01*
X2015Y2156D02*
Y2205D01*
Y2156D02*
X2083Y2088D01*
Y1863D02*
Y2088D01*
X2000Y1780D02*
X2083Y1863D01*
X2390Y2835D02*
X2580D01*
X2613Y2868D01*
X145Y1689D02*
X363Y1471D01*
Y1416D02*
Y1471D01*
Y1416D02*
X409Y1370D01*
X476D01*
X485Y1380D01*
X515D01*
X550Y1415D01*
X2256Y2935D02*
X2390D01*
Y885D02*
X2460Y955D01*
X2244Y885D02*
X2390D01*
X2055Y2162D02*
X2292Y1925D01*
X2055Y2162D02*
Y2182D01*
X1849Y2184D02*
X1985Y2320D01*
X1704Y2184D02*
X1849D01*
X2945Y2370D02*
X2980Y2335D01*
X2925Y2370D02*
X2945D01*
X2616Y2346D02*
X2650Y2380D01*
X2616Y2320D02*
Y2346D01*
X2463Y1780D02*
X2675D01*
X1450Y1335D02*
X2285D01*
X1390Y1275D02*
X1450Y1335D01*
X1350Y1275D02*
X1390D01*
X1338Y1263D02*
X1350Y1275D01*
X1009Y1263D02*
X1338D01*
X845Y1100D02*
X1009Y1263D01*
X786Y1100D02*
X845D01*
X601Y915D02*
X786Y1100D01*
X550Y915D02*
X601D01*
X2955Y2460D02*
X2980Y2435D01*
X2830Y2460D02*
X2955D01*
X2812Y2478D02*
X2830Y2460D01*
X260Y1140D02*
X430Y970D01*
X470D01*
X515Y1015D01*
X550D01*
X2918Y2773D02*
X2980Y2835D01*
X2705Y2773D02*
X2918D01*
X2698Y2780D02*
X2705Y2773D01*
X816Y2780D02*
X2698D01*
X775Y2739D02*
X816Y2780D01*
X591Y715D02*
X673Y797D01*
X550Y715D02*
X591D01*
X3080Y755D02*
X3125Y800D01*
X3783D01*
X3795Y812D01*
X3860D01*
X3875Y797D01*
Y408D02*
Y797D01*
Y408D02*
X3922Y360D01*
X4191D01*
X4235Y405D01*
Y445D01*
X4260Y470D01*
X4335D01*
X4380Y425D01*
X3337Y2981D02*
X3386Y2932D01*
X2726Y2981D02*
X3337D01*
X2680Y2935D02*
X2726Y2981D01*
X2731Y2886D02*
X2842D01*
X2680Y2835D02*
X2731Y2886D01*
X2630Y1055D02*
X2858D01*
X2886Y1083D01*
Y1139D01*
X2907Y1160D01*
X2967D01*
X2987Y1140D01*
X3156D01*
X3165Y1131D01*
X3671D01*
X3706Y1096D01*
X3850D01*
X3895Y1051D01*
Y959D02*
Y1051D01*
X3875Y939D02*
X3895Y959D01*
X3976Y822D02*
X4167D01*
X4280Y935D01*
X2800Y1162D02*
X2858Y1220D01*
X3201D01*
X3230Y1191D01*
X3796D01*
X4230Y1005D02*
Y1200D01*
X4210Y985D02*
X4230Y1005D01*
X4130Y985D02*
X4210D01*
X4080Y935D02*
X4130Y985D01*
X660Y651D02*
X706Y605D01*
X823D01*
X883Y665D01*
X1012D01*
X1067Y610D01*
X2706D01*
X2728Y632D01*
X550Y1215D02*
X610D01*
X826Y1431D01*
X1139D01*
X1155Y1415D01*
X3183D01*
X3461Y1693D01*
X2775Y1780D02*
X2865Y1870D01*
X3570D01*
X3590Y1850D01*
Y1751D02*
Y1850D01*
X3223Y1384D02*
X3590Y1751D01*
X2570Y1384D02*
X3223D01*
X2491Y1305D02*
X2570Y1384D01*
X2431Y1305D02*
X2491D01*
X2411Y1325D02*
X2431Y1305D01*
X2411Y1325D02*
Y1354D01*
X2390Y1375D02*
X2411Y1354D01*
X1400Y1375D02*
X2390D01*
X1358Y1333D02*
X1400Y1375D01*
X958Y1371D02*
X1050D01*
X758Y1171D02*
X958Y1371D01*
X606Y1171D02*
X758D01*
X550Y1115D02*
X606Y1171D01*
X2759Y2813D02*
X2856D01*
X2923Y2880D01*
X3105D01*
X3250Y2735D01*
X540Y325D02*
X1432D01*
X450Y415D02*
X540Y325D01*
X505Y460D02*
X550Y415D01*
X430Y460D02*
X505D01*
X405Y485D02*
X430Y460D01*
X405Y485D02*
Y736D01*
X430Y761D01*
X474D01*
X498Y785D01*
Y945D01*
X518Y965D01*
X595D01*
X754Y1124D01*
X841D01*
X1000Y1283D01*
X1296D01*
X1318Y1305D01*
Y1365D01*
X1348Y1395D01*
X2423D01*
X2463Y1355D01*
X2722Y1300D02*
X3652D01*
X2663Y1241D02*
X2722Y1300D01*
X2411Y1241D02*
X2663D01*
X2385Y1215D02*
X2411Y1241D01*
X2293Y1215D02*
X2385D01*
X2281Y1203D02*
X2293Y1215D01*
X1226Y1203D02*
X2281D01*
X1153Y1130D02*
X1226Y1203D01*
X1075Y1130D02*
X1153D01*
X1002Y1057D02*
X1075Y1130D01*
X1002Y928D02*
Y1057D01*
Y928D02*
X1025Y905D01*
X1110Y755D02*
X1160Y705D01*
X1335D01*
X1367Y737D01*
Y871D01*
X1448Y952D01*
X4180Y3100D02*
Y3146D01*
X810Y855D02*
X981Y1026D01*
Y1084D01*
X1047Y1150D01*
X1133D01*
X1206Y1223D01*
X1378D01*
X1390Y1235D01*
X1460D01*
X1520Y1295D01*
X2185D01*
X2225Y1255D01*
X2345D01*
X2373Y1283D01*
X2636D01*
X2693Y1340D01*
X3292D01*
X3733Y1781D01*
X1550Y755D02*
X1605Y700D01*
X2776D01*
X2876Y600D01*
X3695D01*
X3978Y2689D02*
X4091D01*
X4180Y2600D01*
Y2080D02*
X4225Y2035D01*
X4415D01*
X4425Y2045D01*
Y2160D01*
X4379Y2206D02*
X4425Y2160D01*
X3976Y2206D02*
X4379D01*
X2505Y1990D02*
X3835D01*
X4315Y2145D02*
X4380Y2080D01*
X3980Y2145D02*
X4315D01*
X3895Y1321D02*
X3915Y1301D01*
Y914D02*
Y1301D01*
X3900Y899D02*
X3915Y914D01*
X3835Y899D02*
X3900D01*
X3734Y1000D02*
X3835Y899D01*
X3290Y1000D02*
X3734D01*
X3200Y910D02*
X3290Y1000D01*
X3050Y910D02*
X3200D01*
X2940Y800D02*
X3050Y910D01*
X2505Y800D02*
X2940D01*
X2460Y755D02*
X2505Y800D01*
X3855Y1367D02*
X3859Y1371D01*
X3855Y1299D02*
Y1367D01*
X3830Y1274D02*
X3855Y1299D01*
X3795Y1274D02*
X3830D01*
X3733Y1212D02*
X3795Y1274D01*
X3245Y1212D02*
X3733D01*
X3218Y1240D02*
X3245Y1212D01*
X2819Y1240D02*
X3218D01*
X2761Y1181D02*
X2819Y1240D01*
X2723Y1181D02*
X2761D01*
X2663Y1121D02*
X2723Y1181D01*
X2421Y1121D02*
X2663D01*
X2205Y905D02*
X2421Y1121D01*
X2160Y855D02*
X2205Y905D01*
X2751Y1127D02*
X2756Y1122D01*
X2823D01*
X2846Y1145D01*
Y1176D01*
X2870Y1200D01*
X3186D01*
X3214Y1171D01*
X3724D01*
X3748Y1147D01*
X3811D01*
X3865Y1201D01*
Y1241D01*
X4345Y1336D02*
X4425Y1416D01*
Y1525D01*
X4380Y1570D02*
X4425Y1525D01*
X2930Y755D02*
X2980Y705D01*
X3722D01*
X3758Y669D01*
X3822D01*
X3835Y682D01*
Y769D01*
X3985Y1120D02*
X4095D01*
X4180Y1035D01*
X2630Y555D02*
X2726Y459D01*
X2833D01*
X4219Y586D02*
X4280Y525D01*
X4050Y586D02*
X4219D01*
X4030Y566D02*
X4050Y586D01*
X4030Y500D02*
Y566D01*
X4010Y480D02*
X4030Y500D01*
X3960Y480D02*
X4010D01*
X3915Y525D02*
X3960Y480D01*
X3915Y525D02*
Y875D01*
X3452Y878D02*
X3915Y875D01*
X3430Y900D02*
X3452Y878D01*
X3222Y900D02*
X3430D01*
X3177Y855D02*
X3222Y900D01*
X3080Y855D02*
X3177D01*
X4380Y525D02*
X4425Y480D01*
Y405D02*
Y480D01*
X4400Y380D02*
X4425Y405D01*
X4295Y380D02*
X4400D01*
X4255Y340D02*
X4295Y380D01*
X3379Y340D02*
X4255D01*
X3164Y555D02*
X3379Y340D01*
X3080Y555D02*
X3164D01*
X2630Y455D02*
X2675Y410D01*
X3035D01*
X3080Y455D01*
X2160D02*
X2205Y410D01*
X2585D01*
X2630Y455D01*
X1665Y410D02*
X1710Y455D01*
X1295Y410D02*
X1665D01*
X1250Y455D02*
X1295Y410D01*
X1205D02*
X1250Y455D01*
X855Y410D02*
X1205D01*
X810Y455D02*
X855Y410D01*
X940Y3035D02*
X990Y2985D01*
X1309D01*
X1358Y2936D01*
X550Y615D02*
X765Y830D01*
Y875D01*
X790Y900D01*
X824D01*
X879Y955D01*
Y1016D01*
X1053Y1190D01*
X1113D01*
X3550Y2835D02*
X3595Y2880D01*
X385Y2535D02*
X430Y2580D01*
X1078D02*
X1098Y2600D01*
X450Y1015D02*
X505Y1070D01*
X581D01*
X655Y1144D01*
X762D01*
X935Y1317D01*
X1270D01*
X1276Y1323D01*
X1250Y1780D02*
X1450D01*
X505Y560D02*
X550Y515D01*
X505Y560D02*
Y735D01*
X530Y760D01*
X570D01*
X595Y785D01*
Y830D01*
X765Y1000D01*
X830D01*
X1073Y1243D01*
X1356D01*
X1368Y1255D01*
X1440D01*
X1500Y1315D01*
X2237D01*
X2257Y1295D01*
X2331D01*
X2371Y1335D01*
X3721Y1232D02*
X3804Y1315D01*
X3274Y1232D02*
X3721D01*
X3246Y1260D02*
X3274Y1232D01*
X2799Y1260D02*
X3246D01*
X2741Y1201D02*
X2799Y1260D01*
X2703Y1201D02*
X2741D01*
X2643Y1141D02*
X2703Y1201D01*
X2362Y1141D02*
X2643D01*
X2231Y1010D02*
X2362Y1141D01*
X2148Y1010D02*
X2231D01*
X2043Y905D02*
X2148Y1010D01*
X1923Y905D02*
X2043D01*
X1873Y855D02*
X1923Y905D01*
X1710Y855D02*
X1873D01*
X4605Y205D02*
Y2338D01*
X4569Y2374D02*
X4605Y2338D01*
X4385Y2374D02*
X4569D01*
X765Y510D02*
X810Y555D01*
X765Y427D02*
Y510D01*
Y427D02*
X807Y385D01*
X1801D01*
X1840Y424D01*
X1927D01*
X2071Y280D01*
X4424D01*
X4425Y281D01*
X2929Y1934D02*
X3507D01*
X1800Y755D02*
X1835Y790D01*
X1710Y755D02*
X1800D01*
X1820Y2935D02*
X1945D01*
X2000Y2880D01*
X2585Y1323D02*
X2623Y1361D01*
X3242D01*
X3726Y1845D01*
X3789D01*
X3875Y1759D01*
X3976Y1718D02*
X4007D01*
X4080Y1645D01*
Y1570D02*
Y1645D01*
X1200Y905D02*
X1250Y855D01*
X1085Y905D02*
X1200D01*
X1022Y968D02*
X1085Y905D01*
X1022Y968D02*
Y1048D01*
X1080Y1106D01*
X1197D01*
X1234Y1142D01*
X2301D01*
X2354Y1195D01*
X2405D01*
X2431Y1221D01*
X2719D01*
X2778Y1280D01*
X3266D01*
X3294Y1252D01*
X3680D01*
X3895Y1467D01*
X4380Y935D02*
X4445Y870D01*
Y373D02*
Y870D01*
X4432Y360D02*
X4445Y373D01*
X4315Y360D02*
X4432D01*
X4275Y320D02*
X4315Y360D01*
X3358Y320D02*
X4275D01*
X3170Y508D02*
X3358Y320D01*
X2770Y508D02*
X3170D01*
X2708Y570D02*
X2770Y508D01*
X1520Y2635D02*
X1755D01*
X4280Y1915D02*
Y1980D01*
X2110Y1005D02*
X2160Y1055D01*
X1959Y1005D02*
X2110D01*
X1950Y1014D02*
X1959Y1005D01*
X1774Y1014D02*
X1950D01*
X4180Y1843D02*
Y1980D01*
Y1843D02*
X4565Y1458D01*
Y249D02*
Y1458D01*
X4520Y204D02*
X4565Y249D01*
X1408Y204D02*
X4520D01*
X1352Y260D02*
X1408Y204D01*
X1409Y805D02*
X1770D01*
X1795Y830D01*
X1985D01*
X2010Y855D01*
X3510Y1774D02*
X3550Y1814D01*
X2969Y1774D02*
X3510D01*
X2775Y1580D02*
X2969Y1774D01*
X2775Y1680D02*
X2909Y1814D01*
X3465D01*
X2118Y1248D02*
X2131Y1235D01*
X2365D01*
X2391Y1261D01*
X2643D01*
X2702Y1320D01*
X3585D01*
X3875Y1610D01*
X3996Y1853D02*
X4225Y1624D01*
Y1525D02*
Y1624D01*
Y1525D02*
X4280Y1470D01*
X450Y1715D02*
X495Y1760D01*
X1056D01*
X1086Y1790D01*
X1314Y1655D02*
X1399Y1740D01*
X1490D01*
X1540Y1790D01*
Y1870D01*
X1550Y1880D01*
X1900D01*
X2791Y2622D02*
X2808D01*
X2840Y2590D01*
X3205D01*
X3250Y2635D01*
X2010Y1055D02*
X2070D01*
X2115Y1100D01*
X2289D01*
X2364Y1175D01*
X2446D01*
X2452Y1181D01*
X4095Y2334D02*
X4532D01*
X4035Y2394D02*
X4095Y2334D01*
X4035Y2394D02*
Y2555D01*
X4080Y2600D01*
X359Y2861D02*
X385Y2835D01*
X344Y2861D02*
X359D01*
X320Y2885D02*
X344Y2861D01*
X320Y2885D02*
Y3082D01*
X4425Y2414D02*
X4481Y2470D01*
X4166Y2414D02*
X4425D01*
X4080Y2500D02*
X4166Y2414D01*
X761Y1880D02*
X1150D01*
X696Y1945D02*
X761Y1880D01*
X636Y1925D02*
Y1945D01*
X676Y1985D01*
X761D01*
X821Y1925D01*
X1168D01*
X1205Y1962D01*
X1285Y1944D02*
X1571Y2230D01*
X1811D01*
X1961Y2380D01*
X2915D02*
X2925Y2370D01*
X4035Y2035D02*
X4080Y2080D01*
X4035Y1951D02*
Y2035D01*
X3956Y1871D02*
X4035Y1951D01*
X3956Y1793D02*
Y1871D01*
Y1793D02*
X3970Y1779D01*
X4038D01*
X4125Y1692D01*
Y1396D02*
Y1692D01*
Y1396D02*
X4465Y1056D01*
Y365D02*
Y1056D01*
X4440Y340D02*
X4465Y365D01*
X4330Y340D02*
X4440D01*
X4290Y300D02*
X4330Y340D01*
X2165Y300D02*
X4290D01*
X2010Y455D02*
X2165Y300D01*
X2115Y500D02*
X2160Y455D01*
X1755Y500D02*
X2115D01*
X1710Y455D02*
X1755Y500D01*
X2947Y1119D02*
X2948Y1120D01*
X3145D01*
X3154Y1111D01*
X3364D01*
X3375Y1100D01*
X3425D01*
X3501Y1024D01*
X3855D01*
X2772Y2181D02*
X3115D01*
X535Y1715D02*
X550D01*
X485Y1665D02*
X535Y1715D01*
X270Y1665D02*
X485D01*
X1792Y310D02*
X1861Y241D01*
X4460D01*
X4508Y289D01*
X4492Y1733D02*
Y1868D01*
X4380Y1980D02*
X4492Y1868D01*
X2200Y1680D02*
X2675D01*
X2000Y1480D02*
X2200Y1680D01*
X1854Y351D02*
X1887Y384D01*
X1590Y351D02*
X1854D01*
X1497Y258D02*
X1590Y351D01*
X1434Y258D02*
X1497D01*
X1392Y300D02*
X1434Y258D01*
X1327Y300D02*
X1392D01*
X1312Y285D02*
X1327Y300D01*
X1312Y236D02*
Y285D01*
Y236D02*
X1370Y178D01*
X4534D01*
X4585Y229D01*
Y1466D01*
X4225Y1826D02*
X4585Y1466D01*
X4225Y1826D02*
Y2005D01*
X4205Y2025D02*
X4225Y2005D01*
X4125Y2025D02*
X4205D01*
X4080Y1980D02*
X4125Y2025D01*
X1492Y365D02*
X1516Y341D01*
X688Y365D02*
X1492D01*
X583Y470D02*
X688Y365D01*
X530Y470D02*
X583D01*
X485Y515D02*
X530Y470D01*
X450Y515D02*
X485D01*
X2475Y1010D02*
X2630Y855D01*
X2430Y1010D02*
X2475D01*
X2403Y1037D02*
X2430Y1010D01*
X2403Y1037D02*
Y1066D01*
X2438Y1101D01*
X2697D01*
X2711Y1087D01*
X2852D01*
X2866Y1101D01*
Y1159D01*
X2887Y1180D01*
X3007D01*
X3027Y1160D01*
X3176D01*
X3185Y1151D01*
X3691D01*
X3726Y1116D01*
X3855D01*
X3875Y1136D01*
X1112Y3035D02*
X1240D01*
X1067Y3080D02*
X1112Y3035D01*
X885Y3080D02*
X1067D01*
X840Y3035D02*
X885Y3080D01*
X685Y3035D02*
X840D01*
X3380Y755D02*
X3749D01*
X3795Y709D01*
X3380Y555D02*
X3487Y448D01*
X3758D01*
X3825Y381D01*
X3380Y455D02*
X3428Y407D01*
X3732D01*
X4135Y470D02*
X4180Y425D01*
X4052Y470D02*
X4135D01*
X4025Y443D02*
X4052Y470D01*
X4025Y380D02*
Y443D01*
X3935Y380D02*
X4025D01*
X3895Y420D02*
X3935Y380D01*
X3895Y420D02*
Y833D01*
X3873Y855D02*
X3895Y833D01*
X3380Y855D02*
X3873D01*
X385Y2435D02*
X430Y2480D01*
X2715D02*
X2764Y2431D01*
X2894D01*
X2935Y2390D01*
X3737D01*
X3873Y2526D01*
Y3088D01*
X3930Y3145D01*
X4005D01*
X4025Y3125D01*
Y3055D02*
Y3125D01*
Y3055D02*
X4080Y3000D01*
X2460Y1055D02*
X2505Y1010D01*
X2885D01*
X2930Y1055D01*
X1450Y1680D02*
X1900D01*
X1250Y1480D02*
X1450Y1680D01*
X3935Y570D02*
X3980Y525D01*
X3935Y570D02*
Y990D01*
X3980Y1035D01*
X3935Y1080D02*
X3980Y1035D01*
X3935Y1080D02*
Y1525D01*
X3980Y1570D01*
X3935Y1615D02*
X3980Y1570D01*
X3935Y1615D02*
Y2035D01*
X3980Y2080D01*
X2955Y2280D02*
X3255D01*
X3935Y2290D02*
Y2555D01*
Y2125D02*
Y2290D01*
X3935Y2645D02*
X3980Y2600D01*
X3935Y2555D02*
X3980Y2600D01*
X3935Y2125D02*
X3980Y2080D01*
X2335Y1435D02*
X2630D01*
X2335D02*
Y1635D01*
X2675Y1480D02*
X2725Y1530D01*
X2630Y1435D02*
X2675Y1480D01*
X2725Y1830D02*
X2775Y1880D01*
X2725Y1530D02*
Y1830D01*
X1200Y1530D02*
Y1830D01*
X870D02*
X1200D01*
X840Y1860D02*
X870Y1830D01*
X495Y1860D02*
X840D01*
X450Y1815D02*
X495Y1860D01*
X1995Y2280D02*
X2090D01*
X1585Y1435D02*
Y1635D01*
X1955Y1840D02*
X1995Y1880D01*
X1855Y1435D02*
X1900Y1480D01*
X1150D02*
X1195Y1435D01*
X1150Y1480D02*
X1200Y1530D01*
X3250Y2285D02*
Y2335D01*
X2945Y2290D02*
X2955Y2280D01*
X2944Y2290D02*
X2945D01*
X2915Y2320D02*
X2944Y2290D01*
X2680Y2280D02*
Y2335D01*
X2090Y2280D02*
Y2335D01*
X940Y2285D02*
Y2335D01*
X935Y2280D02*
X940Y2285D01*
D11*
X1585Y1635D02*
D03*
X2335D02*
D03*
X450Y1815D02*
D03*
X2775Y1480D02*
D03*
X2000D02*
D03*
X1250D02*
D03*
D12*
X1585Y1735D02*
D03*
Y1835D02*
D03*
X2335Y1735D02*
D03*
Y1835D02*
D03*
X550Y415D02*
D03*
Y515D02*
D03*
Y615D02*
D03*
Y715D02*
D03*
Y815D02*
D03*
Y915D02*
D03*
Y1015D02*
D03*
Y1115D02*
D03*
Y1215D02*
D03*
Y1315D02*
D03*
Y1415D02*
D03*
Y1515D02*
D03*
Y1615D02*
D03*
Y1715D02*
D03*
Y1815D02*
D03*
X450Y415D02*
D03*
Y515D02*
D03*
Y615D02*
D03*
Y715D02*
D03*
Y815D02*
D03*
Y915D02*
D03*
Y1015D02*
D03*
Y1115D02*
D03*
Y1215D02*
D03*
Y1315D02*
D03*
Y1415D02*
D03*
Y1515D02*
D03*
Y1615D02*
D03*
Y1715D02*
D03*
X4380Y525D02*
D03*
X4280D02*
D03*
X4180D02*
D03*
X4080D02*
D03*
X3980D02*
D03*
X4380Y425D02*
D03*
X4280D02*
D03*
X4180D02*
D03*
X4080D02*
D03*
X4380Y1035D02*
D03*
X4280D02*
D03*
X4180D02*
D03*
X4080D02*
D03*
X3980D02*
D03*
X4380Y935D02*
D03*
X4280D02*
D03*
X4180D02*
D03*
X4080D02*
D03*
X4380Y1570D02*
D03*
X4280D02*
D03*
X4180D02*
D03*
X4080D02*
D03*
X3980D02*
D03*
X4380Y1470D02*
D03*
X4280D02*
D03*
X4180D02*
D03*
X4080D02*
D03*
X4380Y2080D02*
D03*
X4280D02*
D03*
X4180D02*
D03*
X4080D02*
D03*
X3980D02*
D03*
X4380Y1980D02*
D03*
X4280D02*
D03*
X4180D02*
D03*
X4080D02*
D03*
X4380Y2600D02*
D03*
X4280D02*
D03*
X4180D02*
D03*
X4080D02*
D03*
X3980D02*
D03*
X4380Y2500D02*
D03*
X4280D02*
D03*
X4180D02*
D03*
X4080D02*
D03*
X4380Y3100D02*
D03*
X4280D02*
D03*
X4180D02*
D03*
X4080D02*
D03*
X3980D02*
D03*
X4380Y3000D02*
D03*
X4280D02*
D03*
X4180D02*
D03*
X4080D02*
D03*
X2675Y1880D02*
D03*
Y1780D02*
D03*
Y1680D02*
D03*
Y1580D02*
D03*
Y1480D02*
D03*
X2775Y1880D02*
D03*
Y1780D02*
D03*
Y1680D02*
D03*
Y1580D02*
D03*
X1900Y1880D02*
D03*
Y1780D02*
D03*
Y1680D02*
D03*
Y1580D02*
D03*
Y1480D02*
D03*
X2000Y1880D02*
D03*
Y1780D02*
D03*
Y1680D02*
D03*
Y1580D02*
D03*
X1150Y1880D02*
D03*
Y1780D02*
D03*
Y1680D02*
D03*
Y1580D02*
D03*
Y1480D02*
D03*
X1250Y1880D02*
D03*
Y1780D02*
D03*
Y1680D02*
D03*
Y1580D02*
D03*
D13*
X3980Y425D02*
D03*
Y935D02*
D03*
Y1470D02*
D03*
Y1980D02*
D03*
Y2500D02*
D03*
Y3000D02*
D03*
D14*
X3080Y1055D02*
D03*
Y955D02*
D03*
Y855D02*
D03*
Y755D02*
D03*
Y655D02*
D03*
Y555D02*
D03*
Y455D02*
D03*
X3380Y1055D02*
D03*
Y955D02*
D03*
Y855D02*
D03*
Y755D02*
D03*
Y655D02*
D03*
Y555D02*
D03*
X2630Y1055D02*
D03*
Y955D02*
D03*
Y855D02*
D03*
Y755D02*
D03*
Y655D02*
D03*
Y555D02*
D03*
Y455D02*
D03*
X2930Y1055D02*
D03*
Y955D02*
D03*
Y855D02*
D03*
Y755D02*
D03*
Y655D02*
D03*
Y555D02*
D03*
X2160Y1055D02*
D03*
Y955D02*
D03*
Y855D02*
D03*
Y755D02*
D03*
Y655D02*
D03*
Y555D02*
D03*
Y455D02*
D03*
X2460Y1055D02*
D03*
Y955D02*
D03*
Y855D02*
D03*
Y755D02*
D03*
Y655D02*
D03*
Y555D02*
D03*
X1710Y1055D02*
D03*
Y955D02*
D03*
Y855D02*
D03*
Y755D02*
D03*
Y655D02*
D03*
Y555D02*
D03*
Y455D02*
D03*
X2010Y1055D02*
D03*
Y955D02*
D03*
Y855D02*
D03*
Y755D02*
D03*
Y655D02*
D03*
Y555D02*
D03*
X1250Y1055D02*
D03*
Y955D02*
D03*
Y855D02*
D03*
Y755D02*
D03*
Y655D02*
D03*
Y555D02*
D03*
Y455D02*
D03*
X1550Y1055D02*
D03*
Y955D02*
D03*
Y855D02*
D03*
Y755D02*
D03*
Y655D02*
D03*
Y555D02*
D03*
X810Y1055D02*
D03*
Y955D02*
D03*
Y855D02*
D03*
Y755D02*
D03*
Y655D02*
D03*
Y555D02*
D03*
Y455D02*
D03*
X1110Y1055D02*
D03*
Y955D02*
D03*
Y855D02*
D03*
Y755D02*
D03*
Y655D02*
D03*
Y555D02*
D03*
X3250Y3035D02*
D03*
Y2935D02*
D03*
Y2835D02*
D03*
Y2735D02*
D03*
Y2635D02*
D03*
Y2535D02*
D03*
Y2435D02*
D03*
Y2335D02*
D03*
X3550Y3035D02*
D03*
Y2935D02*
D03*
Y2835D02*
D03*
Y2735D02*
D03*
Y2635D02*
D03*
Y2535D02*
D03*
Y2435D02*
D03*
X2680Y3035D02*
D03*
Y2935D02*
D03*
Y2835D02*
D03*
Y2735D02*
D03*
Y2635D02*
D03*
Y2535D02*
D03*
Y2435D02*
D03*
Y2335D02*
D03*
X2980Y3035D02*
D03*
Y2935D02*
D03*
Y2835D02*
D03*
Y2735D02*
D03*
Y2635D02*
D03*
Y2535D02*
D03*
Y2435D02*
D03*
X2090Y3035D02*
D03*
Y2935D02*
D03*
Y2835D02*
D03*
Y2735D02*
D03*
Y2635D02*
D03*
Y2535D02*
D03*
Y2435D02*
D03*
Y2335D02*
D03*
X2390Y3035D02*
D03*
Y2935D02*
D03*
Y2835D02*
D03*
Y2735D02*
D03*
Y2635D02*
D03*
Y2535D02*
D03*
Y2435D02*
D03*
X1520Y3035D02*
D03*
Y2935D02*
D03*
Y2835D02*
D03*
Y2735D02*
D03*
Y2635D02*
D03*
Y2535D02*
D03*
Y2435D02*
D03*
Y2335D02*
D03*
X1820Y3035D02*
D03*
Y2935D02*
D03*
Y2835D02*
D03*
Y2735D02*
D03*
Y2635D02*
D03*
Y2535D02*
D03*
Y2435D02*
D03*
X940Y3035D02*
D03*
Y2935D02*
D03*
Y2835D02*
D03*
Y2735D02*
D03*
Y2635D02*
D03*
Y2535D02*
D03*
Y2435D02*
D03*
Y2335D02*
D03*
X1240Y3035D02*
D03*
Y2935D02*
D03*
Y2835D02*
D03*
Y2735D02*
D03*
Y2635D02*
D03*
Y2535D02*
D03*
Y2435D02*
D03*
X385Y3035D02*
D03*
Y2935D02*
D03*
Y2835D02*
D03*
Y2735D02*
D03*
Y2635D02*
D03*
Y2535D02*
D03*
Y2435D02*
D03*
Y2335D02*
D03*
X685Y3035D02*
D03*
Y2935D02*
D03*
Y2835D02*
D03*
Y2735D02*
D03*
Y2635D02*
D03*
Y2535D02*
D03*
Y2435D02*
D03*
D15*
X3380Y455D02*
D03*
X2930D02*
D03*
X2460D02*
D03*
X2010D02*
D03*
X1550D02*
D03*
X1110D02*
D03*
X3550Y2335D02*
D03*
X2980D02*
D03*
X2390D02*
D03*
X1820D02*
D03*
X1240D02*
D03*
X685D02*
D03*
D16*
X260Y1418D02*
D03*
X1950Y3470D02*
D03*
X2405Y3515D02*
D03*
X2615Y3500D02*
D03*
X455Y3450D02*
D03*
X4500Y3440D02*
D03*
X4435Y1760D02*
D03*
X3200Y3435D02*
D03*
X4420Y3345D02*
D03*
X1560Y3170D02*
D03*
X2495Y3128D02*
D03*
X2460Y3210D02*
D03*
X1435Y3148D02*
D03*
X285Y3155D02*
D03*
X145Y3105D02*
D03*
X185Y2635D02*
D03*
X254Y1681D02*
D03*
X614Y1699D02*
D03*
X616Y1630D02*
D03*
X1195Y1357D02*
D03*
X3793Y2645D02*
D03*
X1065Y1008D02*
D03*
X838Y2883D02*
D03*
X3833Y2943D02*
D03*
X1205Y2245D02*
D03*
X1145Y1971D02*
D03*
X1451Y1981D02*
D03*
X847Y2953D02*
D03*
X1695Y2840D02*
D03*
X1919Y974D02*
D03*
X1615Y510D02*
D03*
X952Y623D02*
D03*
X966Y1627D02*
D03*
X1045Y2402D02*
D03*
X1885Y2385D02*
D03*
X386Y1601D02*
D03*
X2175Y2225D02*
D03*
X3856Y2245D02*
D03*
X3975Y2293D02*
D03*
X4235D02*
D03*
X3826Y1456D02*
D03*
X2545Y2085D02*
D03*
X2535Y2880D02*
D03*
X1407Y2851D02*
D03*
X2290Y2081D02*
D03*
X3875Y1833D02*
D03*
X3993Y1652D02*
D03*
X2339Y2040D02*
D03*
X845Y3100D02*
D03*
X2379Y2189D02*
D03*
X161Y1405D02*
D03*
X2296Y2295D02*
D03*
X2613Y2868D02*
D03*
X145Y1689D02*
D03*
X2256Y2935D02*
D03*
X2244Y885D02*
D03*
X2292Y1925D02*
D03*
X2055Y2182D02*
D03*
X1985Y2320D02*
D03*
X1704Y2184D02*
D03*
X2616Y2320D02*
D03*
X2463Y1780D02*
D03*
X2285Y1335D02*
D03*
X2812Y2478D02*
D03*
X775Y2739D02*
D03*
X673Y797D02*
D03*
X3386Y2932D02*
D03*
X2842Y2886D02*
D03*
X3875Y939D02*
D03*
X3976Y822D02*
D03*
X2800Y1162D02*
D03*
X3796Y1191D02*
D03*
X4230Y1200D02*
D03*
X660Y651D02*
D03*
X2728Y632D02*
D03*
X3461Y1693D02*
D03*
X1358Y1333D02*
D03*
X1050Y1371D02*
D03*
X2759Y2813D02*
D03*
X1432Y325D02*
D03*
X2463Y1355D02*
D03*
X3652Y1300D02*
D03*
X1025Y905D02*
D03*
X1448Y952D02*
D03*
X3733Y1781D02*
D03*
X3695Y600D02*
D03*
X3978Y2689D02*
D03*
X3976Y2206D02*
D03*
X3835Y1990D02*
D03*
X2505D02*
D03*
X3980Y2145D02*
D03*
X3895Y1321D02*
D03*
X3859Y1371D02*
D03*
X2751Y1127D02*
D03*
X3865Y1241D02*
D03*
X4345Y1336D02*
D03*
X3835Y769D02*
D03*
X3985Y1120D02*
D03*
X2833Y459D02*
D03*
X1358Y2936D02*
D03*
X1113Y1190D02*
D03*
X1142Y3100D02*
D03*
X1098Y2600D02*
D03*
X1276Y1323D02*
D03*
X1450Y1780D02*
D03*
X2371Y1335D02*
D03*
X3804Y1315D02*
D03*
X1205Y261D02*
D03*
X4385Y2374D02*
D03*
X4425Y281D02*
D03*
X3507Y1934D02*
D03*
X1835Y790D02*
D03*
X2000Y2880D02*
D03*
X2585Y1323D02*
D03*
X3875Y1759D02*
D03*
X3976Y1718D02*
D03*
X3895Y1467D02*
D03*
X2708Y570D02*
D03*
X1755Y2635D02*
D03*
X1774Y1014D02*
D03*
X1352Y260D02*
D03*
X1409Y805D02*
D03*
X3550Y1814D02*
D03*
X3465D02*
D03*
X2118Y1248D02*
D03*
X3875Y1610D02*
D03*
X3996Y1853D02*
D03*
X1086Y1790D02*
D03*
X1314Y1655D02*
D03*
X2791Y2622D02*
D03*
X2452Y1181D02*
D03*
X4532Y2334D02*
D03*
X696Y1945D02*
D03*
X636Y1925D02*
D03*
X1205Y1962D02*
D03*
X1285Y1944D02*
D03*
X2947Y1119D02*
D03*
X3855Y1024D02*
D03*
X2772Y2181D02*
D03*
X3115D02*
D03*
X1792Y310D02*
D03*
X4508Y289D02*
D03*
X4492Y1733D02*
D03*
X1887Y384D02*
D03*
X1516Y341D02*
D03*
X3875Y1136D02*
D03*
X3795Y709D02*
D03*
X3825Y381D02*
D03*
X3732Y407D02*
D03*
M02*
