M48
;Layer_Color=9474304
;FILE_FORMAT=2:3
INCH,LZ
;TYPE=PLATED
T1F00S00C0.028
T2F00S00C0.035
%
T01
X0066Y00651
X00952Y00623
X01205Y00261
X01352Y0026
X01432Y00325
X01516Y00341
X01615Y0051
X01792Y0031
X01887Y00384
X02708Y0057
X02728Y00632
X02833Y00459
X03732Y00407
X03695Y006
X03795Y00709
X03825Y00381
X04425Y00281
X04508Y00289
X03976Y00822
X03835Y00769
X03875Y00939
X03855Y01024
X03875Y01136
X03865Y01241
X03895Y01321
X03859Y01371
X03804Y01315
X03796Y01191
X03985Y0112
X0423Y012
X04345Y01336
X04435Y0176
X04492Y01733
X03976Y01718
X03993Y01652
X03875Y0161
Y01759
Y01833
X03996Y01853
X03835Y0199
X03856Y02245
X03976Y02206
X0398Y02145
X03975Y02293
X04235
X03895Y01467
X03826Y01456
X03652Y013
X03733Y01781
X0355Y01814
X03465
X03461Y01693
X03507Y01934
X03115Y02181
X02772
X02616Y0232
X02545Y02085
X02505Y0199
X02339Y0204
X0229Y02081
X02292Y01925
X02463Y0178
Y01355
X02371Y01335
X02285
X02585Y01323
X02452Y01181
X02751Y01127
X028Y01162
X02947Y01119
X02244Y00885
X02379Y02189
X02296Y02295
X02175Y02225
X02055Y02182
X01985Y0232
X01704Y02184
X01451Y01981
X0145Y0178
X01314Y01655
X01285Y01944
X01205Y01962
X01145Y01971
X01086Y0179
X00966Y01627
X0105Y01371
X01195Y01357
X01276Y01323
X01358Y01333
X01113Y0119
X01065Y01008
X01025Y00905
X00673Y00797
X01409Y00805
X01448Y00952
X01774Y01014
X01919Y00974
X01835Y0079
X02118Y01248
X01205Y02245
X00696Y01945
X00636Y01925
X00614Y01699
X00616Y0163
X00386Y01601
X00254Y01681
X00145Y01689
X00161Y01405
X0026Y01418
X00185Y02635
X00145Y03105
X00285Y03155
X00455Y0345
X00845Y031
X00847Y02953
X00838Y02883
X00775Y02739
X01098Y026
X01045Y02402
X01142Y031
X01435Y03148
X0156Y0317
X01358Y02936
X01407Y02851
X01695Y0284
X01755Y02635
X01885Y02385
X02Y0288
X0195Y0347
X02405Y03515
X02615Y035
X0246Y0321
X02495Y03128
X02535Y0288
X02613Y02868
X02759Y02813
X02842Y02886
X02791Y02622
X02812Y02478
X02256Y02935
X03386Y02932
X032Y03435
X03833Y02943
X03793Y02645
X03978Y02689
X04385Y02374
X04532Y02334
X0442Y03345
X045Y0344
T02
X0045Y00415
X0055
Y00515
Y00615
Y00715
X0045
Y00615
Y00515
X0081Y00555
Y00655
Y00755
Y00455
X0111
Y00555
Y00655
Y00755
X0125
Y00655
Y00555
Y00455
X0155
Y00555
Y00655
Y00755
X0171
Y00655
Y00555
Y00455
X0201
Y00555
Y00655
Y00755
X0216
Y00655
Y00555
Y00455
X0246
Y00555
Y00655
Y00755
X0263
Y00655
Y00555
Y00455
X0293
Y00555
Y00655
Y00755
X0308
Y00655
Y00555
Y00455
X0338
Y00555
Y00655
Y00755
X0398Y00525
X0408
X0418
X0428
X0438
Y00425
X0428
X0418
X0408
X0398
Y00935
Y01035
X0408
X0418
X0428
X0438
Y00935
X0428
X0418
X0408
Y0147
Y0157
X0418
X0428
X0438
Y0147
X0428
X0418
X0398
Y0157
Y0198
Y0208
X0408
X0418
X0428
X0438
Y0198
X0428
X0418
X0408
X02775Y0188
X02675
Y0178
Y0168
Y0158
Y0148
X02775
Y0158
Y0168
Y0178
X02335Y01735
Y01635
Y01835
X0246Y01055
Y00955
Y00855
X0263
Y00955
Y01055
X0293
Y00955
Y00855
X0308
Y00955
Y01055
X0338
Y00955
Y00855
X0216
Y00955
Y01055
X0201
Y00955
Y00855
X0171
Y00955
Y01055
X0155
Y00955
Y00855
X0125
Y00955
Y01055
X0111
Y00955
Y00855
X0081
Y00955
Y01055
X0115Y0148
Y0158
Y0168
Y0178
Y0188
X0125
Y0178
Y0168
Y0158
Y0148
X01585Y01635
Y01735
Y01835
X019Y0188
Y0178
Y0168
Y0158
Y0148
X02
Y0158
Y0168
Y0178
Y0188
X0055Y01815
Y01715
Y01615
Y01515
Y01415
Y01315
Y01215
Y01115
Y01015
Y00915
Y00815
X0045
Y00915
Y01015
Y01115
Y01215
Y01315
Y01415
Y01515
Y01615
Y01715
Y01815
X00385Y02335
Y02435
Y02535
Y02635
Y02735
Y02835
Y02935
Y03035
X00685
Y02935
Y02835
Y02735
Y02635
Y02535
Y02435
Y02335
X0094
Y02435
Y02535
Y02635
Y02735
Y02835
Y02935
Y03035
X0124
Y02935
Y02835
Y02735
Y02635
Y02535
Y02435
Y02335
X0152
Y02435
Y02535
Y02635
Y02735
Y02835
Y02935
Y03035
X0182
Y02935
Y02835
Y02735
Y02635
Y02535
Y02435
Y02335
X0209
Y02435
Y02535
Y02635
Y02735
Y02835
Y02935
Y03035
X0239
Y02935
Y02835
Y02735
Y02635
Y02535
Y02435
Y02335
X0268
Y02435
Y02535
Y02635
Y02735
Y02835
Y02935
Y03035
X0298
Y02935
Y02835
Y02735
Y02635
Y02535
Y02435
Y02335
X0325
Y02435
Y02535
Y02635
Y02735
Y02835
Y02935
Y03035
X0355
Y02935
Y02835
Y02735
Y02635
Y02535
Y02435
Y02335
X0398Y025
Y026
X0408
X0418
X0428
X0438
Y025
X0428
X0418
X0408
Y03
Y031
X0418
X0428
X0438
Y03
X0428
X0418
X0398
Y031
M30
